<svg width="57" height="32" viewBox="0 0 57 32" fill="none" xmlns="http://www.w3.org/2000/svg">
<g clip-path="url(#clip0_255_2083)">
<path d="M14.681 16L10.1331 30.88C9.92566 31.552 9.31927 32 8.61713 32H0L3.98941 18.96L9.76608 0L14.697 16H14.681Z" fill="#276DD6"/>
<path d="M34.182 16L30.1926 29.04L25.3096 12.992L29.283 0L34.182 16Z" fill="#276DD6"/>
<path d="M29.3466 32H20.7295C20.0274 32 19.405 31.536 19.2135 30.864L9.7666 0H18.3678C19.0699 0 19.6923 0.464 19.8997 1.136L29.3466 32Z" fill="#1FBA8B"/>
<path d="M52.3255 0C54.9106 0 57.0011 2.096 57.0011 4.688C57.0011 7.28 54.9106 9.376 52.3255 9.376C49.7404 9.376 47.6499 7.28 47.6499 4.688C47.6499 2.096 49.7404 0 52.3255 0Z" fill="#F1D42E"/>
<path d="M48.8608 32H40.2596C39.5575 32 38.9351 31.536 38.7277 30.864L29.2808 0H37.8979C38.6 0 39.2224 0.464 39.4139 1.136L48.8608 32Z" fill="#1FBA8B"/>
<path d="M44.8403 13.1998L49.7872 29.0398L54 15.2798C54.3192 14.2558 53.5532 13.2158 52.4681 13.2158H44.8403V13.1998Z" fill="#276DD6"/>
</g>
<defs>
<clipPath id="clip0_255_2083">
<rect width="57.0007" height="32" fill="white"/>
</clipPath>
</defs>
</svg>
