<svg version="1.1" xmlns="http://www.w3.org/2000/svg" width="70" height="50" viewBox="0 0 2000 2000">
<path d="M0 0 C1.37170349 -0.01007584 1.37170349 -0.01007584 2.77111816 -0.02035522 C5.78976905 -0.03932961 8.80819751 -0.04325925 11.8269043 -0.04541016 C13.93051748 -0.05183882 16.03412978 -0.05856723 18.13774109 -0.06558228 C22.54676384 -0.0775539 26.95570824 -0.08126325 31.36474609 -0.08007812 C37.00378776 -0.07987503 42.64232495 -0.10716865 48.28124714 -0.14162254 C52.62652374 -0.16390312 56.9716792 -0.16791529 61.31700706 -0.16685867 C63.39535446 -0.16921321 65.47370527 -0.17802836 67.55199623 -0.19352341 C70.46470681 -0.21320504 73.376333 -0.20733645 76.2890625 -0.1953125 C77.56661659 -0.21217102 77.56661659 -0.21217102 78.86997986 -0.22937012 C85.23223411 -0.16291297 90.55234527 1.33122915 95.36723804 5.6670475 C149.43330955 65.84071121 100.83862305 167.39547254 100.83862305 248.29052734 C277.71862305 248.29052734 454.59862305 248.29052734 636.83862305 248.29052734 C636.83862305 172.39052734 636.83862305 96.49052734 636.83862305 18.29052734 C641.1923976 5.2292037 641.1923976 5.2292037 647.92272949 1.65072632 C652.33648566 -0.13484292 656.53430658 -0.1312111 661.24291992 -0.09765625 C662.15928726 -0.10291321 663.0756546 -0.10817017 664.01979065 -0.11358643 C667.0324943 -0.12673153 670.04466453 -0.11806773 673.05737305 -0.10791016 C675.16052349 -0.10993247 677.26367324 -0.11284521 679.36682129 -0.11660767 C683.76813452 -0.12102359 688.16926473 -0.11462343 692.57055664 -0.10058594 C698.2028536 -0.08349463 703.83472163 -0.09333972 709.46700287 -0.11130333 C713.80795504 -0.12216086 718.14880608 -0.11868576 722.48976135 -0.11091995 C724.56612703 -0.1089234 726.64250198 -0.11135803 728.71885681 -0.11835861 C731.62425955 -0.12600541 734.52897446 -0.11432349 737.43432617 -0.09765625 C738.28648209 -0.10372894 739.138638 -0.10980164 740.01661682 -0.11605835 C746.67230089 -0.04557766 751.3711264 1.21558698 756.58862305 5.60302734 C761.89166377 11.93721488 762.26439564 17.11504463 762.17919922 25.06933594 C762.1796373 26.14310486 762.18007538 27.21687378 762.18052673 28.32318115 C762.17844162 31.86196256 762.15512293 35.40026649 762.1315918 38.93896484 C762.12599488 41.39661399 762.12172523 43.85426648 762.11872864 46.31192017 C762.10728753 52.77281982 762.07782633 59.23351639 762.0446167 65.69433594 C762.01390019 72.29017388 762.0002199 78.88604471 761.98510742 85.48193359 C761.95295622 98.41821803 761.90234711 111.35436187 761.83862305 124.29052734 C762.67276733 124.2816449 763.50691162 124.27276245 764.36633301 124.26361084 C772.25163708 124.18325259 780.13680237 124.12245547 788.02242279 124.08327866 C792.07591816 124.06245981 796.12907339 124.03424777 800.18237305 123.98876953 C804.09869195 123.94510637 808.01468499 123.9213474 811.93122864 123.91101837 C813.42069117 123.90366349 814.91013714 123.88930136 816.39945984 123.86760712 C832.75509148 123.63897431 832.75509148 123.63897431 839.34338379 129.66741943 C844.30816141 135.09550258 845.13968514 140.85559478 845.06567383 147.94824219 C845.06596588 148.69038971 845.06625793 149.43253723 845.06655884 150.19717407 C845.06517377 152.63205969 845.04965176 155.06663317 845.03393555 157.50146484 C845.03020248 159.19682651 845.0273569 160.89219034 845.02536011 162.58755493 C845.01774674 167.03617372 844.9981181 171.48466063 844.97595215 175.93322754 C844.95544412 180.47809058 844.94634781 185.02297506 844.9362793 189.56787109 C844.91486994 198.47548092 844.88076186 207.38299314 844.83862305 216.29052734 C845.65597427 215.94499817 846.4733255 215.59946899 847.31544495 215.24346924 C848.39116257 214.79139099 849.46688019 214.33931274 850.57519531 213.87353516 C852.17247215 213.20055389 852.17247215 213.20055389 853.80201721 212.51397705 C868.86662844 206.44443915 886.47813209 203.77917676 902.0065918 209.44677734 C913.94167786 214.89244399 921.0852053 223.15004147 925.83862305 235.29052734 C931.21677634 250.52862834 926.6335309 269.17614217 920.01049805 283.34130859 C915.1320033 293.16168683 908.84527196 301.78429399 900.83862305 309.29052734 C902.24745004 312.5444171 903.91535448 314.4782025 906.52612305 316.85302734 C919.89322003 329.95423271 926.70396775 348.86097463 927.83862305 367.29052734 C927.89147461 367.98146484 927.94432617 368.67240234 927.9987793 369.38427734 C928.53088357 382.15477991 924.29629185 393.16272309 915.76831055 402.57568359 C905.47033796 412.44918778 894.16219587 414.7078547 880.39331055 414.50537109 C868.33000894 414.09545308 856.61779012 410.68011088 845.83862305 405.29052734 C845.82982368 406.69541161 845.82982368 406.69541161 845.82084656 408.12867737 C845.76354192 416.97106618 845.69074001 425.81321089 845.60290813 434.65535069 C845.55825093 439.20079831 845.51898463 443.74615726 845.4921875 448.29174805 C845.46610803 452.68153487 845.42567299 457.07097963 845.37543678 461.46055412 C845.35879941 463.13216828 845.34726568 464.80384157 845.34100914 466.47552681 C845.33133372 468.8238085 845.30323491 471.17122127 845.27099609 473.51928711 C845.27314873 474.5475209 845.27314873 474.5475209 845.27534485 475.5965271 C845.1405656 482.57403238 842.73194405 488.25739717 837.83862305 493.29052734 C832.17334215 496.59527454 827.82371195 497.41645309 821.32592773 497.40405273 C820.35944809 497.40427177 820.35944809 497.40427177 819.3734436 497.40449524 C817.25242702 497.40380085 815.13149921 497.39603071 813.01049805 497.38818359 C811.53647917 497.38631773 810.06245966 497.38489462 808.58843994 497.38389587 C804.71523313 497.38008395 800.84206402 497.370265 796.96887207 497.35919189 C793.01400258 497.34894927 789.05912698 497.34439215 785.10424805 497.33935547 C777.34902256 497.32864152 769.59382809 497.31158103 761.83862305 497.29052734 C761.84231022 497.84490982 761.84599739 498.3992923 761.8497963 498.97047424 C761.93828364 512.48410238 762.00414304 525.99767948 762.04587173 539.51153564 C762.06673114 546.04686289 762.09501947 552.58198075 762.14038086 559.1171875 C762.18389619 565.42603611 762.20777254 571.73468353 762.21813202 578.04367065 C762.22551308 580.44858974 762.23992655 582.85349804 762.26154327 585.2583313 C762.29065182 588.63128306 762.29457579 592.00340734 762.29272461 595.37646484 C762.30710571 596.36693314 762.32148682 597.35740143 762.33630371 598.37788391 C762.29602172 605.17724106 761.08228962 610.60661205 756.4973793 615.81381226 C750.5354501 621.29132824 743.46799419 621.58849368 735.81738281 621.56518555 C734.94163605 621.57029648 734.06588928 621.57540741 733.16360474 621.58067322 C730.2856756 621.59450631 727.40798761 621.59361729 724.5300293 621.59130859 C722.51895561 621.59519876 720.50788273 621.59953409 718.49681091 621.60429382 C714.28804863 621.61174237 710.07937026 621.61147449 705.87060547 621.60620117 C700.48952627 621.6004061 695.10879122 621.61734521 689.7277689 621.64054585 C685.57637032 621.65530948 681.42505414 621.65615134 677.27363396 621.65303612 C675.29019425 621.65354793 673.30674976 621.65875925 671.32333565 621.66884804 C668.54508496 621.68124719 665.76749864 621.67440013 662.98925781 621.6628418 C662.17810013 621.67048553 661.36694244 621.67812927 660.53120422 621.68600464 C653.82155699 621.62460958 648.28679929 620.35787617 643.02612305 615.91552734 C591.23437608 553.76543098 636.83862305 454.19182233 636.83862305 373.29052734 C459.95862305 373.29052734 283.07862305 373.29052734 100.83862305 373.29052734 C100.83862305 449.85052734 100.83862305 526.41052734 100.83862305 605.29052734 C96.14137534 615.85933468 96.14137534 615.85933468 90.83862305 619.29052734 C85.37278292 621.22859289 80.53272632 621.58259775 74.81738281 621.56518555 C73.94163605 621.57029648 73.06588928 621.57540741 72.16360474 621.58067322 C69.2856756 621.59450631 66.40798761 621.59361729 63.5300293 621.59130859 C61.51895561 621.59519876 59.50788273 621.59953409 57.49681091 621.60429382 C53.28804863 621.61174237 49.07937026 621.61147449 44.87060547 621.60620117 C39.48952627 621.6004061 34.10879122 621.61734521 28.7277689 621.64054585 C24.57637032 621.65530948 20.42505414 621.65615134 16.27363396 621.65303612 C14.29019425 621.65354793 12.30674976 621.65875925 10.32333565 621.66884804 C7.54508496 621.68124719 4.76749864 621.67440013 1.98925781 621.6628418 C1.17810013 621.67048553 0.36694244 621.67812927 -0.46879578 621.68600464 C-8.04712651 621.61666089 -14.58081179 619.71164779 -20.16137695 614.29052734 C-23.29374227 609.81571975 -24.28791444 606.11277 -24.28163147 600.70941162 C-24.28369347 599.33807068 -24.28369347 599.33807068 -24.28579712 597.93902588 C-24.28220184 596.94352722 -24.27860657 595.94802856 -24.27490234 594.92236328 C-24.27504837 593.86839355 -24.2751944 592.81442383 -24.27534485 591.72851562 C-24.27464805 588.24395695 -24.26686648 584.75945169 -24.2590332 581.27490234 C-24.2571682 578.85923288 -24.25574468 576.44356304 -24.25474548 574.02789307 C-24.25092681 567.66897539 -24.24110204 561.31008053 -24.2300415 554.95117188 C-24.21981344 548.46273101 -24.21524487 541.97428645 -24.21020508 535.48583984 C-24.19947922 522.75405927 -24.1826027 510.02229452 -24.16137695 497.29052734 C-24.97046509 497.29718918 -25.77955322 497.30385101 -26.61315918 497.31071472 C-34.26304412 497.37099309 -41.91281281 497.41658634 -49.56287384 497.44596386 C-53.49522591 497.46157522 -57.42738062 497.48272983 -61.35961914 497.5168457 C-65.1592145 497.54960196 -68.95862082 497.56741437 -72.75834656 497.57515907 C-74.20312981 497.58067356 -75.6479035 497.59144166 -77.09260559 497.60771751 C-94.01645797 497.79068116 -94.01645797 497.79068116 -100.97387695 491.91552734 C-106.43285303 485.36475605 -107.28925105 480.3526226 -107.27490234 471.92993164 C-107.27504837 471.20743729 -107.2751944 470.48494293 -107.27534485 469.74055481 C-107.27465117 467.36525413 -107.26688441 464.99003299 -107.2590332 462.61474609 C-107.25716709 460.96279442 -107.2557441 459.31084219 -107.25474548 457.65888977 C-107.25093557 453.32044942 -107.24111834 448.98204279 -107.2300415 444.64361572 C-107.21979455 440.21277319 -107.21524083 435.78192519 -107.21020508 431.35107422 C-107.19949467 422.66420982 -107.18243661 413.97737278 -107.16137695 405.29052734 C-108.76444702 405.90758545 -108.76444702 405.90758545 -110.39990234 406.53710938 C-111.83202959 407.08273754 -113.26424459 407.6281354 -114.6965332 408.17333984 C-115.39734009 408.44380127 -116.09814697 408.7142627 -116.82019043 408.99291992 C-131.55344204 414.58007508 -149.29065406 417.59474785 -164.3840332 411.67333984 C-175.38166658 406.19772491 -182.56801421 398.57775406 -187.59887695 387.41552734 C-192.98347155 370.93540447 -188.83081966 352.0975325 -181.41137695 336.97802734 C-176.39689027 327.26253278 -170.24511061 318.69219598 -162.16137695 311.29052734 C-163.39887695 309.83646484 -163.39887695 309.83646484 -164.66137695 308.35302734 C-165.21051758 307.70462891 -165.7596582 307.05623047 -166.32543945 306.38818359 C-167.533071 305.00840032 -168.77783587 303.66011566 -170.05981445 302.34912109 C-185.203139 286.57731865 -189.81873817 266.02340694 -189.50512695 244.74365234 C-189.03252196 233.21996733 -183.23162246 223.81780897 -174.91137695 216.10302734 C-162.95389311 206.35594697 -149.89772522 206.32420942 -135.16137695 207.29052734 C-127.33344474 208.32194257 -120.16757163 210.83441268 -112.91772461 213.87573242 C-111.83915192 214.32749344 -110.76057922 214.77925446 -109.64932251 215.2447052 C-108.82830048 215.58982651 -108.00727844 215.93494781 -107.16137695 216.29052734 C-107.17136971 214.90776611 -107.17136971 214.90776611 -107.18156433 213.49707031 C-107.24180443 204.78763286 -107.28741683 196.07826591 -107.31681347 187.3686676 C-107.33243491 182.89152094 -107.35360846 178.41454718 -107.38769531 173.9375 C-107.42041489 169.61271477 -107.43825643 165.28809531 -107.44600868 160.9631958 C-107.45152966 159.31745801 -107.46231062 157.67172877 -107.47856712 156.02606201 C-107.50050951 153.71167763 -107.50333697 151.39796861 -107.50195312 149.08349609 C-107.51194588 147.11159302 -107.51194588 147.11159302 -107.5221405 145.09985352 C-106.8382626 137.87874154 -104.34050796 132.35195082 -99.16137695 127.29052734 C-94.25315775 124.78987682 -90.70909962 123.91875236 -85.12451172 123.94995117 C-84.46024673 123.94951309 -83.79598175 123.94907501 -83.11158752 123.94862366 C-80.94167461 123.95069407 -78.77255914 123.97394005 -76.6027832 123.99755859 C-75.08821535 124.00316082 -73.57364203 124.00742796 -72.05906677 124.01042175 C-68.09205858 124.02182133 -64.12538514 124.05124563 -60.1585083 124.08453369 C-56.10286994 124.11534064 -52.04717697 124.12894969 -47.99145508 124.14404297 C-40.04794288 124.1761207 -32.10470168 124.22725697 -24.16137695 124.29052734 C-24.16506413 123.73614487 -24.1687513 123.18176239 -24.1725502 122.61058044 C-24.26103755 109.09695231 -24.32689694 95.58337521 -24.36862564 82.06951904 C-24.38948505 75.5341918 -24.41777338 68.99907394 -24.46313477 62.46386719 C-24.5066501 56.15501858 -24.53052645 49.84637116 -24.54088593 43.53738403 C-24.54826699 41.13246494 -24.56268046 38.72755665 -24.58429718 36.32272339 C-24.61340573 32.94977163 -24.6173297 29.57764734 -24.61547852 26.20458984 C-24.62985962 25.21412155 -24.64424072 24.22365326 -24.65905762 23.20317078 C-24.6189694 16.4365225 -23.46804813 10.85769695 -18.74933243 5.76724243 C-12.81913521 0.51245972 -7.56086358 -0.00798922 0 0 Z M17.83862305 42.29052734 C17.83862305 219.50052734 17.83862305 396.71052734 17.83862305 579.29052734 C31.36862305 579.29052734 44.89862305 579.29052734 58.83862305 579.29052734 C58.83862305 402.08052734 58.83862305 224.87052734 58.83862305 42.29052734 C45.30862305 42.29052734 31.77862305 42.29052734 17.83862305 42.29052734 Z M679.83862305 42.29052734 C679.83862305 219.50052734 679.83862305 396.71052734 679.83862305 579.29052734 C693.03862305 579.29052734 706.23862305 579.29052734 719.83862305 579.29052734 C719.83862305 402.08052734 719.83862305 224.87052734 719.83862305 42.29052734 C706.63862305 42.29052734 693.43862305 42.29052734 679.83862305 42.29052734 Z M-64.16137695 166.29052734 C-64.16137695 261.66052734 -64.16137695 357.03052734 -64.16137695 455.29052734 C-50.96137695 455.29052734 -37.76137695 455.29052734 -24.16137695 455.29052734 C-24.16137695 359.92052734 -24.16137695 264.55052734 -24.16137695 166.29052734 C-37.36137695 166.29052734 -50.56137695 166.29052734 -64.16137695 166.29052734 Z M761.83862305 166.29052734 C761.83862305 261.66052734 761.83862305 357.03052734 761.83862305 455.29052734 C775.36862305 455.29052734 788.89862305 455.29052734 802.83862305 455.29052734 C802.83862305 359.92052734 802.83862305 264.55052734 802.83862305 166.29052734 C789.30862305 166.29052734 775.77862305 166.29052734 761.83862305 166.29052734 Z M-147.16137695 249.29052734 C-146.63007653 262.01517241 -141.54293354 271.52913704 -132.4387207 280.39599609 C-125.39966548 286.25181391 -116.32815977 289.73768748 -107.16137695 289.29052734 C-106.26798297 279.23984505 -110.94984784 269.96093859 -117.16137695 262.29052734 C-122.85625773 255.99541491 -131.78167065 250.79502576 -140.16137695 249.29052734 C-142.49438628 249.25164385 -144.82847496 249.24566384 -147.16137695 249.29052734 Z M858.83862305 259.29052734 C858.22245117 259.81517578 857.6062793 260.33982422 856.97143555 260.88037109 C850.07014997 267.17446201 846.53154524 275.21030831 844.83862305 284.29052734 C844.81239835 285.95698768 844.80707391 287.62415931 844.83862305 289.29052734 C856.19595071 289.24581346 865.81889397 285.07630073 874.0925293 277.26708984 C880.09805595 270.46888741 884.97044381 261.47078125 885.02612305 252.22802734 C884.96424805 251.25865234 884.90237305 250.28927734 884.83862305 249.29052734 C874.83914013 248.90479061 866.19447402 252.68299887 858.83862305 259.29052734 Z M100.83862305 290.29052734 C100.83862305 303.82052734 100.83862305 317.35052734 100.83862305 331.29052734 C123.60862305 331.29052734 146.37862305 331.29052734 169.83862305 331.29052734 C177.75486539 316.31080159 177.75486539 316.31080159 185.46362305 301.22802734 C185.89545898 300.37660156 186.32729492 299.52517578 186.7722168 298.64794922 C187.38129883 297.43268555 187.38129883 297.43268555 188.00268555 296.19287109 C188.3579834 295.48638428 188.71328125 294.77989746 189.0793457 294.05200195 C189.97056925 292.30411211 189.97056925 292.30411211 189.83862305 290.29052734 C160.46862305 290.29052734 131.09862305 290.29052734 100.83862305 290.29052734 Z M236.83862305 290.29052734 C233.98847479 295.96792087 231.13952882 301.64588376 228.29370117 307.32543945 C227.32436629 309.25906738 226.35431513 311.19233641 225.38354492 313.12524414 C223.9917036 315.8968547 222.60240788 318.66972802 221.21362305 321.44287109 C220.77614746 322.31266098 220.33867188 323.18245087 219.88793945 324.07859802 C219.48752441 324.87935257 219.08710937 325.68010712 218.67456055 326.50512695 C218.3192627 327.21350204 217.96396484 327.92187714 217.59790039 328.65171814 C216.76855919 330.14072587 216.76855919 330.14072587 216.83862305 331.29052734 C228.71862305 331.29052734 240.59862305 331.29052734 252.83862305 331.29052734 C255.6887713 325.61313382 258.53771727 319.93517093 261.38354492 314.25561523 C262.35287981 312.32198731 263.32293096 310.38871828 264.29370117 308.45581055 C265.6855425 305.68419999 267.07483821 302.91132667 268.46362305 300.13818359 C268.90109863 299.26839371 269.33857422 298.39860382 269.78930664 297.50245667 C270.3899292 296.30132484 270.3899292 296.30132484 271.00268555 295.07592773 C271.3579834 294.36755264 271.71328125 293.65917755 272.0793457 292.92933655 C272.90868691 291.44032881 272.90868691 291.44032881 272.83862305 290.29052734 C260.95862305 290.29052734 249.07862305 290.29052734 236.83862305 290.29052734 Z M319.83862305 290.29052734 C314.54633741 300.27026597 309.29497797 310.26409397 304.21362305 320.35302734 C303.77614746 321.21508789 303.33867188 322.07714844 302.88793945 322.96533203 C302.48752441 323.76487305 302.08710937 324.56441406 301.67456055 325.38818359 C301.3192627 326.09467041 300.96396484 326.80115723 300.59790039 327.52905273 C299.70667685 329.27694257 299.70667685 329.27694257 299.83862305 331.29052734 C311.71862305 331.29052734 323.59862305 331.29052734 335.83862305 331.29052734 C338.6887713 325.61313382 341.53771727 319.93517093 344.38354492 314.25561523 C345.35287981 312.32198731 346.32293096 310.38871828 347.29370117 308.45581055 C348.6855425 305.68419999 350.07483821 302.91132667 351.46362305 300.13818359 C351.90109863 299.26839371 352.33857422 298.39860382 352.78930664 297.50245667 C353.3899292 296.30132484 353.3899292 296.30132484 354.00268555 295.07592773 C354.3579834 294.36755264 354.71328125 293.65917755 355.0793457 292.92933655 C355.90868691 291.44032881 355.90868691 291.44032881 355.83862305 290.29052734 C343.95862305 290.29052734 332.07862305 290.29052734 319.83862305 290.29052734 Z M401.83862305 290.29052734 C400.53924805 293.07490234 399.23987305 295.85927734 397.90112305 298.72802734 C394.39135627 306.20784751 390.68173669 313.54459403 386.67089844 320.76879883 C384.6722682 324.430174 383.67352589 327.11601313 382.83862305 331.29052734 C394.38862305 331.29052734 405.93862305 331.29052734 417.83862305 331.29052734 C423.13090868 321.31078872 428.38226812 311.31696072 433.46362305 301.22802734 C433.90109863 300.3659668 434.33857422 299.50390625 434.78930664 298.61572266 C435.3899292 297.41641113 435.3899292 297.41641113 436.00268555 296.19287109 C436.3579834 295.48638428 436.71328125 294.77989746 437.0793457 294.05200195 C437.97056925 292.30411211 437.97056925 292.30411211 437.83862305 290.29052734 C425.95862305 290.29052734 414.07862305 290.29052734 401.83862305 290.29052734 Z M484.83862305 290.29052734 C481.98847479 295.96792087 479.13952882 301.64588376 476.29370117 307.32543945 C475.32436629 309.25906738 474.35431513 311.19233641 473.38354492 313.12524414 C471.9917036 315.8968547 470.60240788 318.66972802 469.21362305 321.44287109 C468.77614746 322.31266098 468.33867188 323.18245087 467.88793945 324.07859802 C467.48752441 324.87935257 467.08710937 325.68010712 466.67456055 326.50512695 C466.3192627 327.21350204 465.96396484 327.92187714 465.59790039 328.65171814 C464.76855919 330.14072587 464.76855919 330.14072587 464.83862305 331.29052734 C476.71862305 331.29052734 488.59862305 331.29052734 500.83862305 331.29052734 C503.6887713 325.61313382 506.53771727 319.93517093 509.38354492 314.25561523 C510.35287981 312.32198731 511.32293096 310.38871828 512.29370117 308.45581055 C513.6855425 305.68419999 515.07483821 302.91132667 516.46362305 300.13818359 C516.90109863 299.26839371 517.33857422 298.39860382 517.78930664 297.50245667 C518.3899292 296.30132484 518.3899292 296.30132484 519.00268555 295.07592773 C519.3579834 294.36755264 519.71328125 293.65917755 520.0793457 292.92933655 C520.90868691 291.44032881 520.90868691 291.44032881 520.83862305 290.29052734 C508.95862305 290.29052734 497.07862305 290.29052734 484.83862305 290.29052734 Z M567.83862305 290.29052734 C559.92238071 305.2702531 559.92238071 305.2702531 552.21362305 320.35302734 C551.78178711 321.20445312 551.34995117 322.05587891 550.9050293 322.93310547 C550.49897461 323.74328125 550.09291992 324.55345703 549.67456055 325.38818359 C549.3192627 326.09467041 548.96396484 326.80115723 548.59790039 327.52905273 C547.70667685 329.27694257 547.70667685 329.27694257 547.83862305 331.29052734 C577.20862305 331.29052734 606.57862305 331.29052734 636.83862305 331.29052734 C636.83862305 317.76052734 636.83862305 304.23052734 636.83862305 290.29052734 C614.06862305 290.29052734 591.29862305 290.29052734 567.83862305 290.29052734 Z M-137.41137695 345.54052734 C-143.44704476 353.1186436 -147.63800153 362.51972353 -147.16137695 372.29052734 C-134.57249146 371.47834118 -125.07402651 366.73379067 -116.47387695 357.54052734 C-110.07084282 349.92135629 -106.97137568 342.17059336 -107.16137695 332.29052734 C-118.69904135 331.43588554 -129.63370462 337.10810199 -137.41137695 345.54052734 Z M844.83862305 332.29052734 C845.65000333 344.86692166 850.41898152 354.27115251 859.46362305 362.97802734 C866.77512191 369.08725297 875.44078139 371.82063526 884.83862305 372.29052734 C885.59927068 362.21194625 882.13997574 353.96186497 875.68237305 346.28662109 C869.23801301 339.30978216 860.57481678 332.64345589 850.69799805 332.19287109 C850.0019043 332.20447266 849.30581055 332.21607422 848.58862305 332.22802734 C847.35112305 332.24865234 846.11362305 332.26927734 844.83862305 332.29052734 Z " fill="#6D28D9" transform="translate(618.161376953125,16.70947265625)"/>
<path d="M0 0 C1.28949602 -0.00782324 2.57899203 -0.01564648 3.90756369 -0.02370679 C5.34693367 -0.01721998 6.78630239 -0.01044998 8.22566986 -0.00342751 C9.7481757 -0.00688196 11.27067905 -0.01164508 12.79317713 -0.01760924 C16.98785557 -0.03017823 21.18233028 -0.0239222 25.37700963 -0.01465058 C29.89649822 -0.00788447 34.4159509 -0.01832917 38.93543243 -0.02659035 C47.7934138 -0.03995601 56.65131906 -0.03703736 65.50930345 -0.02835242 C72.7060098 -0.02158741 79.90269477 -0.02065403 87.09940338 -0.02392387 C88.12223904 -0.02438357 89.1450747 -0.02484327 90.19890538 -0.0253169 C92.27653659 -0.02627604 94.3541678 -0.02724868 96.43179899 -0.02823468 C115.9306438 -0.03679687 135.42944635 -0.02694144 154.92828423 -0.01083358 C171.67257554 0.00257035 188.41680448 0.00024249 205.16109467 -0.01358986 C224.58841082 -0.02963104 244.01568991 -0.03597282 263.44301176 -0.02675307 C265.51315784 -0.02579738 267.58330392 -0.02485427 269.65345001 -0.02392387 C270.6720996 -0.02346105 271.69074919 -0.02299822 272.74026695 -0.02252137 C279.93139925 -0.01992709 287.12250811 -0.02431189 294.31363678 -0.03136253 C303.07282622 -0.03976152 311.83193497 -0.03753124 320.59111512 -0.0215203 C325.06334128 -0.01361593 329.53543273 -0.01058267 334.007658 -0.02046776 C338.09722458 -0.02937058 342.18653086 -0.02455527 346.27607363 -0.0085351 C347.75987415 -0.00516847 349.24369641 -0.00692327 350.72748309 -0.01416247 C352.73592501 -0.02321392 354.74442804 -0.01218491 356.75285339 0 C357.87102243 0.00048706 358.98919147 0.00097411 360.14124441 0.00147593 C362.8764267 0.37752342 362.8764267 0.37752342 364.73590398 1.74857694 C366.3910583 4.11254371 366.24823162 5.90590263 366.24391937 8.77402306 C366.24948853 9.89433922 366.25505768 11.01465538 366.26079559 12.16892052 C366.25158081 13.39864082 366.24236603 14.62836113 366.23287201 15.89534569 C366.23491638 17.18979607 366.23696075 18.48424644 366.23906708 19.81792259 C366.24420453 23.36953083 366.23065957 26.9208497 366.21354008 30.47241139 C366.19851582 34.18572429 366.1996784 37.89903324 366.19887543 41.61237144 C366.19518205 47.84753428 366.18021046 54.08258708 366.1576767 60.31770897 C366.12879049 68.32700577 366.11845241 76.33621398 366.1139946 84.34555721 C366.1100176 91.22454247 366.097516 98.10350839 366.08364773 104.98247981 C366.0795456 107.19721988 366.07662159 109.41195926 366.07385254 111.62670135 C366.06805866 115.74753457 366.05338642 119.86828882 366.03755951 123.98909569 C366.03644165 125.22084023 366.03532379 126.45258476 366.03417206 127.72165489 C366.02846191 128.83915123 366.02275177 129.95664757 366.01686859 131.10800743 C366.01389393 132.08305512 366.01091927 133.05810282 366.00785446 134.06269741 C365.8764267 136.37752342 365.8764267 136.37752342 364.8764267 138.37752342 C362.17285159 139.27871512 360.63992524 139.5020605 357.86843586 139.50057125 C357.05083154 139.5025623 356.23322723 139.50455335 355.39084703 139.50660473 C354.4929946 139.50369189 353.59514217 139.50077905 352.67008209 139.49777794 C351.71605112 139.49863236 350.76202014 139.49948679 349.77907914 139.50036711 C346.5684268 139.50201991 343.35782621 139.49650376 340.14717865 139.49104881 C337.85119884 139.49076687 335.55521895 139.49092481 333.2592392 139.49149132 C327.0137404 139.49177902 320.7682607 139.4858866 314.52276635 139.47891736 C308.00045127 139.47267938 301.47813578 139.47207967 294.95581818 139.47089195 C284.00446481 139.46813385 273.05311851 139.46188144 262.10176849 139.45296288 C250.82116989 139.44378572 239.5405732 139.43671783 228.25997162 139.43245506 C227.55769741 139.43218707 226.85542319 139.43191907 226.13186795 139.43164295 C220.02321951 139.42933014 213.91457101 139.42717732 207.80592251 139.42504025 C181.49608396 139.41562835 155.18626402 139.39570855 128.8764267 139.37752342 C128.8764267 197.12752342 128.8764267 254.87752342 128.8764267 314.37752342 C145.81728607 314.34271873 162.75814545 314.30791405 180.2123642 314.27205467 C190.91288639 314.25673511 201.61340069 314.24217008 212.3139267 314.23103905 C217.93241655 314.2251651 223.55090614 314.21910356 229.16939545 314.2127285 C230.22572878 314.21154163 230.22572878 314.21154163 231.30340219 314.21033078 C242.68442285 314.19726965 254.06539821 314.17361096 265.44639198 314.14606503 C277.11942788 314.11804712 288.7924373 314.10157951 300.46550524 314.09525794 C307.02502363 314.0913368 313.58443919 314.08208053 320.14392471 314.06033325 C326.31127902 314.04005069 332.47848763 314.03367289 338.64587212 314.03820038 C340.91552076 314.03737148 343.18517402 314.03135712 345.45479393 314.019907 C348.5415144 314.00509167 351.62767684 314.00852958 354.71440887 314.01675987 C355.62295604 314.00802135 356.53150321 313.99928282 357.46758211 313.9902795 C359.96024895 314.00837994 359.96024895 314.00837994 363.8764267 314.37752342 C366.11147419 317.73009467 366.1420063 318.88121851 366.19527435 322.8052578 C366.21512894 323.93253792 366.23498352 325.05981804 366.25543976 326.22125816 C366.26700607 327.4587632 366.27857239 328.69626823 366.2904892 329.97127342 C366.31974236 331.92523788 366.31974236 331.92523788 366.34958649 333.91867638 C366.40215807 337.4929106 366.44165236 341.06717843 366.47792435 344.6416111 C366.50138286 346.87335304 366.52812294 349.10503086 366.55602264 351.33672142 C366.693361 362.35010505 366.79432591 373.36359774 366.8764267 384.37752342 C366.8855093 385.58035847 366.8855093 385.58035847 366.89477539 386.80749321 C366.97646013 397.77477997 367.0300141 408.74191027 367.0572052 419.70946312 C367.06393687 421.9433984 367.07404164 424.17729651 367.08498383 426.41121483 C367.10453997 430.56799575 367.1068794 434.72460252 367.10689545 438.88142967 C367.11759819 440.7454216 367.11759819 440.7454216 367.12851715 442.64706993 C367.12549088 443.77443062 367.1224646 444.90179131 367.11934662 446.06331444 C367.12077164 447.04703529 367.12219666 448.03075615 367.12366486 449.04428673 C366.8764267 451.37752342 366.8764267 451.37752342 364.8764267 453.37752342 C361.78017928 453.57132117 358.7736261 453.63780716 355.67644501 453.61803246 C354.7110178 453.61974131 353.74559059 453.62145015 352.75090802 453.62321079 C349.49563579 453.62652148 346.24056685 453.61547606 342.98531342 453.6045742 C340.65992487 453.60401043 338.33453598 453.60432598 336.00914764 453.60545921 C329.67885853 453.60603505 323.34864459 453.59424345 317.01837301 453.5803113 C311.07831377 453.56910451 305.13825754 453.56706714 299.19818915 453.56500755 C287.43060175 453.56062736 275.66304203 453.54730947 263.89546967 453.52840233 C252.46252837 453.51005192 241.02959458 453.49589131 229.59664154 453.4873867 C228.89223603 453.48686126 228.18783052 453.48633581 227.46207939 453.48579444 C223.92837989 453.48318442 220.39468034 453.48065699 216.86098075 453.47817063 C187.53277821 453.45742803 158.20460275 453.42204529 128.8764267 453.37752342 C128.87718614 454.08273841 128.87794558 454.78795339 128.87872803 455.51453853 C128.9234553 497.2837337 128.9577852 539.05292609 128.97855736 580.82214038 C128.98105886 585.83409102 128.98364749 590.84604161 128.98628998 595.85799217 C128.9868146 596.85580826 128.98733922 597.85362436 128.98787974 598.8816773 C128.99658941 615.05176524 129.01236247 631.22183899 129.03073229 647.39191851 C129.04941572 663.97599893 129.06054012 680.56007191 129.06460369 697.14416242 C129.06735198 707.38270401 129.07604151 717.62120554 129.09225963 727.8597348 C129.10280731 734.87457041 129.10603237 741.88938521 129.10342945 748.90422818 C129.1021447 752.95528428 129.10415517 757.00627021 129.11483765 761.05731392 C129.12453927 764.76334093 129.12508181 768.46925031 129.11822449 772.17528263 C129.11697356 774.15665482 129.12562705 776.13802554 129.13458931 778.11937785 C129.13060722 779.29079617 129.12662512 780.46221448 129.12252235 781.66913033 C129.12328179 782.68222417 129.12404124 783.69531801 129.12482369 784.73911166 C128.8662546 787.48556893 128.43506225 789.10932006 126.8764267 791.37752342 C123.8397182 792.38975959 121.79120619 792.50801056 118.61400604 792.51796532 C117.52326782 792.52367546 116.4325296 792.5293856 115.30873871 792.53526878 C113.51330627 792.53694557 113.51330627 792.53694557 111.68160248 792.53865623 C110.42123169 792.54362114 109.1608609 792.54858604 107.86229706 792.5537014 C104.40357213 792.56681637 100.94486661 792.57326847 97.4861207 792.57771206 C95.32502004 792.58064397 93.16392468 792.58474898 91.00282669 792.58921623 C84.24052776 792.60288818 77.47824094 792.61255657 70.71592915 792.61641812 C62.91098308 792.62089964 55.10621208 792.63845304 47.30131924 792.66741872 C41.26725662 792.68903492 35.23324326 792.69912235 29.19914234 792.70045924 C25.59564348 792.70150723 21.99230925 792.70741368 18.38885117 792.72527885 C14.36913933 792.7448204 10.34979404 792.74047086 6.33003998 792.73396873 C4.54068024 792.74779091 4.54068024 792.74779091 2.71517181 792.76189232 C1.61879395 792.75632317 0.52241608 792.75075401 -0.60718536 792.7450161 C-1.55734465 792.74648266 -2.50750393 792.74794922 -3.48645592 792.74946022 C-6.75504648 792.28846098 -8.50437667 791.38591201 -11.1235733 789.37752342 C-11.74003452 786.90453601 -11.74003452 786.90453601 -11.72778988 783.89258003 C-11.73529674 782.74559647 -11.74280359 781.5986129 -11.75053793 780.41687226 C-11.72460244 778.5180321 -11.72460244 778.5180321 -11.69814301 776.58083153 C-11.69743687 775.22654404 -11.69893352 773.8722539 -11.70245022 772.5179708 C-11.7057576 768.78925826 -11.6777977 765.06132588 -11.64489922 761.33278096 C-11.61497805 757.32429183 -11.61392866 753.315787 -11.60949898 749.30720329 C-11.597874 742.35187845 -11.56798385 735.39682266 -11.52591896 728.44161797 C-11.46435474 718.2438304 -11.43107855 708.04609695 -11.40467735 697.84816465 C-11.3614761 681.36445289 -11.29796653 664.88089113 -11.22238922 648.39729881 C-11.12867474 627.86501726 -11.07163503 607.33279934 -11.03134185 586.80035032 C-11.01652681 579.31229449 -11.00057575 571.82424092 -10.98465729 564.33618736 C-10.98292276 563.51532401 -10.98118823 562.69446066 -10.97940114 561.84872266 C-10.93807822 542.40882379 -10.88025895 522.96898093 -10.81937408 503.52913475 C-10.81671305 502.67813801 -10.81405202 501.82714126 -10.81131035 500.95035674 C-10.77586582 489.6267914 -10.739683 478.30322847 -10.70326328 466.97966623 C-10.68585442 461.56445312 -10.66857899 456.1492396 -10.65133667 450.73402596 C-10.6484488 449.82706043 -10.64556094 448.9200949 -10.64258556 447.98564557 C-10.636727 446.14559503 -10.63086864 444.30554449 -10.62501046 442.46549394 C-10.60134618 435.03552556 -10.57762145 427.60555738 -10.55390662 420.17558916 C-10.54495659 417.37132106 -10.53600915 414.56705295 -10.52706194 411.76278484 C-10.5121116 407.07754727 -10.4971505 402.39230974 -10.48218039 397.70707224 C-10.47617986 395.82906729 -10.470181 393.95106233 -10.46418378 392.07305738 C-10.43120977 381.750144 -10.39801263 371.42723141 -10.36426544 361.10432053 C-10.21570907 315.6494317 -10.08748627 270.19458219 -9.99392563 224.7395457 C-9.99215957 223.88179183 -9.9903935 223.02403797 -9.98857392 222.14029156 C-9.98502132 220.41407315 -9.98147354 218.68785474 -9.9779306 216.96163632 C-9.9519865 204.3531976 -9.92312657 191.74476867 -9.89147186 179.136343 C-9.88943911 178.32541499 -9.88740635 177.51448699 -9.885312 176.6789854 C-9.8650947 168.63134201 -9.84447085 160.58369975 -9.82330041 152.53605881 C-9.81298793 148.60792916 -9.80281368 144.67979917 -9.79273224 140.75166893 C-9.7907528 139.98085753 -9.78877337 139.21004614 -9.78673395 138.41587682 C-9.75540488 126.09404918 -9.73425874 113.7722241 -9.717117 101.45036943 C-9.69993841 89.23918857 -9.67227682 77.02806914 -9.63349921 64.81693739 C-9.61298621 58.25835787 -9.59777388 51.69984282 -9.5955143 45.14122772 C-9.59340205 39.18180506 -9.57780704 33.22258275 -9.55103195 27.26322126 C-9.543807 25.10706607 -9.54171465 22.95088672 -9.54509938 20.79472208 C-9.54895878 17.8851742 -9.53468519 14.9762825 -9.51557159 12.0668087 C-9.52110143 11.21941818 -9.52663126 10.37202767 -9.53232867 9.49895865 C-9.46802677 3.89461074 -9.46802677 3.89461074 -7.98242366 1.66445023 C-5.29381382 -0.19693902 -3.25428109 0.00141751 0 0 Z " fill="#6D28D9" transform="translate(30.123573303222656,869.6224765777588)"/>
<path d="M0 0 C1.10626236 -0.00571014 2.21252472 -0.01142029 3.35231018 -0.01730347 C4.57672821 -0.01842133 5.80114624 -0.01953918 7.06266785 -0.02069092 C8.34386002 -0.02565582 9.62505219 -0.03062073 10.94506836 -0.03573608 C14.46995816 -0.04888438 17.99482889 -0.05530997 21.51973939 -0.05974674 C23.72068875 -0.0626741 25.92163285 -0.06677829 28.12257957 -0.07125092 C35.00501889 -0.08493343 41.88744626 -0.09459588 48.76989824 -0.09845281 C56.72146434 -0.10293292 64.67285849 -0.12047536 72.6243723 -0.1494534 C78.7653844 -0.17105816 84.90634809 -0.18115647 91.04739779 -0.18249393 C94.71740391 -0.18354301 98.38724855 -0.18947217 102.05721474 -0.20731354 C106.1515867 -0.22682973 110.24559832 -0.22251009 114.3400116 -0.21600342 C115.55835693 -0.2252182 116.77670227 -0.23443298 118.03196716 -0.243927 C119.70404991 -0.23557327 119.70404991 -0.23557327 121.40991211 -0.22705078 C122.37833951 -0.22851734 123.34676691 -0.2299839 124.3445406 -0.2314949 C127.37357857 0.2101589 128.70906792 1.02322609 130.89543152 3.14044189 C131.88205398 5.65594414 132.63532727 7.98077185 133.31217957 10.57818604 C133.52105867 11.33150396 133.72993778 12.08482189 133.94514656 12.86096764 C134.63391923 15.35808901 135.30169033 17.86033662 135.96965027 20.36309814 C136.45273946 22.13007218 136.9371935 23.89667357 137.42294312 25.66291809 C138.4305916 29.33617096 139.4297256 33.01158076 140.42173767 36.68908691 C141.79421931 41.77502177 143.18777906 46.85491781 144.58927917 51.93292236 C147.07275697 60.93985692 149.53550979 69.95237 151.9949379 78.96589661 C153.99833488 86.30532222 156.00618273 93.64353285 158.01312065 100.98199081 C158.78598316 103.8081424 159.55867603 106.63434033 160.33135986 109.46054077 C166.41635539 131.71420123 172.53586737 153.95835641 178.65837097 176.20172119 C179.33552636 178.66193076 180.01267428 181.12214237 180.6898098 183.58235741 C181.14159476 185.2237925 181.59339857 186.86522242 182.04522133 188.50664711 C185.43421602 200.81915203 188.81457276 213.13400786 192.19068718 225.45005035 C193.69633305 230.94162907 195.20324861 236.43285954 196.71018696 241.92408371 C198.13773535 247.12658063 199.56329938 252.32961565 200.98731327 257.53308105 C201.87200523 260.76378991 202.75872277 263.99394043 203.64595222 267.22395325 C204.05019447 268.697181 204.45364211 270.17062712 204.85613823 271.64433289 C208.01320288 283.20119017 211.41716367 294.67637385 214.89543152 306.14044189 C215.18483612 305.10064682 215.47424072 304.06085175 215.77241516 302.98954773 C223.59354234 274.88927451 231.41521544 246.78915328 239.23738384 218.68916988 C240.89772542 212.72462727 242.55802393 206.76007268 244.21826363 200.79550171 C250.06697938 179.78348908 255.91803639 158.77213021 261.77217293 137.7616272 C263.50889279 131.52833298 265.24494791 125.29485377 266.98088074 119.06134033 C269.37887909 110.45061105 271.77807615 101.84021652 274.17841625 93.23013973 C275.45091776 88.6655654 276.72302915 84.10088352 277.99391174 79.53585815 C280.55918781 70.32249323 283.13179305 61.11126133 285.71950436 51.90417004 C287.27002158 46.38342336 288.8059721 40.85877897 290.33596992 35.33231258 C291.42471482 31.40877144 292.52301188 27.48794562 293.62343979 23.56766701 C294.1503371 21.68299275 294.67330215 19.79721437 295.192173 17.91031456 C295.91020349 15.30145807 296.64207185 12.69686936 297.37736511 10.09283447 C297.69364931 8.92421214 297.69364931 8.92421214 298.01632309 7.73198128 C299.55336512 2.36848616 299.55336512 2.36848616 302.89543152 0.14044189 C305.3204813 -0.11124039 305.3204813 -0.11124039 308.25396729 -0.11352539 C309.9218203 -0.12198486 309.9218203 -0.12198486 311.62336731 -0.13061523 C312.84373688 -0.12656677 314.06410645 -0.12251831 315.32145691 -0.11834717 C316.60615372 -0.12185181 317.89085052 -0.12535645 319.21447754 -0.12896729 C322.73915345 -0.13809262 326.26371241 -0.13454672 329.7883904 -0.12820911 C333.47368644 -0.12315094 337.15897237 -0.12783996 340.8442688 -0.13098145 C347.03232118 -0.13462117 353.22032583 -0.12982136 359.40837097 -0.12030029 C366.56854195 -0.10941091 373.72859907 -0.11294477 380.8887673 -0.1239531 C387.03149329 -0.13302009 393.17418494 -0.1343143 399.31691545 -0.12907577 C402.98789776 -0.12595343 406.65882649 -0.12555401 410.32980537 -0.13214874 C414.41953944 -0.13898248 418.50907619 -0.12951913 422.59880066 -0.11834717 C423.82119446 -0.12239563 425.04358826 -0.12644409 426.30302429 -0.13061523 C427.41210648 -0.12497559 428.52118866 -0.11933594 429.66387939 -0.11352539 C430.63155274 -0.11277134 431.59922609 -0.11201729 432.59622288 -0.11124039 C434.89543152 0.14044189 434.89543152 0.14044189 436.89543152 2.14044189 C436.57987725 8.66630242 434.21442103 14.70864632 432.13371277 20.85137939 C431.55305305 22.58842636 431.55305305 22.58842636 430.96066284 24.36056519 C429.715362 28.08076535 428.46166971 31.79807789 427.20793152 35.51544189 C426.41508954 37.88245385 425.62276796 40.24964018 424.83097839 42.61700439 C420.03375762 56.93532769 415.16169619 71.22768157 410.27433777 85.51544189 C403.00598038 106.76418225 395.83778272 128.04619826 388.68263245 149.33328247 C384.94221311 160.46123247 381.1979855 171.58790158 377.45402527 182.71466064 C377.08203569 183.82027155 376.71004612 184.92588245 376.32678413 186.06499672 C369.76231874 205.57501175 363.17981471 225.07886728 356.58293152 244.57794189 C354.67782702 250.20939935 352.77284548 255.84089838 350.86808777 261.47247314 C350.63095692 262.1735532 350.39382607 262.87463326 350.14950943 263.59695816 C342.98069589 284.79308971 335.83592712 305.99733721 328.68821716 327.20059204 C326.86283539 332.61546413 325.03738138 338.03031186 323.21183777 343.44512939 C322.91073593 344.33824389 322.60963409 345.23135838 322.29940796 346.15153694 C317.69863838 359.7976079 313.09345841 373.44218526 308.48527527 387.08575439 C308.18601135 387.97182499 307.88674744 388.85789558 307.57841492 389.7708168 C304.71633887 398.244884 301.85393677 406.71884083 298.99045849 415.19243431 C297.95267657 418.26364525 296.91517723 421.3349516 295.87773323 424.4062767 C295.40611151 425.80227027 294.93436253 427.19822086 294.46246147 428.59412003 C294.24351282 429.24178204 294.02456417 429.88944405 293.79898071 430.55673218 C293.59600538 431.15506701 293.39303004 431.75340185 293.18390393 432.36986804 C292.54937119 434.2558363 291.93093279 436.14719836 291.31377983 438.03892517 C290.43185616 440.67850765 289.45970397 443.14536552 288.34788036 445.70957756 C282.3886011 459.93072761 283.12464932 474.69154556 283.31289887 489.81654453 C283.35573863 493.80806664 283.36283151 497.7996841 283.37445068 501.79139709 C283.39920769 508.68795032 283.4457511 515.58407022 283.50737762 522.48038864 C283.59630408 532.45528086 283.64930683 542.43012137 283.69350359 552.40530045 C283.76602891 568.59973978 283.86409231 584.79391411 283.97990417 600.98809814 C284.09217026 616.69801224 284.19732093 632.4079349 284.28947449 648.11798096 C284.2980157 649.57261633 284.2980157 649.57261633 284.30672947 651.05663829 C284.36859891 661.64042776 284.42763984 672.2242302 284.48333359 682.80805397 C284.48823016 683.73751918 284.49312672 684.66698438 284.49817167 685.6246152 C284.51770435 689.33944979 284.53720733 693.05428449 284.55634865 696.76912113 C284.61244839 707.6426275 284.67738072 718.51599616 284.75823894 729.38934804 C284.80866779 736.19793206 284.85264918 743.0065359 284.89152488 749.81519566 C284.91429935 753.7448958 284.94057999 757.6744982 284.97571754 761.60410881 C285.00784688 765.19833997 285.03081703 768.79250701 285.04643783 772.38684674 C285.0572714 774.30775717 285.07820117 776.22860239 285.09944844 778.14942586 C285.10264993 779.28535983 285.10585143 780.4212938 285.10914993 781.59165001 C285.11619957 782.5737222 285.12324921 783.5557944 285.13051248 784.56762636 C284.88390344 787.2666096 284.36268523 788.87589398 282.89543152 791.14044189 C280.32741694 792.42444918 278.50227519 792.26921098 275.62591553 792.27415466 C274.50841919 792.27841965 273.39092285 792.28268463 272.23956299 792.28707886 C271.00781845 792.28662567 269.77607391 792.28617249 268.50700378 792.28570557 C267.21430573 792.28906418 265.92160767 792.29242279 264.58973694 792.29588318 C261.0381096 792.30473309 257.48650635 792.3070617 253.93486905 792.30769897 C250.9725376 792.30864732 248.01021178 792.31232476 245.0478825 792.31587106 C238.06045779 792.32401931 231.07304598 792.32645495 224.08561707 792.32574463 C216.87153097 792.32514366 209.6575196 792.3356985 202.44345242 792.35148829 C196.25487781 792.36455214 190.06632767 792.36992902 183.87773937 792.36928922 C180.17931585 792.3690339 176.48095872 792.37190371 172.7825489 792.38246727 C168.65939832 792.39392209 164.53641582 792.38940854 160.41325378 792.38336182 C159.18353348 792.38898132 157.95381317 792.39460083 156.68682861 792.40039062 C155.56651245 792.39619614 154.44619629 792.39200165 153.29193115 792.38768005 C152.31650643 792.38822482 151.34108171 792.38876959 150.33609867 792.38933086 C147.89543152 792.14044189 147.89543152 792.14044189 144.89543152 790.14044189 C144.54584938 787.86550206 144.54584938 787.86550206 144.58215427 784.95785809 C144.58851511 783.85242427 144.59487594 782.74699045 144.60142952 781.60805863 C144.62381044 780.38315352 144.64619136 779.15824842 144.66925049 777.89622498 C144.68079853 776.60223402 144.69234657 775.30824306 144.70424455 773.97504026 C144.7297363 771.12359332 144.76479179 768.27247301 144.80698013 765.42122459 C144.87552599 760.77925796 144.92338119 756.13721234 144.96826172 751.4949646 C145.0264113 745.61903269 145.08968422 739.74319487 145.15875196 733.86738113 C145.29463941 722.24880784 145.38656723 710.63023122 145.46218872 699.01112366 C145.47431695 697.17644995 145.48645235 695.34177628 145.49859482 693.50710267 C145.52307024 689.78981077 145.54731742 686.07251746 145.5714463 682.3552233 C145.63377077 672.78043319 145.69839248 663.20566238 145.76774597 653.63092041 C145.77468868 652.67012132 145.7816314 651.70932223 145.7887845 650.71940801 C145.90210286 635.30825182 146.0781412 619.89839563 146.27608091 604.48812302 C146.47859809 588.58301706 146.60047293 572.67857711 146.65519041 556.77227575 C146.68815042 547.87590706 146.75568701 538.98293472 146.91833687 530.08791161 C147.70347317 485.97298856 143.63298675 449.60282833 127.33138084 408.39152718 C124.30422292 400.71878757 121.72666389 392.92462264 119.21426141 385.07156193 C118.11255425 381.6496036 116.9668265 378.24258799 115.82270813 374.83462524 C115.38316075 373.52066572 114.94377027 372.20665369 114.50453568 370.89258957 C114.17456455 369.90599389 114.17456455 369.90599389 113.83792734 368.89946699 C112.61662486 365.24619491 111.39762363 361.59215484 110.17835999 357.9382019 C107.12760854 348.79664988 104.07419254 339.65598891 101.02043152 330.51544189 C96.95855272 318.35724926 92.8979065 306.19864678 88.84074402 294.03887939 C88.594957 293.30230763 88.34916998 292.56573587 88.09593487 291.80684376 C82.35005122 274.58634262 76.631186 257.35851085 71.04386902 240.08575439 C64.76604235 220.68006082 58.31949611 201.33138245 51.86418152 181.98419189 C51.45774044 180.76593177 51.45774044 180.76593177 51.04308844 179.52306032 C46.82983029 166.89464335 42.61296633 154.26743111 38.39543152 141.64044189 C33.90391454 128.19317022 29.413552 114.74551474 24.92668152 101.29669189 C24.65765518 100.49040218 24.38862885 99.68411247 24.1114502 98.85338974 C17.00190309 77.5441809 9.92639861 56.22511192 3.01371765 34.85101318 C2.76678917 34.08771446 2.51986069 33.32441574 2.26544952 32.53798676 C1.79912699 31.0942316 1.33402363 29.65008192 0.87032318 28.20548248 C-0.23622372 24.76851306 -1.37272892 21.34622636 -2.56526184 17.93804932 C-2.80007011 17.2597683 -3.03487839 16.58148727 -3.27680206 15.88265228 C-3.91460674 14.04821017 -4.56282422 12.21739755 -5.21186829 10.38690186 C-6.10903417 7.12420163 -6.35497544 4.50529508 -6.10456848 1.14044189 C-4.41760609 -0.54652049 -2.31277906 0.00711234 0 0 Z " fill="#6D28D9" transform="translate(1540.1045684814453,869.8595581054688)"/>
<path d="M0 0 C0.69470154 0.00411064 1.38940308 0.00822127 2.10515618 0.01245648 C2.84408479 0.0089504 3.58301339 0.00544433 4.34433377 0.00183201 C6.84604405 -0.00754846 9.34752492 -0.00254173 11.84924531 0.00229985 C13.65066036 -0.00143308 15.45207378 -0.00603316 17.25348461 -0.0114308 C22.22374962 -0.02372053 27.19394763 -0.02339334 32.16422439 -0.02104205 C37.51674631 -0.02063538 42.86924631 -0.0316586 48.22175813 -0.04115719 C58.71583863 -0.05780082 69.20989666 -0.06326825 79.70398925 -0.06438194 C88.23032283 -0.06533082 96.75664897 -0.06943307 105.2829802 -0.07578319 C129.43340494 -0.09340473 153.58381187 -0.10262063 177.73424308 -0.10112225 C179.03737845 -0.10104233 180.34051381 -0.10096242 181.68313813 -0.10088009 C182.98785654 -0.10079833 184.29257495 -0.10071656 185.63683029 -0.10063232 C206.78927276 -0.09981915 227.94164407 -0.11896238 249.09406595 -0.14715682 C270.79039176 -0.17584906 292.48668282 -0.18969914 314.1830281 -0.18796927 C326.37306089 -0.1873041 338.56301908 -0.19285167 350.75303483 -0.21432537 C361.13094386 -0.23248908 371.50874447 -0.23692423 381.88666247 -0.22330652 C387.18534503 -0.2167525 392.48381932 -0.21674699 397.78248239 -0.23401302 C402.62838094 -0.24964179 407.47390435 -0.24698538 412.31979318 -0.22944476 C414.07753346 -0.22635222 415.83530104 -0.23009111 417.59300916 -0.24116491 C419.97381619 -0.25517676 422.35328728 -0.24478759 424.73404717 -0.22805256 C425.42406638 -0.23798892 426.11408559 -0.24792528 426.82501447 -0.25816274 C430.15234889 -0.2083658 431.8053481 0.08423376 434.47129393 2.14388174 C436.45953236 4.82894161 436.54373067 6.33649828 436.53991914 9.65912968 C436.54830812 10.75268772 436.55669709 11.84624577 436.56534028 12.97294194 C436.55410127 14.16787266 436.54286225 15.36280339 436.53128266 16.59394413 C436.53507936 17.85606724 436.53887605 19.11819035 436.54278779 20.41855961 C436.55247618 23.87735176 436.5371847 27.33562721 436.5168817 30.79435688 C436.49930413 34.41463967 436.50283592 38.03490666 436.50360322 41.65522343 C436.50173054 47.73481975 436.48437154 53.81421634 436.45706391 59.89374882 C436.4256134 66.92156047 436.41506775 73.94915339 436.41653502 80.97703034 C436.41788633 88.46020245 436.40400135 95.94329028 436.38564181 103.42643696 C436.38138045 105.58215998 436.37995963 107.73786939 436.37916398 109.89359623 C436.37678044 113.91100458 436.35735116 117.92815453 436.33597016 121.94550663 C436.33687654 123.14043736 436.33778291 124.33536808 436.33871675 125.56650883 C436.33018678 126.66006687 436.32165681 127.75362492 436.31286836 128.88032109 C436.30951667 129.83010334 436.30616498 130.7798856 436.30271173 131.75844914 C436.0309373 134.41131792 435.48093999 136.03457717 434.04544282 138.26972538 C431.31599797 139.6344478 429.16695266 139.39253132 426.11035371 139.3899799 C424.84548127 139.39135456 423.58060884 139.39272923 422.27740693 139.39414555 C420.86789132 139.39060617 419.45837594 139.38697135 418.04886079 139.38325077 C416.57075208 139.38296883 415.09264324 139.38312678 413.61453462 139.38369328 C409.59410792 139.38398096 405.57371087 139.37808889 401.55329108 139.37111932 C397.35456038 139.36488098 393.15582905 139.3642816 388.95709443 139.36309391 C381.0027282 139.35998202 373.04837567 139.35177053 365.09401548 139.34174442 C356.0397297 139.33057889 346.98544329 139.32507172 337.93115234 139.32004899 C319.30257473 139.30958781 300.67400987 139.2919911 282.04544282 139.26972538 C282.05741574 140.39663823 282.06938867 141.52355108 282.08172441 142.68461281 C283.00241024 230.54266354 283.192105 318.40247422 283.28289247 488.45726162 C283.28312117 489.92426973 283.2833505 491.39127783 283.28358045 492.85828594 C283.28369413 493.58529173 283.28380781 494.31229753 283.28392494 495.0613338 C283.28438684 498.00399499 283.28485409 500.94665617 283.28532576 503.88931736 C283.28556008 505.36298254 283.28578976 506.83664772 283.2860148 508.3103129 C283.2897225 532.31048059 283.30588254 556.31061905 283.32886756 580.3107755 C283.3534218 605.99733371 283.36717913 631.68387508 283.36837864 657.37044537 C283.36855002 660.17796257 283.36876541 662.98547975 283.36901307 665.79299694 C283.36906884 666.48373089 283.36912461 667.17446484 283.36918207 667.88613013 C283.37032868 678.95904096 283.38130489 690.03192073 283.39590013 701.10482107 C283.41019894 712.13898938 283.41328242 723.17312608 283.40546015 734.20730334 C283.40153826 740.17295257 283.40256209 746.1384967 283.4165175 752.10413319 C283.42914618 757.55079605 283.42815812 762.9972735 283.41592678 768.4439357 C283.41395199 770.42034951 283.41712922 772.39677601 283.42577115 774.37317192 C283.43671225 777.04200743 283.42948662 779.71016978 283.41737962 782.37898499 C283.42877241 783.54931262 283.42877241 783.54931262 283.44039536 784.74328324 C283.41918898 786.88318682 283.41918898 786.88318682 283.04544282 790.26972538 C279.70321466 792.49787749 278.63832053 792.5220653 274.73832917 792.53042179 C273.63773164 792.5375066 272.5371341 792.54459141 271.40318513 792.55189091 C270.19530839 792.54941349 268.98743165 792.54693608 267.74295259 792.54438359 C266.47122193 792.54949452 265.19949128 792.55460545 263.88922334 792.55987126 C260.39954511 792.57327319 256.90997511 792.57383861 253.42027617 792.57130796 C250.50768907 792.57023903 247.59512394 792.57511962 244.68254155 792.57991338 C237.8115486 792.59101274 230.94061032 792.5914436 224.06961274 792.58539921 C216.97987963 792.57935832 209.89034491 792.59167225 202.80064565 792.61296928 C196.71478519 792.63057903 190.62898792 792.63658763 184.54310292 792.63333154 C180.90779148 792.63151749 177.27262155 792.63416681 173.63733315 792.64804608 C169.58386671 792.66294251 165.53080469 792.65365985 161.47732759 792.64203984 C160.27147508 792.64968357 159.06562257 792.65732731 157.82322907 792.66520268 C156.71981172 792.65818836 155.61639436 792.65117405 154.47954011 792.64394718 C153.52108469 792.64411493 152.56262927 792.64428267 151.57512975 792.64445549 C148.51822719 792.19162735 147.28599732 791.37559269 145.04544282 789.26972538 C144.54675816 787.18576937 144.54675816 787.18576937 144.54864883 784.72931087 C144.53965966 783.79084781 144.53067049 782.85238475 144.52140892 781.88548341 C144.537171 780.33306817 144.537171 780.33306817 144.5532515 778.749291 C144.54863613 777.64838657 144.54402075 776.54748215 144.53926551 775.41321698 C144.52859089 771.68605691 144.54669438 767.95957381 144.56442475 764.23244816 C144.56268213 761.54872075 144.55935228 758.86503831 144.55406809 756.18131995 C144.54575897 750.32684999 144.55237211 744.47254232 144.56862092 738.61809117 C144.59271545 729.91270824 144.59396841 721.20742811 144.59045297 712.50201793 C144.5851914 697.85970938 144.59858555 683.21747292 144.62252259 668.57518536 C144.64617097 654.07238302 144.66158238 639.56961069 144.66593385 625.06678921 C144.66620881 624.16587002 144.66648376 623.26495083 144.66676706 622.33673106 C144.66812034 617.76162877 144.66932589 613.18652646 144.67047456 608.61142411 C144.67888166 576.18541099 144.70584628 543.7594371 144.74368501 511.33344609 C144.78040802 479.82726332 144.80874968 448.32109127 144.82571626 416.8148914 C144.82650541 415.35877875 144.82650541 415.35877875 144.82731051 413.87324969 C144.83258448 404.12487868 144.83768776 394.37650758 144.84266595 384.62813642 C144.85281147 364.76864983 144.86409648 344.90916395 144.87607026 325.04967839 C144.876894 323.67994449 144.876894 323.67994449 144.87773438 322.2825392 C144.91455219 261.27825159 144.97793475 200.2739858 145.04544282 139.26972538 C144.28122388 139.27249076 143.51700494 139.27525614 142.72962785 139.27810532 C124.14348455 139.34432814 105.55736476 139.39398792 86.9711287 139.4251619 C77.98299893 139.4406377 68.99494786 139.46174081 60.0068686 139.49604374 C52.17381425 139.52592431 44.34081688 139.5452952 36.50770712 139.55199087 C32.35925151 139.55590541 28.21095896 139.56511986 24.06255555 139.58691555 C20.15887243 139.60725955 16.25541972 139.61356345 12.35168862 139.60904843 C10.91818005 139.60987457 9.48466387 139.61585278 8.05120111 139.62734181 C6.09521631 139.64225138 4.13910822 139.63689507 2.1830771 139.63048893 C0.540442 139.634637 0.540442 139.634637 -1.13537765 139.63886887 C-4.33867082 139.21942953 -5.72306737 138.58917969 -7.95455718 136.26972538 C-8.34134726 133.2962517 -8.47058293 130.6935942 -8.42452788 127.71967655 C-8.42671828 126.84393482 -8.42890868 125.96819309 -8.43116546 125.06591374 C-8.4334888 122.14779779 -8.40708456 119.23067755 -8.38033843 116.31269413 C-8.37540429 114.25567527 -8.37211209 112.19865189 -8.37037444 110.14162785 C-8.36074283 104.68648342 -8.32629944 99.23174827 -8.28750396 93.77674443 C-8.26082317 89.44513837 -8.25180828 85.11358991 -8.24378943 80.78191525 C-8.20602523 60.77696049 -8.05779786 40.77082401 -7.61479545 20.77033001 C-7.57858153 19.10916731 -7.5453294 17.44793712 -7.51518989 15.7866531 C-7.47262616 13.52844483 -7.41727455 11.27094661 -7.35763335 9.01313359 C-7.32820144 7.75104573 -7.29876952 6.48895787 -7.26844573 5.18862492 C-6.72790783 0.16207707 -4.58352181 0.04016475 0 0 Z " fill="#6D28D9" transform="translate(710.9545571804047,869.730274617672)"/>
<path d="M0 0 C1.10341736 -0.00701431 2.20683472 -0.01402863 3.34368896 -0.02125549 C4.54954147 -0.01361176 5.75539398 -0.00596802 6.99778748 0.00190735 C8.90801193 -0.00356865 8.90801193 -0.00356865 10.85682678 -0.00915527 C14.34645041 -0.01855628 17.83579318 -0.00914619 21.32539487 0.00417686 C24.97684853 0.01549596 28.62828847 0.01138355 32.27975464 0.00942993 C38.41058439 0.00854721 44.54130351 0.01962361 50.67210388 0.03804016 C57.76241396 0.05921692 64.85256208 0.06271554 71.94289738 0.0564782 C78.76234742 0.0507861 85.58174037 0.05642776 92.40118217 0.06765175 C95.30423474 0.07229883 98.20725241 0.07317113 101.11030769 0.0710659 C105.16142915 0.06883474 109.21232317 0.08328276 113.26341248 0.0995636 C114.47128922 0.09708618 115.67916595 0.09460876 116.92364502 0.09205627 C118.02424255 0.09914108 119.12484009 0.10622589 120.25878906 0.11352539 C121.69590665 0.1166047 121.69590665 0.1166047 123.16205692 0.11974621 C125.56590271 0.3742218 125.56590271 0.3742218 128.56590271 2.3742218 C128.86422226 5.3387192 128.96398377 8.09478645 128.93783951 11.06220818 C128.94160064 11.97737713 128.94536177 12.89254608 128.94923687 13.83544743 C128.95826179 16.93762868 128.94568064 20.03936026 128.93339539 23.14152527 C128.93541776 25.37519898 128.93875478 27.60887182 128.94330096 29.84254181 C128.95199466 36.01113727 128.94184003 42.17958349 128.92875862 48.34816599 C128.91901438 54.31273402 128.92330889 60.27728688 128.92726967 66.24185785 C128.93487988 78.47052521 128.92830632 90.69914751 128.91365814 102.92780685 C128.89909659 115.10087815 128.89036999 127.27392974 128.88947296 139.44701004 C128.88938132 140.58506934 128.88938132 140.58506934 128.88928783 141.74611974 C128.88905825 144.82727284 128.8888711 147.90842593 128.88873969 150.98957903 C128.88752567 179.14222027 128.87180624 207.29483428 128.84715271 235.44746399 C128.82406404 261.82083852 128.80971499 288.1941966 128.80613708 314.56758118 C128.80602557 315.37346544 128.80591405 316.17934971 128.80579916 317.00965471 C128.80535019 320.25967249 128.80490817 323.50969027 128.80446673 326.75970805 C128.80424632 328.38062058 128.80402503 330.00153311 128.80380285 331.62244564 C128.80358148 333.24023342 128.80336271 334.85802119 128.80314655 336.47580897 C128.79958227 362.61136837 128.78810263 388.74692481 128.77534021 414.88248112 C128.77166883 422.46743335 128.76839134 430.05238538 128.76609135 437.63733816 C128.75997795 457.70182114 128.74957532 477.76629276 128.72703552 497.83076477 C128.72591206 498.84139895 128.72591206 498.84139895 128.7247659 499.87244998 C128.66761255 550.37732567 128.27324781 600.87435812 127.56590271 651.3742218 C128.78457189 651.37145642 130.00324106 651.36869104 131.25883961 651.36584187 C160.16917641 651.30090807 189.07951195 651.25142019 217.98990478 651.22102581 C221.54608065 651.21727357 225.10225637 651.21339061 228.65843201 651.20942688 C229.36642078 651.20863995 230.07440955 651.20785302 230.80385252 651.20704224 C242.27670091 651.19397823 253.74950433 651.17031894 265.22232602 651.14276341 C276.98915682 651.11473685 288.75596403 651.09805138 300.52282685 651.09195632 C307.13435575 651.08803668 313.74578256 651.07878981 320.35727882 651.05703163 C326.57470326 651.03673526 332.79198314 651.03037411 339.00943756 651.03489876 C341.29640423 651.03407048 343.58337553 651.02806429 345.87031364 651.01660538 C348.98295678 651.00176856 352.0950478 651.005236 355.20770264 651.01345825 C356.12111886 651.00471973 357.03453508 650.9959812 357.97563058 650.98697788 C359.22293743 650.99593759 359.22293743 650.99593759 360.49544239 651.00507832 C361.21425298 651.00393915 361.93306356 651.00279999 362.67365628 651.00162631 C365.14384746 651.48802284 366.03661289 652.40958442 367.56590271 654.3742218 C367.94063282 656.82771301 367.94063282 656.82771301 367.94012451 659.80195618 C367.94713882 660.92924133 367.95415314 662.05652649 367.96138 663.2179718 C367.95373627 664.4554718 367.94609253 665.6929718 367.93821716 666.9679718 C367.94186783 668.27056946 367.94551849 669.57316711 367.94927979 670.91523743 C367.95869362 674.4896257 367.94925942 678.06374038 367.93594766 681.6381073 C367.92464049 685.37631782 367.9287401 689.11451472 367.93069458 692.85273743 C367.93157779 699.13077775 367.92049159 705.40871014 367.90208435 711.6867218 C367.88091627 718.94798915 367.87740667 726.20909837 367.88364631 733.47039032 C367.88933847 740.45162039 367.88369607 747.43279469 367.87247276 754.41401672 C367.8678248 757.38684621 367.86695378 760.35964162 367.86905861 763.33247375 C367.87128974 767.48189093 367.85684163 771.63108602 367.84056091 775.7804718 C367.84427704 777.6367218 367.84427704 777.6367218 367.84806824 779.5304718 C367.84098343 780.65775696 367.83389862 781.78504211 367.82659912 782.94648743 C367.82454625 783.92798767 367.82249338 784.90948792 367.8203783 785.92073059 C367.56590271 788.3742218 367.56590271 788.3742218 365.56590271 791.3742218 C362.28725211 792.46710534 359.89428714 792.49956174 356.44232941 792.50006294 C354.50808538 792.50397456 354.50808538 792.50397456 352.53476572 792.50796521 C351.09539686 792.50580294 349.65602813 792.50354627 348.21665955 792.50120544 C346.69415674 792.50235693 345.17165422 792.50394463 343.64915228 792.50593269 C339.45453393 792.51012229 335.25993822 792.50803697 331.06531978 792.50494647 C326.54584392 792.50269111 322.02637205 792.50617267 317.50689697 792.50892639 C308.64893726 792.5133816 299.790986 792.51240872 290.93302596 792.50951375 C283.73632527 792.50725875 276.53962696 792.50694762 269.34292603 792.50803757 C268.32009037 792.5081908 267.29725471 792.50834403 266.24342403 792.50850191 C264.16579282 792.50882162 262.08816162 792.50914584 260.01053041 792.5094745 C240.51170018 792.51232856 221.01287464 792.50904342 201.51404518 792.50367413 C184.76977268 792.49920616 168.02550711 792.49998212 151.28123474 792.5045929 C131.85392788 792.50993995 112.42662514 792.51205388 92.99931765 792.50898063 C90.92917156 792.50866207 88.85902548 792.5083477 86.78887939 792.50803757 C85.26090501 792.50780615 85.26090501 792.50780615 83.70206246 792.50757007 C76.51093818 792.50670531 69.3198165 792.50816691 62.12869263 792.51051712 C53.36952985 792.51331677 44.61037604 792.51257334 35.85121429 792.50723638 C31.3790283 792.50460161 26.90685729 792.50359053 22.4346714 792.50688553 C18.345189 792.50985307 14.25573553 792.50824795 10.16625577 792.50290798 C8.68245291 792.50178576 7.19864764 792.50237068 5.71484631 792.50478376 C3.7063912 792.50780094 1.69792929 792.50412464 -0.31052399 792.50006294 C-1.42869302 792.49990059 -2.54686206 792.49973824 -3.698915 792.49957097 C-6.43409729 792.3742218 -6.43409729 792.3742218 -9.43409729 791.3742218 C-10.70585945 788.83069747 -10.55945411 787.06602539 -10.55993843 784.21714592 C-10.56254594 783.11519727 -10.56515345 782.01324861 -10.56783998 780.87790757 C-10.56449425 779.04314199 -10.56449425 779.04314199 -10.56108093 777.17131042 C-10.56264305 775.87607537 -10.56420516 774.58084031 -10.56581461 773.24635571 C-10.57002356 769.62234185 -10.56791773 765.99835413 -10.56483144 762.37434013 C-10.56255351 758.44104819 -10.5659993 754.50776066 -10.56869888 750.57446957 C-10.57311728 742.7562861 -10.57201784 734.93811202 -10.56920135 727.11992818 C-10.56700477 720.6115946 -10.56708977 714.10326437 -10.56866837 707.59493065 C-10.56889511 706.65665782 -10.56912185 705.718385 -10.56935547 704.75167966 C-10.56982656 702.837942 -10.57030144 700.92420433 -10.57078005 699.01046667 C-10.57607667 676.32470097 -10.57024873 653.63894197 -10.56235074 630.95317761 C-10.55975113 623.4358249 -10.55758885 615.91847216 -10.55569458 608.40111923 C-10.54047164 548.37738397 -10.50358797 488.35367863 -10.4539901 428.32996248 C-10.44022172 411.6360535 -10.42814367 394.94214415 -10.41747926 378.2482329 C-10.38363815 325.40798507 -10.33554444 272.56780296 -10.24698067 219.72761536 C-10.23947769 215.22840886 -10.23200987 210.72920231 -10.2245636 206.22999573 C-10.22179677 204.56755914 -10.22179677 204.56755914 -10.21897404 202.87153798 C-10.19133646 186.09987207 -10.17464192 169.32821824 -10.16365051 152.55653381 C-10.15112796 133.47133833 -10.12481436 114.38622117 -10.07968485 95.30107361 C-10.0547708 84.59315899 -10.04092469 73.88536202 -10.04263198 63.17741784 C-10.0426623 56.02874755 -10.02828504 48.8802022 -10.00192047 41.7315807 C-9.98727278 37.64905272 -9.97910427 33.56678157 -9.98829675 29.48423171 C-9.99651764 25.77511619 -9.98661948 22.06652441 -9.96176116 18.35748712 C-9.95333107 16.38210412 -9.96465929 14.40666765 -9.97659552 12.43130273 C-9.96514797 11.2699642 -9.95370042 10.10862567 -9.94190598 8.91209507 C-9.94038709 7.90736922 -9.93886821 6.90264337 -9.9373033 5.86747128 C-9.43409729 3.3742218 -9.43409729 3.3742218 -7.56046468 1.55152535 C-4.87755717 0.06608283 -3.06141447 -0.00053579 0 0 Z " fill="#6D28D9" transform="translate(1234.434097290039,869.6257781982422)"/>
<path d="M0 0 C1.10908218 -0.00708481 2.21816437 -0.01416962 3.3608551 -0.02146912 C4.5832489 -0.0189917 5.8056427 -0.01651428 7.06507874 -0.01396179 C8.98949547 -0.02162819 8.98949547 -0.02162819 10.95278931 -0.02944946 C14.47758211 -0.04286801 18.00226788 -0.04341496 21.52708125 -0.04088616 C24.46705098 -0.03981833 27.40699888 -0.04469502 30.34696394 -0.04949158 C37.28166456 -0.06059675 44.21631102 -0.06101859 51.15101624 -0.05497742 C58.3106162 -0.04893632 65.47001972 -0.06124966 72.62958616 -0.08254749 C78.77146121 -0.10014772 84.91327363 -0.10616733 91.05517298 -0.10290974 C94.72567842 -0.10109412 98.39604375 -0.10376054 102.06652641 -0.11762428 C106.15862206 -0.13250135 110.25031639 -0.1232464 114.34242249 -0.11161804 C115.56279205 -0.11926178 116.78316162 -0.12690552 118.04051208 -0.13478088 C119.15241409 -0.12776657 120.2643161 -0.12075226 121.40991211 -0.11352539 C122.86198767 -0.113777 122.86198767 -0.113777 124.34339809 -0.1140337 C127.30797063 0.34406601 127.99393855 0.87285361 129.76844788 3.26069641 C130.14745539 5.91276252 130.14745539 5.91276252 130.15320873 9.18519402 C130.16266518 10.43263083 130.17212162 11.68006764 130.18186462 12.96530557 C130.17723206 14.35957697 130.17232548 15.75384748 130.16717529 17.14811707 C130.17261506 18.62667218 130.1793673 20.10522296 130.18731987 21.5837667 C130.20545398 25.67221572 130.20477573 29.76048394 130.20119168 33.84896377 C130.20056127 38.28095793 130.21718369 42.71289153 130.2316618 47.14485741 C130.25459797 54.90724246 130.26631634 62.66958245 130.27074814 70.43199921 C130.27732872 81.92844211 130.3008307 93.42480578 130.32777312 104.92121673 C130.37775711 126.52021394 130.4075454 148.11921031 130.43114018 169.71825027 C130.44940529 186.32524325 130.47320673 202.93222007 130.5009613 219.53919983 C130.50491258 221.91639085 130.5088626 224.29358188 130.51281136 226.67077291 C130.5187587 230.24742953 130.52470947 233.82408614 130.53067334 237.40074273 C130.60387649 281.40654447 130.65895493 325.41235211 130.70493345 369.41818985 C130.74349617 406.26611822 130.79745936 443.11398569 130.86708069 479.96186829 C130.94047019 518.83453492 131.00093151 557.70718722 131.04005527 596.57990456 C131.04418452 600.64442066 131.04835035 604.70893672 131.05253601 608.77345276 C131.05406372 610.27227504 131.05406372 610.27227504 131.0556223 611.80137657 C131.07124405 626.88140487 131.0971317 641.96139328 131.12815857 657.04139709 C131.16322017 674.09598841 131.18442492 691.15053048 131.18657565 708.20515919 C131.18817547 717.69380374 131.20079133 727.18228235 131.22927066 736.67088517 C131.24707979 742.97007611 131.25051771 749.26916546 131.24189762 755.56837551 C131.23739515 759.15576971 131.23935005 762.74285233 131.25873983 766.33020377 C131.27939294 770.1789639 131.26947598 774.02728207 131.25619507 777.87608337 C131.2671641 779.00030945 131.27813313 780.12453552 131.28943455 781.28282905 C131.28085388 782.30067048 131.2722732 783.31851192 131.2634325 784.36719704 C131.26440931 785.24662865 131.26538612 786.12606027 131.26639253 787.03214133 C130.76844788 789.26069641 130.76844788 789.26069641 128.89544219 791.04311949 C126.21112364 792.57973118 124.42720083 792.63545906 121.34107971 792.63491821 C120.23910751 792.64193253 119.13713531 792.64894684 118.00177002 792.65617371 C116.79748856 792.64852997 115.59320709 792.64088623 114.35243225 792.63301086 C113.08055557 792.63666153 111.80867889 792.64031219 110.4982605 792.64407349 C107.01270171 792.65347505 103.5274241 792.64406343 100.04188728 792.63074136 C96.39357082 792.61942043 92.74526807 792.62353486 89.09693909 792.62548828 C82.97030548 792.62637106 76.84378256 792.6152944 70.71717834 792.59687805 C63.63484063 792.57571064 56.55266505 792.57220064 49.4703021 792.57844001 C42.65619485 792.58413563 35.84214468 792.57848568 29.02804565 792.56726646 C26.12861068 792.56262309 23.22921063 792.56174549 20.32977295 792.56385231 C16.28125012 792.56608647 12.23295421 792.55162314 8.1844635 792.53535461 C6.37804131 792.53907074 6.37804131 792.53907074 4.53512573 792.54286194 C3.43315353 792.53577713 2.33118134 792.52869232 1.19581604 792.52139282 C0.23865944 792.51933995 -0.71849716 792.51728708 -1.70465851 792.515172 C-4.35570139 792.24819372 -5.90869669 791.50164388 -8.23155212 790.26069641 C-8.24875425 725.09527653 -8.26464466 659.92985637 -8.27389526 594.76443481 C-8.27410235 593.309399 -8.27410235 593.309399 -8.27431362 591.82496853 C-8.27730903 570.72551205 -8.28007885 549.62605554 -8.28261745 528.526599 C-8.2838644 518.17404878 -8.28516101 507.82149857 -8.28648376 497.46894836 C-8.28661452 496.43894208 -8.28674528 495.4089358 -8.28688 494.3477172 C-8.29111404 461.17802509 -8.29860443 428.00833472 -8.30784934 394.83864366 C-8.31736065 360.64972873 -8.32345554 326.46081476 -8.32546711 292.27189854 C-8.32575512 287.40306045 -8.32608075 282.53422237 -8.32642937 277.66538429 C-8.32649679 276.7074639 -8.32656421 275.74954351 -8.32663368 274.76259523 C-8.32765583 261.43138561 -8.33098708 248.10017835 -8.33618976 234.76896973 C-8.39102577 93.95265267 -8.39102577 93.95265267 -7.87774841 40.73530819 C-7.850798 37.83853376 -7.82716673 34.9417493 -7.80438244 32.0449394 C-7.76941257 27.70594886 -7.72432572 23.36719831 -7.66970201 19.02841149 C-7.65161508 17.49131596 -7.6366922 15.95417934 -7.62521891 14.41702022 C-7.6091052 12.37148194 -7.57942751 10.32606339 -7.54885006 8.28069019 C-7.53582094 7.15520734 -7.52279182 6.02972448 -7.50936788 4.87013608 C-6.9778423 -0.12232347 -4.3605022 0.00925058 0 0 Z " fill="#6D28D9" transform="translate(517.2315521240234,869.7393035888672)"/>
</svg>
