<svg
  width="51"
  height="28"
  viewBox="0 0 51 28"
  fill="none"
  xmlns="http://www.w3.org/2000/svg"
>
  <g clip-path="url(#clip0_1609_34911)">
    <path d="M12.9209 14L8.91821 27.02C8.73563 27.608 8.20194 28 7.58399 28H0L3.5111 16.59L8.59518 0L12.9349 14H12.9209Z" fill="#276DD6" />
    <path d="M30.0841 14L26.573 25.41L22.2754 11.368L25.7725 0L30.0841 14Z" fill="#276DD6" />
    <path d="M25.8282 28H18.2442C17.6263 28 17.0785 27.594 16.91 27.006L8.5957 0H16.1656C16.7836 0 17.3313 0.406 17.5139 0.994L25.8282 28Z" fill="#1FBA8B" />
    <path d="M46.0525 0C48.3277 0 50.1675 1.834 50.1675 4.102C50.1675 6.37 48.3277 8.204 46.0525 8.204C43.7773 8.204 41.9375 6.37 41.9375 4.102C41.9375 1.834 43.7773 0 46.0525 0Z" fill="#F1D42E" />
    <path d="M43.002 28H35.4321C34.8141 28 34.2664 27.594 34.0838 27.006L25.7695 0H33.3535C33.9715 0 34.5192 0.406 34.6877 0.994L43.002 28Z" fill="#1FBA8B" />
    <path d="M39.4648 11.5498L43.8186 25.4098L47.5263 13.3698C47.8072 12.4738 47.1331 11.5638 46.1781 11.5638H39.4648V11.5498Z" fill="#276DD6" />
  </g>
  <defs>
    <clipPath id="clip0_1609_34911">
      <rect width="50.1667" height="28" fill="white" />
    </clipPath>
  </defs>
</svg>
