<svg width="104" height="51" viewBox="0 0 104 51" fill="none" xmlns="http://www.w3.org/2000/svg">
<path d="M37.8174 0.426076C37.8684 0.425819 37.8684 0.425819 37.9204 0.425557C38.0325 0.425073 38.1446 0.424973 38.2567 0.424918C38.3348 0.424754 38.413 0.424583 38.4911 0.424404C38.6549 0.424098 38.8186 0.424004 38.9824 0.424034C39.1919 0.424039 39.4013 0.423343 39.6107 0.422465C39.7721 0.421896 39.9335 0.421794 40.0949 0.421821C40.1721 0.421761 40.2493 0.421536 40.3265 0.421141C40.4347 0.420639 40.5428 0.420789 40.651 0.421096C40.6985 0.420666 40.6985 0.420666 40.7469 0.420227C40.9832 0.421922 41.1808 0.460022 41.3596 0.570586C43.3678 2.10501 41.5629 4.69466 41.5629 6.75748C48.1327 6.75748 54.7025 6.75748 61.4714 6.75748C61.4714 4.82203 61.4714 2.88658 61.4714 0.892484C61.6331 0.559421 61.6331 0.559421 61.8831 0.46817C62.0471 0.422637 62.203 0.42273 62.3779 0.423586C62.4119 0.423452 62.4459 0.423318 62.481 0.42318C62.5929 0.422844 62.7048 0.423065 62.8167 0.423324C62.8948 0.423273 62.9729 0.423198 63.051 0.423102C63.2145 0.42299 63.378 0.423153 63.5415 0.423511C63.7507 0.423947 63.9599 0.423696 64.1691 0.423238C64.3303 0.422961 64.4915 0.42305 64.6528 0.423248C64.7299 0.423298 64.807 0.423236 64.8841 0.423058C64.992 0.422863 65.0999 0.423161 65.2078 0.423586C65.2395 0.423431 65.2711 0.423276 65.3038 0.423117C65.551 0.424914 65.7255 0.457073 65.9193 0.568953C66.1163 0.730475 66.1301 0.86251 66.1269 1.06534C66.127 1.09273 66.127 1.12011 66.127 1.14832C66.1269 1.23856 66.126 1.32878 66.1252 1.41902C66.125 1.48169 66.1248 1.54436 66.1247 1.60703C66.1243 1.77178 66.1232 1.93653 66.1219 2.10128C66.1208 2.26948 66.1203 2.43767 66.1197 2.60587C66.1185 2.93574 66.1167 3.26561 66.1143 3.59548C66.1453 3.59526 66.1763 3.59503 66.2082 3.5948C66.5011 3.59275 66.7939 3.5912 67.0868 3.5902C67.2374 3.58967 67.3879 3.58895 67.5385 3.58779C67.6839 3.58668 67.8294 3.58607 67.9749 3.58581C68.0302 3.58562 68.0855 3.58525 68.1408 3.5847C68.7483 3.57887 68.7483 3.57887 68.993 3.73259C69.1774 3.87101 69.2083 4.01789 69.2056 4.19876C69.2056 4.21768 69.2056 4.23661 69.2056 4.2561C69.2056 4.31819 69.205 4.38027 69.2044 4.44236C69.2043 4.48559 69.2042 4.52883 69.2041 4.57206C69.2038 4.6855 69.2031 4.79893 69.2022 4.91237C69.2015 5.02827 69.2011 5.14416 69.2008 5.26006C69.2 5.4872 69.1987 5.71434 69.1971 5.94148C69.2275 5.93267 69.2579 5.92386 69.2891 5.91478C69.3291 5.90326 69.369 5.89173 69.4102 5.87985C69.4695 5.86269 69.4695 5.86269 69.5301 5.84518C70.0896 5.69041 70.7438 5.62244 71.3205 5.76697C71.7638 5.90583 72.0292 6.1164 72.2057 6.42598C72.4055 6.81456 72.2352 7.29007 71.9892 7.65128C71.808 7.9017 71.5745 8.12157 71.2771 8.31298C71.3295 8.39596 71.3914 8.44527 71.4884 8.50583C71.9849 8.83991 72.2379 9.32203 72.28 9.79198C72.282 9.8096 72.2839 9.82722 72.2859 9.84537C72.3057 10.171 72.1484 10.4517 71.8317 10.6918C71.4492 10.9435 71.0292 11.0011 70.5177 10.996C70.0697 10.9855 69.6347 10.8984 69.2343 10.761C69.234 10.7968 69.234 10.7968 69.2336 10.8334C69.2315 11.0588 69.2288 11.2843 69.2255 11.5098C69.2239 11.6257 69.2224 11.7416 69.2214 11.8575C69.2204 11.9695 69.2189 12.0814 69.2171 12.1933C69.2165 12.2359 69.216 12.2786 69.2158 12.3212C69.2154 12.3811 69.2144 12.4409 69.2132 12.5008C69.2133 12.527 69.2133 12.527 69.2134 12.5538C69.2084 12.7317 69.1189 12.8766 68.9371 13.005C68.7267 13.0893 68.5652 13.1102 68.3238 13.1099C68.2879 13.1099 68.2879 13.1099 68.2513 13.1099C68.1725 13.1099 68.0937 13.1097 68.015 13.1095C67.9602 13.1094 67.9055 13.1094 67.8507 13.1094C67.7068 13.1093 67.563 13.109 67.4191 13.1087C67.2722 13.1085 67.1253 13.1084 66.9784 13.1082C66.6904 13.108 66.4023 13.1075 66.1143 13.107C66.1144 13.1211 66.1146 13.1353 66.1147 13.1498C66.118 13.4944 66.1204 13.839 66.122 14.1836C66.1228 14.3503 66.1238 14.5169 66.1255 14.6836C66.1271 14.8444 66.128 15.0053 66.1284 15.1662C66.1287 15.2275 66.1292 15.2888 66.13 15.3502C66.1311 15.4362 66.1312 15.5222 66.1312 15.6082C66.1317 15.6334 66.1322 15.6587 66.1328 15.6847C66.1313 15.8581 66.0862 15.9965 65.9159 16.1293C65.6945 16.269 65.4319 16.2766 65.1478 16.276C65.1153 16.2761 65.0827 16.2762 65.0492 16.2764C64.9423 16.2767 64.8354 16.2767 64.7285 16.2767C64.6538 16.2768 64.5791 16.2769 64.5044 16.277C64.3481 16.2772 64.1918 16.2772 64.0355 16.277C63.8356 16.2769 63.6357 16.2773 63.4359 16.2779C63.2817 16.2783 63.1275 16.2783 62.9733 16.2782C62.8996 16.2782 62.826 16.2784 62.7523 16.2786C62.6491 16.2789 62.5459 16.2788 62.4427 16.2785C62.4126 16.2787 62.3825 16.2789 62.3514 16.2791C62.1022 16.2775 61.8966 16.2452 61.7013 16.1319C59.7776 14.5471 61.4714 12.008 61.4714 9.94498C54.9016 9.94498 48.3318 9.94498 41.5629 9.94498C41.5629 11.8973 41.5629 13.8495 41.5629 15.861C41.3884 16.1305 41.3884 16.1305 41.1914 16.218C40.9884 16.2674 40.8086 16.2764 40.5964 16.276C40.5638 16.2761 40.5313 16.2762 40.4978 16.2764C40.3909 16.2767 40.284 16.2767 40.1771 16.2767C40.1024 16.2768 40.0277 16.2769 39.953 16.277C39.7967 16.2772 39.6404 16.2772 39.484 16.277C39.2842 16.2769 39.0843 16.2773 38.8845 16.2779C38.7303 16.2783 38.5761 16.2783 38.4219 16.2782C38.3482 16.2782 38.2745 16.2784 38.2009 16.2786C38.0977 16.2789 37.9945 16.2788 37.8913 16.2785C37.8612 16.2787 37.8311 16.2789 37.8 16.2791C37.5185 16.2773 37.2759 16.2287 37.0686 16.0905C36.9522 15.9764 36.9153 15.882 36.9155 15.7442C36.9155 15.7092 36.9155 15.7092 36.9154 15.6735C36.9155 15.6481 36.9156 15.6227 36.9158 15.5966C36.9158 15.5697 36.9158 15.5428 36.9158 15.5152C36.9158 15.4263 36.9161 15.3374 36.9164 15.2486C36.9164 15.187 36.9165 15.1254 36.9165 15.0638C36.9167 14.9016 36.917 14.7395 36.9175 14.5773C36.9178 14.4119 36.918 14.2464 36.9182 14.081C36.9186 13.7563 36.9192 13.4316 36.92 13.107C36.89 13.1072 36.8599 13.1073 36.8289 13.1075C36.5448 13.109 36.2607 13.1102 35.9765 13.1109C35.8305 13.1113 35.6844 13.1119 35.5384 13.1128C35.3972 13.1136 35.2561 13.114 35.115 13.1142C35.0613 13.1144 35.0076 13.1147 34.954 13.1151C34.3254 13.1197 34.3254 13.1197 34.067 12.9699C33.8642 12.8029 33.8324 12.6751 33.8329 12.4603C33.8329 12.4419 33.8329 12.4234 33.8329 12.4045C33.8329 12.3439 33.8332 12.2833 33.8335 12.2228C33.8336 12.1806 33.8336 12.1385 33.8337 12.0964C33.8338 11.9857 33.8342 11.8751 33.8346 11.7645C33.835 11.6515 33.8351 11.5385 33.8353 11.4255C33.8357 11.204 33.8364 10.9825 33.8371 10.761C33.7776 10.7767 33.7776 10.7767 33.7169 10.7928C33.6637 10.8067 33.6105 10.8206 33.5573 10.8345C33.5312 10.8414 33.5052 10.8483 33.4784 10.8554C32.9312 10.9979 32.2723 11.0747 31.7117 10.9237C31.3032 10.7841 31.0363 10.5898 30.8495 10.3052C30.6495 9.88493 30.8037 9.40456 31.0793 9.01901C31.2655 8.77127 31.494 8.55273 31.7943 8.36398C31.7483 8.32691 31.7483 8.32691 31.7014 8.28908C31.681 8.27254 31.6606 8.25601 31.6396 8.23897C31.5948 8.20379 31.5485 8.16941 31.5009 8.13598C30.9385 7.7338 30.767 7.20967 30.7787 6.66704C30.7962 6.37318 31.0117 6.13343 31.3207 5.9367C31.7649 5.68815 32.2498 5.68734 32.7971 5.71198C33.0879 5.73829 33.3541 5.80235 33.6233 5.87991C33.6634 5.89143 33.7035 5.90295 33.7447 5.91482C33.7752 5.92362 33.8057 5.93242 33.8371 5.94148C33.8368 5.90622 33.8368 5.90622 33.8364 5.87025C33.8342 5.64816 33.8325 5.42607 33.8314 5.20398C33.8308 5.08981 33.83 4.97565 33.8287 4.86148C33.8275 4.7512 33.8269 4.64092 33.8266 4.53064C33.8264 4.48867 33.826 4.4467 33.8254 4.40474C33.8245 4.34572 33.8244 4.28672 33.8245 4.2277C33.8241 4.17742 33.8241 4.17742 33.8237 4.12612C33.8491 3.94198 33.9419 3.80105 34.1343 3.67198C34.3166 3.60822 34.4482 3.586 34.6557 3.5868C34.6803 3.58679 34.705 3.58678 34.7304 3.58677C34.811 3.58682 34.8916 3.58741 34.9722 3.58801C35.0284 3.58816 35.0847 3.58827 35.1409 3.58834C35.2883 3.58863 35.4356 3.58938 35.583 3.59023C35.7336 3.59102 35.8842 3.59136 36.0349 3.59175C36.3299 3.59257 36.625 3.59387 36.92 3.59548C36.9199 3.58135 36.9197 3.56721 36.9196 3.55265C36.9163 3.20805 36.9139 2.86345 36.9123 2.51885C36.9115 2.3522 36.9105 2.18555 36.9088 2.0189C36.9072 1.85803 36.9063 1.69716 36.9059 1.53628C36.9056 1.47495 36.9051 1.41363 36.9043 1.35231C36.9032 1.2663 36.9031 1.18031 36.9031 1.09429C36.9026 1.06904 36.9021 1.04378 36.9015 1.01776C36.903 0.845207 36.9458 0.702947 37.121 0.573141C37.3413 0.439144 37.5366 0.425872 37.8174 0.426076ZM38.48 1.50448C38.48 6.02334 38.48 10.5422 38.48 15.198C38.9825 15.198 39.4851 15.198 40.0029 15.198C40.0029 10.6791 40.0029 6.16027 40.0029 1.50448C39.5003 1.50448 38.9978 1.50448 38.48 1.50448ZM63.0686 1.50448C63.0686 6.02334 63.0686 10.5422 63.0686 15.198C63.5589 15.198 64.0491 15.198 64.5543 15.198C64.5543 10.6791 64.5543 6.16027 64.5543 1.50448C64.064 1.50448 63.5737 1.50448 63.0686 1.50448ZM35.4343 4.66648C35.4343 7.09842 35.4343 9.53035 35.4343 12.036C35.9246 12.036 36.4149 12.036 36.92 12.036C36.92 9.60405 36.92 7.17211 36.92 4.66648C36.4297 4.66648 35.9394 4.66648 35.4343 4.66648ZM66.1143 4.66648C66.1143 7.09842 66.1143 9.53035 66.1143 12.036C66.6168 12.036 67.1194 12.036 67.6371 12.036C67.6371 9.60405 67.6371 7.17211 67.6371 4.66648C67.1346 4.66648 66.6321 4.66648 66.1143 4.66648ZM32.3514 6.78298C32.3712 7.10746 32.5601 7.35007 32.8983 7.57617C33.1597 7.7255 33.4967 7.81439 33.8371 7.80298C33.8703 7.54669 33.6964 7.31008 33.4657 7.11448C33.2542 6.95396 32.9227 6.82135 32.6114 6.78298C32.5248 6.78199 32.4381 6.78184 32.3514 6.78298ZM69.7171 7.03798C69.6943 7.05136 69.6714 7.06474 69.6478 7.07852C69.3915 7.23902 69.26 7.44394 69.1971 7.67548C69.1962 7.71798 69.196 7.76049 69.1971 7.80298C69.619 7.80184 69.9764 7.69552 70.2837 7.49639C70.5068 7.32303 70.6878 7.09358 70.6898 6.85789C70.6875 6.83317 70.6852 6.80845 70.6829 6.78298C70.3114 6.77315 69.9904 6.86949 69.7171 7.03798ZM41.5629 7.82848C41.5629 8.1735 41.5629 8.51851 41.5629 8.87398C42.4086 8.87398 43.2543 8.87398 44.1257 8.87398C44.4197 8.492 44.4197 8.492 44.7061 8.10739C44.7221 8.08568 44.7382 8.06397 44.7547 8.0416C44.7773 8.01061 44.7773 8.01061 44.8004 7.97899C44.8136 7.96098 44.8268 7.94296 44.8404 7.9244C44.8735 7.87983 44.8735 7.87983 44.8686 7.82848C43.7777 7.82848 42.6868 7.82848 41.5629 7.82848ZM46.6143 7.82848C46.5084 7.97326 46.4026 8.11805 46.2969 8.26287C46.2609 8.31218 46.2249 8.36148 46.1888 8.41077C46.1371 8.48145 46.0855 8.55215 46.0339 8.62287C46.0177 8.64505 46.0014 8.66723 45.9847 8.69008C45.9698 8.7105 45.9549 8.73092 45.9396 8.75196C45.9264 8.77002 45.9132 8.78808 45.8996 8.80669C45.8688 8.84466 45.8688 8.84466 45.8714 8.87398C46.3127 8.87398 46.7539 8.87398 47.2086 8.87398C47.3144 8.72921 47.4203 8.58442 47.526 8.43959C47.562 8.39029 47.598 8.34099 47.634 8.2917C47.6857 8.22102 47.7373 8.15031 47.7889 8.0796C47.8052 8.05742 47.8214 8.03524 47.8382 8.01239C47.8605 7.98176 47.8605 7.98176 47.8832 7.95051C47.8964 7.93245 47.9096 7.91438 47.9232 7.89577C47.954 7.8578 47.954 7.8578 47.9514 7.82848C47.5102 7.82848 47.0689 7.82848 46.6143 7.82848ZM49.6971 7.82848C49.5006 8.08297 49.3055 8.33781 49.1168 8.59508C49.1005 8.61706 49.0843 8.63904 49.0675 8.66169C49.0527 8.68208 49.0378 8.70247 49.0225 8.72347C49.0093 8.74149 48.9961 8.7595 48.9825 8.77807C48.9494 8.82264 48.9494 8.82264 48.9543 8.87398C49.3955 8.87398 49.8368 8.87398 50.2914 8.87398C50.3973 8.72921 50.5031 8.58442 50.6088 8.43959C50.6448 8.39029 50.6808 8.34099 50.7169 8.2917C50.7686 8.22102 50.8202 8.15031 50.8718 8.0796C50.888 8.05742 50.9043 8.03524 50.921 8.01239C50.9433 7.98176 50.9433 7.98176 50.9661 7.95051C50.9793 7.93245 50.9925 7.91438 51.0061 7.89577C51.0369 7.8578 51.0369 7.8578 51.0343 7.82848C50.593 7.82848 50.1518 7.82848 49.6971 7.82848ZM52.7429 7.82848C52.6946 7.89949 52.6463 7.97049 52.5966 8.04364C52.4662 8.23438 52.3285 8.42146 52.1795 8.60568C52.1053 8.69904 52.0682 8.76753 52.0371 8.87398C52.4661 8.87398 52.8951 8.87398 53.3371 8.87398C53.5337 8.6195 53.7288 8.36466 53.9175 8.10739C53.9337 8.08541 53.95 8.06342 53.9667 8.04078C53.989 8.01019 53.989 8.01019 54.0118 7.97899C54.025 7.96098 54.0382 7.94296 54.0518 7.9244C54.0849 7.87983 54.0849 7.87983 54.08 7.82848C53.6387 7.82848 53.1975 7.82848 52.7429 7.82848ZM55.8257 7.82848C55.7199 7.97326 55.614 8.11805 55.5083 8.26287C55.4723 8.31218 55.4363 8.36148 55.4002 8.41077C55.3485 8.48145 55.2969 8.55215 55.2454 8.62287C55.2291 8.64505 55.2129 8.66723 55.1961 8.69008C55.1812 8.7105 55.1664 8.73092 55.151 8.75196C55.1379 8.77002 55.1247 8.78808 55.1111 8.80669C55.0803 8.84466 55.0803 8.84466 55.0829 8.87398C55.5241 8.87398 55.9654 8.87398 56.42 8.87398C56.5259 8.72921 56.6317 8.58442 56.7374 8.43959C56.7734 8.39029 56.8094 8.34099 56.8455 8.2917C56.8972 8.22102 56.9488 8.15031 57.0004 8.0796C57.0166 8.05742 57.0329 8.03524 57.0496 8.01239C57.0719 7.98176 57.0719 7.98176 57.0947 7.95051C57.1079 7.93245 57.1211 7.91438 57.1347 7.89577C57.1655 7.8578 57.1655 7.8578 57.1629 7.82848C56.7216 7.82848 56.2803 7.82848 55.8257 7.82848ZM58.9086 7.82848C58.6145 8.21047 58.6145 8.21047 58.3282 8.59508C58.3122 8.61679 58.2961 8.6385 58.2796 8.66087C58.2645 8.68153 58.2494 8.70219 58.2339 8.72347C58.2207 8.74149 58.2075 8.7595 58.1939 8.77807C58.1608 8.82264 58.1608 8.82264 58.1657 8.87398C59.2566 8.87398 60.3475 8.87398 61.4714 8.87398C61.4714 8.52897 61.4714 8.18395 61.4714 7.82848C60.6257 7.82848 59.7799 7.82848 58.9086 7.82848ZM32.7136 9.23736C32.4894 9.4306 32.3337 9.67033 32.3514 9.91948C32.819 9.89877 33.1718 9.77779 33.4913 9.54336C33.7291 9.34907 33.8442 9.15143 33.8371 8.89948C33.4086 8.87769 33.0025 9.02233 32.7136 9.23736ZM69.1971 8.89948C69.2273 9.22018 69.4044 9.45999 69.7404 9.68201C70.0119 9.8378 70.3338 9.9075 70.6829 9.91948C70.7111 9.66248 70.5826 9.4521 70.3428 9.25638C70.1034 9.07847 69.7816 8.90848 69.4148 8.89699C69.3889 8.89729 69.3631 8.89759 69.3364 8.89789C69.2905 8.89842 69.2445 8.89894 69.1971 8.89948Z" fill="#6D28D9"/>
<path d="M15.976 22.1754C16.0239 22.1752 16.0718 22.175 16.1212 22.1748C16.1746 22.1749 16.2281 22.1751 16.2816 22.1753C16.3381 22.1752 16.3947 22.1751 16.4512 22.1749C16.607 22.1746 16.7628 22.1748 16.9186 22.175C17.0865 22.1752 17.2543 22.1749 17.4222 22.1747C17.7512 22.1743 18.0802 22.1744 18.4092 22.1746C18.6765 22.1748 18.9438 22.1748 19.2112 22.1748C19.2491 22.1747 19.2871 22.1747 19.3263 22.1747C19.4034 22.1747 19.4806 22.1747 19.5578 22.1746C20.282 22.1744 21.0063 22.1747 21.7305 22.1751C22.3524 22.1754 22.9744 22.1754 23.5963 22.175C24.3179 22.1746 25.0395 22.1744 25.7611 22.1747C25.8379 22.1747 25.9148 22.1747 25.9917 22.1748C26.0296 22.1748 26.0674 22.1748 26.1064 22.1748C26.3735 22.1749 26.6406 22.1747 26.9077 22.1746C27.233 22.1743 27.5584 22.1744 27.8837 22.1748C28.0498 22.175 28.2159 22.1751 28.382 22.1748C28.5339 22.1746 28.6858 22.1747 28.8377 22.1751C28.8928 22.1752 28.9479 22.1752 29.0031 22.175C29.0777 22.1748 29.1523 22.175 29.2269 22.1754C29.2684 22.1754 29.3099 22.1754 29.3527 22.1754C29.4543 22.185 29.4543 22.185 29.5234 22.2199C29.5848 22.2802 29.5795 22.326 29.5794 22.3991C29.5796 22.4277 29.5798 22.4562 29.58 22.4857C29.5797 22.517 29.5793 22.5484 29.579 22.5807C29.579 22.6137 29.5791 22.6467 29.5792 22.6807C29.5794 22.7713 29.5789 22.8618 29.5782 22.9524C29.5777 23.0471 29.5777 23.1418 29.5777 23.2365C29.5776 23.3955 29.577 23.5545 29.5762 23.7135C29.5751 23.9177 29.5747 24.1219 29.5746 24.3262C29.5744 24.5016 29.5739 24.677 29.5734 24.8524C29.5733 24.9089 29.5732 24.9654 29.5731 25.0218C29.5728 25.1269 29.5723 25.232 29.5717 25.3371C29.5717 25.3685 29.5716 25.3999 29.5716 25.4323C29.5714 25.4608 29.5712 25.4893 29.5709 25.5186C29.5708 25.5435 29.5707 25.5683 29.5706 25.594C29.5657 25.653 29.5657 25.653 29.5286 25.704C29.4282 25.727 29.3712 25.7327 29.2683 25.7326C29.2379 25.7327 29.2076 25.7327 29.1763 25.7328C29.1429 25.7327 29.1096 25.7326 29.0752 25.7326C29.0398 25.7326 29.0043 25.7326 28.9678 25.7326C28.8486 25.7327 28.7293 25.7325 28.6101 25.7324C28.5248 25.7324 28.4395 25.7324 28.3542 25.7324C28.1223 25.7324 27.8903 25.7323 27.6583 25.7321C27.416 25.7319 27.1738 25.7319 26.9315 25.7319C26.5248 25.7318 26.118 25.7316 25.7112 25.7314C25.2922 25.7312 24.8733 25.731 24.4543 25.7309C24.4282 25.7309 24.4021 25.7309 24.3752 25.7309C24.1483 25.7308 23.9214 25.7308 23.6945 25.7307C22.7173 25.7305 21.7401 25.73 20.7629 25.7295C20.7629 27.2021 20.7629 28.6747 20.7629 30.192C21.3921 30.1911 22.0213 30.1902 22.6696 30.1893C23.0671 30.1889 23.4645 30.1885 23.862 30.1883C24.0707 30.1881 24.2794 30.1879 24.488 30.1878C24.5273 30.1878 24.5273 30.1878 24.5673 30.1877C24.99 30.1874 25.4127 30.1868 25.8355 30.1861C26.269 30.1854 26.7026 30.185 27.1362 30.1848C27.3798 30.1847 27.6235 30.1845 27.8671 30.1839C28.0962 30.1834 28.3252 30.1832 28.5543 30.1833C28.6386 30.1833 28.7229 30.1832 28.8072 30.1829C28.9219 30.1825 29.0365 30.1826 29.1511 30.1828C29.1849 30.1826 29.2186 30.1823 29.2534 30.1821C29.346 30.1826 29.346 30.1826 29.4914 30.192C29.5745 30.2775 29.5756 30.3068 29.5776 30.4069C29.5783 30.4356 29.579 30.4644 29.5798 30.494C29.5802 30.5256 29.5807 30.5571 29.5811 30.5896C29.5822 30.6395 29.5822 30.6395 29.5833 30.6903C29.5853 30.7814 29.5867 30.8726 29.5881 30.9637C29.5889 31.0206 29.5899 31.0775 29.591 31.1344C29.5961 31.4153 29.5998 31.6961 29.6029 31.977C29.6032 32.0077 29.6032 32.0077 29.6036 32.039C29.6066 32.3186 29.6086 32.5983 29.6096 32.878C29.6098 32.9349 29.6102 32.9919 29.6106 33.0488C29.6113 33.1548 29.6114 33.2608 29.6114 33.3668C29.6118 33.4144 29.6118 33.4144 29.6122 33.4629C29.6121 33.4916 29.612 33.5204 29.6119 33.55C29.6119 33.5751 29.612 33.6001 29.6121 33.626C29.6029 33.6855 29.6029 33.6855 29.5286 33.7365C29.4136 33.7414 29.3019 33.7431 29.1869 33.7426C29.151 33.7427 29.1152 33.7427 29.0782 33.7428C28.9573 33.7428 28.8364 33.7426 28.7155 33.7423C28.6291 33.7423 28.5427 33.7423 28.4564 33.7423C28.2212 33.7423 27.9861 33.742 27.751 33.7417C27.5304 33.7414 27.3097 33.7413 27.0891 33.7413C26.652 33.7412 26.2149 33.7408 25.7779 33.7403C25.3532 33.7399 24.9286 33.7395 24.5039 33.7393C24.4777 33.7393 24.4516 33.7393 24.4246 33.7392C24.2934 33.7392 24.1621 33.7391 24.0309 33.7391C22.9415 33.7385 21.8522 33.7376 20.7629 33.7365C20.7629 33.7545 20.7629 33.7725 20.763 33.791C20.7646 34.8561 20.7659 35.9212 20.7667 36.9863C20.7668 37.1141 20.7669 37.2419 20.7669 37.3697C20.767 37.3952 20.767 37.4206 20.767 37.4468C20.7673 37.8592 20.7679 38.2715 20.7686 38.6839C20.7693 39.1067 20.7697 39.5296 20.7699 39.9525C20.77 40.2136 20.7703 40.4747 20.7709 40.7358C20.7713 40.9147 20.7714 41.0935 20.7713 41.2724C20.7713 41.3757 20.7713 41.479 20.7717 41.5823C20.7721 41.6768 20.7721 41.7713 20.7719 41.8658C20.7718 41.9164 20.7721 41.9669 20.7725 42.0174C20.7723 42.0473 20.7722 42.0771 20.772 42.1079C20.772 42.1338 20.7721 42.1596 20.7721 42.1862C20.7625 42.2562 20.7465 42.2976 20.6886 42.3555C20.5758 42.3813 20.4997 42.3843 20.3817 42.3846C20.3412 42.3847 20.3007 42.3849 20.2589 42.385C20.1922 42.3851 20.1922 42.3851 20.1242 42.3851C20.0774 42.3852 20.0306 42.3854 19.9823 42.3855C19.8539 42.3858 19.7254 42.386 19.5969 42.3861C19.5167 42.3862 19.4364 42.3863 19.3561 42.3864C19.105 42.3867 18.8538 42.387 18.6026 42.3871C18.3127 42.3872 18.0228 42.3876 17.7329 42.3884C17.5088 42.3889 17.2847 42.3892 17.0606 42.3892C16.9267 42.3892 16.7929 42.3894 16.659 42.3899C16.5097 42.3904 16.3605 42.3902 16.2111 42.3901C16.1447 42.3904 16.1447 42.3904 16.0769 42.3908C16.0362 42.3906 15.9954 42.3905 15.9535 42.3904C15.9182 42.3904 15.8829 42.3904 15.8465 42.3905C15.7251 42.3787 15.6602 42.3557 15.5629 42.3045C15.54 42.2414 15.54 42.2414 15.5404 42.1646C15.5401 42.1354 15.5399 42.1061 15.5396 42.076C15.5405 42.0276 15.5405 42.0276 15.5415 41.9782C15.5416 41.9436 15.5415 41.9091 15.5414 41.8746C15.5412 41.7795 15.5423 41.6844 15.5435 41.5893C15.5446 41.4871 15.5447 41.3849 15.5448 41.2827C15.5453 41.1053 15.5464 40.928 15.5479 40.7506C15.5502 40.4906 15.5514 40.2305 15.5524 39.9705C15.554 39.5502 15.5564 39.1298 15.5592 38.7095C15.5627 38.1859 15.5648 37.6623 15.5663 37.1388C15.5668 36.9478 15.5674 36.7569 15.568 36.5659C15.5681 36.545 15.5682 36.5241 15.5682 36.5025C15.5698 36.0068 15.5719 35.5111 15.5742 35.0154C15.5743 34.9937 15.5744 34.972 15.5745 34.9496C15.5758 34.6608 15.5771 34.3721 15.5785 34.0833C15.5791 33.9453 15.5798 33.8072 15.5804 33.6691C15.5805 33.646 15.5806 33.6228 15.5807 33.599C15.581 33.5521 15.5812 33.5052 15.5814 33.4582C15.5823 33.2688 15.5831 33.0793 15.584 32.8898C15.5844 32.8183 15.5847 32.7468 15.585 32.6753C15.5856 32.5558 15.5861 32.4364 15.5867 32.3169C15.5869 32.269 15.5871 32.2211 15.5874 32.1732C15.5886 31.91 15.5898 31.6468 15.5911 31.3835C15.5966 30.2244 15.6014 29.0653 15.6048 27.9062C15.6049 27.8843 15.605 27.8625 15.605 27.8399C15.6052 27.7959 15.6053 27.7519 15.6054 27.7079C15.6064 27.3864 15.6075 27.0649 15.6086 26.7433C15.6087 26.7227 15.6088 26.702 15.6089 26.6807C15.6096 26.4755 15.6104 26.2702 15.6112 26.065C15.6115 25.9649 15.6119 25.8647 15.6123 25.7645C15.6124 25.7449 15.6124 25.7252 15.6125 25.705C15.6137 25.3908 15.6145 25.0766 15.6151 24.7623C15.6157 24.451 15.6168 24.1396 15.6182 23.8282C15.619 23.6609 15.6195 23.4937 15.6196 23.3265C15.6197 23.1745 15.6203 23.0225 15.6213 22.8706C15.6215 22.8156 15.6216 22.7606 15.6215 22.7056C15.6214 22.6314 15.6219 22.5573 15.6226 22.4831C15.6224 22.4615 15.6222 22.4398 15.622 22.4176C15.6244 22.2747 15.6244 22.2747 15.6795 22.2178C15.7794 22.1703 15.8552 22.1754 15.976 22.1754Z" fill="#6D28D9"/>
<path d="M72.061 22.1814C72.1021 22.1813 72.1432 22.1811 72.1856 22.181C72.231 22.181 72.2765 22.1809 72.3234 22.1809C72.371 22.1808 72.4185 22.1806 72.4676 22.1805C72.5985 22.1802 72.7294 22.18 72.8603 22.1799C72.9421 22.1798 73.0238 22.1797 73.1056 22.1796C73.3612 22.1793 73.6169 22.179 73.8725 22.1789C74.1678 22.1788 74.4632 22.1783 74.7585 22.1776C74.9866 22.1771 75.2147 22.1768 75.4428 22.1768C75.5791 22.1767 75.7154 22.1766 75.8517 22.1761C76.0038 22.1756 76.1559 22.1757 76.308 22.1759C76.3532 22.1757 76.3985 22.1754 76.4451 22.1752C76.5072 22.1754 76.5072 22.1754 76.5706 22.1756C76.6065 22.1756 76.6425 22.1756 76.6796 22.1755C76.7921 22.1868 76.8417 22.2075 76.9229 22.2615C76.9595 22.3256 76.9875 22.3849 77.0126 22.4512C77.0204 22.4704 77.0282 22.4896 77.0362 22.5094C77.0617 22.5731 77.0865 22.6369 77.1113 22.7007C77.1293 22.7457 77.1473 22.7908 77.1653 22.8358C77.2028 22.9295 77.2399 23.0232 77.2767 23.117C77.3277 23.2467 77.3794 23.3762 77.4315 23.5057C77.5237 23.7354 77.6152 23.9652 77.7066 24.1951C77.781 24.3822 77.8556 24.5693 77.9301 24.7565C77.9588 24.8285 77.9875 24.9006 78.0162 24.9727C78.2422 25.5401 78.4695 26.1074 78.6969 26.6746C78.7221 26.7373 78.7472 26.8 78.7724 26.8628C78.7892 26.9046 78.8059 26.9465 78.8227 26.9883C78.9486 27.3023 79.0742 27.6163 79.1996 27.9304C79.2555 28.0704 79.3115 28.2105 79.3674 28.3505C79.4204 28.4831 79.4734 28.6158 79.5263 28.7485C79.5591 28.8309 79.5921 28.9133 79.625 28.9956C79.6401 29.0332 79.655 29.0708 79.67 29.1084C79.7873 29.4031 79.9137 29.6957 80.0429 29.988C80.0536 29.9615 80.0644 29.935 80.0754 29.9077C80.3659 29.1911 80.6565 28.4745 80.947 27.758C81.0087 27.6059 81.0703 27.4538 81.132 27.3017C81.3492 26.7659 81.5666 26.2301 81.784 25.6943C81.8485 25.5354 81.913 25.3764 81.9775 25.2175C82.0665 24.9979 82.1557 24.7783 82.2448 24.5588C82.2921 24.4424 82.3393 24.326 82.3865 24.2096C82.4818 23.9746 82.5774 23.7398 82.6735 23.505C82.7311 23.3642 82.7881 23.2233 82.845 23.0824C82.8854 22.9823 82.9262 22.8824 82.9671 22.7824C82.9866 22.7343 83.0061 22.6863 83.0253 22.6381C83.052 22.5716 83.0792 22.5052 83.1065 22.4388C83.1182 22.409 83.1182 22.409 83.1302 22.3786C83.1873 22.2418 83.1873 22.2418 83.3114 22.185C83.4015 22.1786 83.4015 22.1786 83.5105 22.1785C83.5724 22.1783 83.5724 22.1783 83.6356 22.1781C83.681 22.1782 83.7263 22.1783 83.773 22.1784C83.8207 22.1783 83.8684 22.1782 83.9176 22.1781C84.0485 22.1779 84.1794 22.178 84.3103 22.1782C84.4472 22.1783 84.5841 22.1782 84.721 22.1781C84.9508 22.178 85.1807 22.1781 85.4105 22.1784C85.6764 22.1786 85.9424 22.1785 86.2083 22.1783C86.4365 22.178 86.6647 22.178 86.8928 22.1781C87.0292 22.1782 87.1655 22.1782 87.3019 22.1781C87.4538 22.1779 87.6057 22.1781 87.7576 22.1784C87.803 22.1783 87.8484 22.1782 87.8952 22.1781C87.9364 22.1782 87.9775 22.1784 88.02 22.1785C88.0559 22.1785 88.0919 22.1786 88.1289 22.1786C88.2143 22.185 88.2143 22.185 88.2886 22.236C88.2769 22.4024 88.189 22.5565 88.1117 22.7131C88.0902 22.7574 88.0902 22.7574 88.0682 22.8026C88.0219 22.8975 87.9753 22.9923 87.9288 23.0871C87.8993 23.1474 87.8699 23.2078 87.8405 23.2682C87.6623 23.6333 87.4813 23.9977 87.2998 24.3621C87.0298 24.9039 86.7636 25.4466 86.4978 25.9894C86.3589 26.2732 86.2198 26.5569 86.0808 26.8406C86.067 26.8688 86.0531 26.897 86.0389 26.9261C85.7951 27.4236 85.5506 27.9209 85.3056 28.4182C85.2348 28.5618 85.164 28.7054 85.0933 28.849C85.0845 28.8668 85.0757 28.8847 85.0666 28.9031C84.8003 29.4436 84.535 29.9844 84.2695 30.525C84.2017 30.6631 84.1339 30.8012 84.0661 30.9393C84.0549 30.962 84.0437 30.9848 84.0322 31.0083C83.8613 31.3563 83.6902 31.7042 83.5191 32.0521C83.508 32.0747 83.4968 32.0973 83.4854 32.1206C83.3791 32.3367 83.2728 32.5528 83.1664 32.7688C83.1279 32.8471 83.0893 32.9255 83.0508 33.0038C83.0333 33.0394 83.0158 33.075 82.9982 33.1106C82.9901 33.1271 82.982 33.1436 82.9736 33.1606C82.966 33.1759 82.9585 33.1911 82.9507 33.2069C82.9272 33.2549 82.9042 33.3032 82.8813 33.3514C82.8485 33.4187 82.8124 33.4816 82.7711 33.547C82.5498 33.9097 82.5771 34.2861 82.5841 34.6717C82.5857 34.7735 82.586 34.8753 82.5864 34.9771C82.5873 35.153 82.589 35.3288 82.5913 35.5047C82.5946 35.759 82.5966 36.0134 82.5982 36.2678C82.6009 36.6807 82.6046 37.0937 82.6089 37.5066C82.613 37.9072 82.6169 38.3078 82.6204 38.7084C82.6207 38.7455 82.6207 38.7455 82.621 38.7834C82.6233 39.0533 82.6255 39.3231 82.6276 39.593C82.6278 39.6167 82.6279 39.6404 82.6281 39.6648C82.6288 39.7596 82.6296 39.8543 82.6303 39.949C82.6324 40.2263 82.6348 40.5036 82.6378 40.7809C82.6397 40.9545 82.6413 41.1281 82.6427 41.3017C82.6436 41.4019 82.6446 41.5021 82.6459 41.6023C82.6471 41.694 82.6479 41.7856 82.6485 41.8773C82.6489 41.9263 82.6497 41.9753 82.6505 42.0242C82.6506 42.0532 82.6507 42.0822 82.6508 42.112C82.6511 42.1371 82.6513 42.1621 82.6516 42.1879C82.6424 42.2567 82.6231 42.2978 82.5686 42.3555C82.4732 42.3882 82.4054 42.3843 82.2986 42.3844C82.2571 42.3845 82.2156 42.3846 82.1728 42.3847C82.1271 42.3847 82.0813 42.3847 82.0342 42.3847C81.9861 42.3848 81.9381 42.3849 81.8887 42.385C81.7567 42.3852 81.6248 42.3853 81.4929 42.3853C81.3829 42.3853 81.2729 42.3854 81.1628 42.3855C80.9033 42.3857 80.6438 42.3857 80.3842 42.3857C80.1163 42.3857 79.8483 42.386 79.5804 42.3864C79.3505 42.3867 79.1207 42.3869 78.8908 42.3868C78.7534 42.3868 78.6161 42.3869 78.4787 42.3872C78.3255 42.3875 78.1724 42.3874 78.0193 42.3872C77.9736 42.3873 77.9279 42.3875 77.8808 42.3876C77.8392 42.3875 77.7976 42.3874 77.7547 42.3873C77.7185 42.3873 77.6823 42.3873 77.645 42.3874C77.5543 42.381 77.5543 42.381 77.4429 42.33C77.4299 42.272 77.4299 42.272 77.4312 42.1978C77.4315 42.1697 77.4317 42.1415 77.432 42.1124C77.4328 42.0812 77.4336 42.05 77.4345 42.0178C77.4349 41.9848 77.4353 41.9518 77.4358 41.9178C77.4367 41.8451 77.438 41.7724 77.4396 41.6997C77.4421 41.5813 77.4439 41.4629 77.4456 41.3445C77.4477 41.1947 77.4501 41.0449 77.4527 40.895C77.4577 40.5988 77.4611 40.3025 77.4639 40.0062C77.4644 39.9594 77.4648 39.9126 77.4653 39.8659C77.4662 39.7711 77.4671 39.6763 77.468 39.5815C77.4703 39.3373 77.4727 39.0932 77.4753 38.849C77.4755 38.8245 77.4758 38.8 77.4761 38.7748C77.4803 38.3818 77.4868 37.9888 77.4942 37.5959C77.5017 37.1903 77.5062 36.7847 77.5082 36.3791C77.5095 36.1523 77.512 35.9255 77.518 35.6987C77.5472 34.5737 77.396 33.6463 76.7905 32.5954C76.6781 32.3998 76.5823 32.201 76.489 32.0007C76.4481 31.9135 76.4055 31.8266 76.363 31.7397C76.3467 31.7062 76.3304 31.6727 76.3141 31.6392C76.3018 31.614 76.3018 31.614 76.2893 31.5884C76.2439 31.4952 76.1987 31.402 76.1534 31.3088C76.0401 31.0757 75.9267 30.8426 75.8132 30.6096C75.6624 30.2995 75.5115 29.9895 75.3608 29.6794C75.3517 29.6606 75.3426 29.6418 75.3332 29.6225C75.1198 29.1834 74.9073 28.7441 74.6998 28.3036C74.4666 27.8088 74.2272 27.3154 73.9874 26.822C73.9723 26.791 73.9723 26.791 73.9569 26.7593C73.8004 26.4372 73.6438 26.1152 73.4872 25.7933C73.3203 25.4503 73.1535 25.1074 72.9869 24.7645C72.9769 24.7439 72.9669 24.7234 72.9566 24.7022C72.6925 24.1588 72.4297 23.6152 72.173 23.0701C72.1638 23.0507 72.1546 23.0312 72.1452 23.0111C72.1279 22.9743 72.1106 22.9375 72.0934 22.9007C72.0523 22.813 72.0101 22.7258 71.9658 22.6388C71.957 22.6215 71.9483 22.6042 71.9393 22.5864C71.9156 22.5397 71.8916 22.493 71.8675 22.4463C71.8341 22.3631 71.825 22.2963 71.8343 22.2105C71.897 22.1675 71.9751 22.1816 72.061 22.1814Z" fill="#6D28D9"/>
<path d="M41.264 22.1781C41.2898 22.1782 41.3156 22.1783 41.3422 22.1784C41.3697 22.1784 41.3971 22.1783 41.4254 22.1782C41.5183 22.1779 41.6112 22.1781 41.7041 22.1782C41.771 22.1781 41.838 22.178 41.9049 22.1778C42.0895 22.1775 42.2741 22.1775 42.4587 22.1776C42.6575 22.1776 42.8563 22.1773 43.0551 22.1771C43.4449 22.1766 43.8347 22.1765 44.2245 22.1765C44.5411 22.1765 44.8578 22.1764 45.1745 22.1762C46.0715 22.1757 46.9686 22.1755 47.8656 22.1755C47.914 22.1755 47.9624 22.1755 48.0122 22.1756C48.0607 22.1756 48.1092 22.1756 48.1591 22.1756C48.9448 22.1756 49.7304 22.1751 50.5161 22.1744C51.3219 22.1736 52.1278 22.1733 52.9337 22.1733C53.3864 22.1733 53.8392 22.1732 54.292 22.1727C54.6775 22.1722 55.0629 22.1721 55.4484 22.1724C55.6452 22.1726 55.842 22.1726 56.0388 22.1722C56.2188 22.1718 56.3988 22.1718 56.5788 22.1723C56.644 22.1724 56.7093 22.1723 56.7746 22.172C56.863 22.1716 56.9514 22.1719 57.0399 22.1723C57.0655 22.1721 57.0911 22.1718 57.1175 22.1715C57.2411 22.1728 57.3025 22.1803 57.4015 22.2328C57.4754 22.3013 57.4785 22.3397 57.4784 22.4244C57.4787 22.4523 57.479 22.4802 57.4793 22.5089C57.4789 22.5394 57.4785 22.5699 57.478 22.6013C57.4782 22.6335 57.4783 22.6656 57.4785 22.6988C57.4788 22.787 57.4783 22.8752 57.4775 22.9634C57.4768 23.0557 57.477 23.148 57.477 23.2403C57.4769 23.3954 57.4763 23.5504 57.4753 23.7054C57.4741 23.8846 57.4737 24.0638 57.4738 24.243C57.4738 24.4339 57.4733 24.6247 57.4726 24.8155C57.4725 24.8705 57.4724 24.9254 57.4724 24.9804C57.4723 25.0829 57.4716 25.1853 57.4708 25.2877C57.4708 25.3182 57.4708 25.3487 57.4709 25.3801C57.4706 25.408 57.4703 25.4358 57.4699 25.4646C57.4698 25.4888 57.4697 25.513 57.4695 25.538C57.4595 25.6056 57.439 25.647 57.3857 25.704C57.2843 25.7388 57.2045 25.7326 57.091 25.7326C57.044 25.7326 56.997 25.7326 56.9486 25.7327C56.8963 25.7326 56.8439 25.7325 56.7915 25.7324C56.7366 25.7324 56.6817 25.7324 56.6268 25.7324C56.4775 25.7324 56.3282 25.7323 56.1789 25.7321C56.0229 25.7319 55.8669 25.7319 55.711 25.7319C55.4155 25.7318 55.1201 25.7316 54.8247 25.7313C54.4884 25.7311 54.152 25.7309 53.8157 25.7308C53.1238 25.7305 52.4319 25.7301 51.74 25.7295C51.7404 25.7582 51.7409 25.787 51.7413 25.8166C51.7755 28.057 51.7826 30.2974 51.786 34.6338C51.786 34.6712 51.786 34.7086 51.786 34.746C51.786 34.7645 51.786 34.7831 51.786 34.8022C51.786 34.8772 51.786 34.9523 51.786 35.0273C51.7861 35.0649 51.7861 35.1025 51.7861 35.14C51.7862 35.752 51.7868 36.364 51.7877 36.976C51.7886 37.6311 51.7891 38.2861 51.7891 38.9411C51.7891 39.0127 51.7891 39.0843 51.7892 39.1558C51.7892 39.1735 51.7892 39.1911 51.7892 39.2092C51.7892 39.4916 51.7896 39.7739 51.7902 40.0563C51.7907 40.3377 51.7908 40.619 51.7905 40.9004C51.7904 41.0525 51.7904 41.2047 51.7909 41.3568C51.7914 41.4957 51.7913 41.6346 51.7909 41.7734C51.7908 41.8238 51.7909 41.8742 51.7913 41.9246C51.7917 41.9927 51.7914 42.0607 51.7909 42.1288C51.7914 42.1586 51.7914 42.1586 51.7918 42.1891C51.791 42.2436 51.791 42.2436 51.7771 42.33C51.653 42.3868 51.6134 42.3874 51.4686 42.3876C51.4277 42.3878 51.3868 42.388 51.3447 42.3882C51.2998 42.3881 51.255 42.3881 51.2088 42.388C51.1615 42.3881 51.1143 42.3883 51.0656 42.3884C50.936 42.3887 50.8064 42.3888 50.6768 42.3887C50.5686 42.3887 50.4604 42.3888 50.3522 42.3889C50.097 42.3892 49.8418 42.3892 49.5866 42.3891C49.3233 42.3889 49.0599 42.3892 48.7966 42.3898C48.5706 42.3902 48.3445 42.3904 48.1185 42.3903C47.9834 42.3902 47.8484 42.3903 47.7134 42.3906C47.5628 42.391 47.4123 42.3908 47.2617 42.3905C47.217 42.3907 47.1722 42.3909 47.126 42.3911C47.085 42.3909 47.0441 42.3907 47.0018 42.3905C46.9662 42.3905 46.9306 42.3906 46.894 42.3906C46.7804 42.379 46.7346 42.3582 46.6514 42.3045C46.6329 42.2514 46.6329 42.2514 46.633 42.1887C46.6326 42.1648 46.6323 42.1409 46.632 42.1162C46.6325 42.0766 46.6325 42.0766 46.6331 42.0362C46.633 42.0082 46.6328 41.9801 46.6326 41.9512C46.6322 41.8561 46.6329 41.7611 46.6336 41.6661C46.6335 41.5976 46.6334 41.5292 46.6332 41.4607C46.6329 41.3115 46.6331 41.1622 46.6337 41.0129C46.6346 40.7909 46.6347 40.5689 46.6345 40.3469C46.6343 39.9735 46.6348 39.6002 46.6357 39.2268C46.6366 38.857 46.6372 38.4871 46.6373 38.1173C46.6373 38.0944 46.6373 38.0714 46.6374 38.0477C46.6374 37.931 46.6374 37.8144 46.6375 37.6977C46.6378 36.8709 46.6388 36.044 46.6402 35.2171C46.6416 34.4137 46.6426 33.6103 46.6433 32.8069C46.6433 32.7698 46.6433 32.7698 46.6433 32.7319C46.6435 32.4833 46.6437 32.2347 46.6439 31.9861C46.6443 31.4797 46.6447 30.9733 46.6451 30.4669C46.6452 30.432 46.6452 30.432 46.6452 30.3963C46.6466 28.8407 46.6489 27.2851 46.6514 25.7295C46.623 25.7296 46.5946 25.7296 46.5654 25.7297C45.8751 25.7314 45.1847 25.7327 44.4944 25.7335C44.1605 25.7339 43.8267 25.7344 43.4928 25.7353C43.2019 25.736 42.911 25.7365 42.62 25.7367C42.4659 25.7368 42.3119 25.737 42.1578 25.7376C42.0128 25.7381 41.8678 25.7383 41.7228 25.7382C41.6695 25.7382 41.6163 25.7383 41.5631 25.7386C41.4904 25.739 41.4178 25.7389 41.3451 25.7387C41.2841 25.7388 41.2841 25.7388 41.2218 25.7389C41.1029 25.7282 41.0514 25.7121 40.9686 25.653C40.9542 25.5772 40.9494 25.5108 40.9511 25.435C40.951 25.4126 40.9509 25.3903 40.9509 25.3673C40.9508 25.2929 40.9518 25.2185 40.9527 25.1441C40.9529 25.0916 40.9531 25.0392 40.9531 24.9867C40.9535 24.8476 40.9548 24.7085 40.9562 24.5694C40.9572 24.459 40.9575 24.3485 40.9578 24.2381C40.9592 23.7279 40.9647 23.2178 40.9812 22.7078C40.9825 22.6654 40.9838 22.623 40.9849 22.5807C40.9865 22.5231 40.9885 22.4655 40.9907 22.408C40.9918 22.3758 40.9929 22.3436 40.994 22.3104C41.0141 22.1823 41.0938 22.1791 41.264 22.1781Z" fill="#6D28D9"/>
<path d="M60.7076 22.1755C60.7485 22.1753 60.7895 22.1751 60.8317 22.1749C60.8765 22.1751 60.9213 22.1753 60.9675 22.1755C61.0384 22.1754 61.0384 22.1754 61.1108 22.1752C61.2404 22.175 61.37 22.1752 61.4996 22.1756C61.6353 22.1759 61.7709 22.1758 61.9065 22.1757C62.1342 22.1757 62.3619 22.176 62.5897 22.1764C62.853 22.177 63.1164 22.1771 63.3797 22.1769C63.633 22.1768 63.8863 22.1769 64.1396 22.1772C64.2474 22.1773 64.3553 22.1773 64.4631 22.1773C64.6136 22.1772 64.764 22.1776 64.9145 22.178C64.9593 22.1779 65.0042 22.1779 65.0504 22.1778C65.0913 22.178 65.1322 22.1782 65.1743 22.1784C65.2277 22.1784 65.2277 22.1784 65.2821 22.1785C65.3714 22.185 65.3714 22.185 65.4829 22.236C65.4939 22.3116 65.4976 22.3819 65.4967 22.4576C65.4968 22.4809 65.497 22.5042 65.4971 22.5283C65.4974 22.6074 65.497 22.6865 65.4965 22.7656C65.4966 22.8225 65.4967 22.8795 65.4969 22.9365C65.4972 23.0938 65.4968 23.251 65.4963 23.4083C65.496 23.5604 65.4961 23.7125 65.4963 23.8646C65.4966 24.1765 65.4963 24.4883 65.4958 24.8001C65.4952 25.1105 65.4949 25.421 65.4949 25.7314C65.4949 25.7604 65.4949 25.7604 65.4949 25.79C65.4949 25.8686 65.4949 25.9471 65.4949 26.0257C65.4948 26.7436 65.4942 27.4615 65.4933 28.1794C65.4924 28.8519 65.4919 29.5244 65.4918 30.1969C65.4918 30.2175 65.4918 30.238 65.4918 30.2592C65.4918 30.3421 65.4917 30.425 65.4917 30.5078C65.4917 30.5492 65.4917 30.5905 65.4917 30.6318C65.4917 30.6731 65.4917 30.7143 65.4917 30.7556C65.4915 31.4221 65.4911 32.0885 65.4906 32.755C65.4905 32.9484 65.4904 33.1418 65.4903 33.3352C65.4901 33.8469 65.4897 34.3585 65.4888 34.8702C65.4888 34.8959 65.4888 34.8959 65.4888 34.9222C65.4866 36.2101 65.472 37.4978 65.4457 38.7855C65.491 38.7854 65.5362 38.7854 65.5829 38.7853C66.6567 38.7836 67.7305 38.7824 68.8043 38.7816C68.9364 38.7815 69.0685 38.7814 69.2006 38.7813C69.2269 38.7813 69.2532 38.7813 69.2803 38.7812C69.7064 38.7809 70.1325 38.7803 70.5587 38.7796C70.9957 38.7789 71.4328 38.7785 71.8698 38.7783C72.1154 38.7782 72.361 38.778 72.6065 38.7774C72.8375 38.7769 73.0684 38.7767 73.2993 38.7769C73.3843 38.7768 73.4692 38.7767 73.5542 38.7764C73.6698 38.776 73.7854 38.7761 73.901 38.7763C73.9349 38.7761 73.9688 38.7759 74.0038 38.7756C74.0501 38.7759 74.0501 38.7759 74.0974 38.7761C74.1241 38.7761 74.1508 38.776 74.1783 38.776C74.27 38.7884 74.3032 38.8119 74.36 38.862C74.3739 38.9246 74.3739 38.9246 74.3739 39.0004C74.3742 39.0292 74.3744 39.0579 74.3747 39.0875C74.3744 39.1191 74.3741 39.1506 74.3738 39.1832C74.374 39.2164 74.3741 39.2496 74.3742 39.2838C74.3746 39.375 74.3742 39.4661 74.3737 39.5572C74.3733 39.6526 74.3735 39.7479 74.3736 39.8432C74.3736 40.0033 74.3732 40.1634 74.3725 40.3235C74.3717 40.5086 74.3716 40.6938 74.3718 40.879C74.372 41.057 74.3718 41.235 74.3714 41.413C74.3712 41.4888 74.3712 41.5646 74.3713 41.6404C74.3713 41.7463 74.3708 41.8521 74.3702 41.9579C74.3703 42.0052 74.3703 42.0052 74.3705 42.0535C74.3702 42.0822 74.37 42.111 74.3697 42.1406C74.3696 42.1656 74.3695 42.1907 74.3695 42.2164C74.36 42.279 74.36 42.279 74.2857 42.3555C74.1639 42.3834 74.0751 42.3842 73.9468 42.3842C73.875 42.3843 73.875 42.3843 73.8017 42.3844C73.7482 42.3844 73.6948 42.3843 73.6413 42.3843C73.5848 42.3843 73.5282 42.3843 73.4717 42.3844C73.3159 42.3845 73.1601 42.3844 73.0043 42.3843C72.8364 42.3843 72.6685 42.3844 72.5007 42.3844C72.1717 42.3846 71.8426 42.3845 71.5136 42.3845C71.2463 42.3844 70.979 42.3844 70.7117 42.3844C70.6737 42.3844 70.6357 42.3844 70.5966 42.3844C70.5194 42.3844 70.4423 42.3845 70.3651 42.3845C69.6408 42.3845 68.9166 42.3844 68.1924 42.3843C67.5704 42.3842 66.9485 42.3842 66.3266 42.3843C65.605 42.3845 64.8834 42.3845 64.1618 42.3844C64.0849 42.3844 64.008 42.3844 63.9311 42.3844C63.8744 42.3844 63.8744 42.3844 63.8165 42.3844C63.5494 42.3844 63.2823 42.3844 63.0152 42.3845C62.6899 42.3846 62.3645 42.3845 62.0392 42.3844C61.8731 42.3843 61.707 42.3843 61.5408 42.3844C61.3889 42.3845 61.2371 42.3844 61.0852 42.3843C61.03 42.3843 60.9749 42.3843 60.9198 42.3843C60.8452 42.3844 60.7706 42.3843 60.696 42.3842C60.6545 42.3842 60.613 42.3842 60.5702 42.3842C60.4686 42.381 60.4686 42.381 60.3571 42.3555C60.3099 42.2907 60.3153 42.2457 60.3153 42.173C60.3152 42.1449 60.3151 42.1168 60.315 42.0879C60.3152 42.0411 60.3152 42.0411 60.3153 41.9933C60.3152 41.9603 60.3152 41.9273 60.3151 41.8933C60.315 41.8008 60.315 41.7084 60.3151 41.616C60.3152 41.5157 60.3151 41.4154 60.315 41.3151C60.3148 41.1158 60.3149 40.9164 60.315 40.717C60.3151 40.5511 60.3151 40.3851 60.315 40.2191C60.315 40.1952 60.315 40.1713 60.315 40.1466C60.315 40.0978 60.3149 40.049 60.3149 40.0002C60.3147 39.4217 60.3149 38.8433 60.3152 38.2648C60.3153 38.0731 60.3154 37.8814 60.3155 37.6897C60.3161 36.1591 60.3174 34.6285 60.3193 33.0979C60.3198 32.6722 60.3202 32.2465 60.3206 31.8208C60.3219 30.4734 60.3237 29.1259 60.327 27.7785C60.3272 27.6638 60.3275 27.5491 60.3278 27.4343C60.3279 27.3919 60.3279 27.3919 60.328 27.3487C60.329 26.921 60.3296 26.4933 60.33 26.0657C60.3305 25.579 60.3315 25.0923 60.3332 24.6056C60.3341 24.3326 60.3346 24.0595 60.3345 23.7865C60.3345 23.6042 60.3351 23.4219 60.3361 23.2396C60.3366 23.1355 60.3369 23.0314 60.3366 22.9273C60.3363 22.8327 60.3366 22.7382 60.3375 22.6436C60.3379 22.5932 60.3374 22.5428 60.337 22.4925C60.3374 22.4629 60.3378 22.4332 60.3383 22.4027C60.3383 22.3771 60.3384 22.3515 60.3385 22.3251C60.3571 22.2615 60.3571 22.2615 60.4267 22.215C60.5264 22.1772 60.5938 22.1755 60.7076 22.1755Z" fill="#6D28D9"/>
<path d="M34.0686 22.1784C34.1098 22.1782 34.151 22.178 34.1934 22.1778C34.2388 22.1779 34.2842 22.1779 34.331 22.178C34.4025 22.1778 34.4025 22.1778 34.4754 22.1776C34.6063 22.1773 34.7373 22.1773 34.8682 22.1773C34.9774 22.1773 35.0866 22.1772 35.1958 22.1771C35.4533 22.1768 35.7109 22.1768 35.9685 22.177C36.2344 22.1771 36.5003 22.1768 36.7663 22.1763C36.9944 22.1758 37.2225 22.1757 37.4506 22.1757C37.587 22.1758 37.7233 22.1757 37.8596 22.1754C38.0116 22.175 38.1636 22.1752 38.3156 22.1755C38.3609 22.1753 38.4063 22.1751 38.453 22.1749C38.4943 22.1751 38.5356 22.1753 38.5781 22.1755C38.632 22.1755 38.632 22.1755 38.6871 22.1755C38.7972 22.1871 38.8227 22.2006 38.8886 22.2615C38.9026 22.3291 38.9026 22.3291 38.9029 22.4126C38.9032 22.4444 38.9036 22.4762 38.9039 22.509C38.9038 22.5445 38.9036 22.5801 38.9034 22.6156C38.9036 22.6533 38.9038 22.691 38.9041 22.7287C38.9048 22.833 38.9048 22.9373 38.9046 23.0415C38.9046 23.1545 38.9052 23.2675 38.9058 23.3806C38.9066 23.5785 38.9071 23.7764 38.9072 23.9744C38.9075 24.2675 38.9083 24.5607 38.9093 24.8539C38.9112 25.4046 38.9123 25.9554 38.9132 26.5062C38.9139 26.9297 38.9147 27.3531 38.9158 27.7766C38.9159 27.8372 38.9161 27.8978 38.9162 27.9585C38.9164 28.0497 38.9167 28.1409 38.9169 28.2321C38.9196 29.3542 38.9216 30.4764 38.9234 31.5985C38.9248 32.5381 38.9268 33.4778 38.9294 34.4174C38.9321 35.4086 38.9343 36.3999 38.9358 37.3911C38.936 37.4948 38.9361 37.5984 38.9363 37.7021C38.9363 37.7403 38.9363 37.7403 38.9364 37.7793C38.937 38.1638 38.9379 38.5484 38.9391 38.9329C38.9404 39.3678 38.9412 39.8027 38.9412 40.2376C38.9413 40.4796 38.9418 40.7215 38.9428 40.9635C38.9435 41.1241 38.9436 41.2847 38.9433 41.4454C38.9431 41.5368 38.9432 41.6283 38.9439 41.7198C38.9447 41.8179 38.9443 41.9161 38.9438 42.0142C38.9442 42.0429 38.9446 42.0715 38.9451 42.1011C38.9447 42.127 38.9444 42.153 38.9441 42.1797C38.9441 42.2022 38.9442 42.2246 38.9442 42.2477C38.9257 42.3045 38.9257 42.3045 38.8561 42.35C38.7564 42.3891 38.6902 42.3906 38.5756 42.3906C38.5346 42.3907 38.4937 42.3909 38.4515 42.3911C38.4068 42.3909 38.3621 42.3907 38.316 42.3905C38.2687 42.3906 38.2215 42.3907 38.1728 42.3908C38.0434 42.391 37.9139 42.3908 37.7844 42.3904C37.6489 42.3902 37.5134 42.3903 37.3779 42.3903C37.1504 42.3903 36.9228 42.3901 36.6952 42.3896C36.4322 42.389 36.1691 42.389 35.9061 42.3891C35.653 42.3893 35.3999 42.3891 35.1468 42.3888C35.0391 42.3887 34.9314 42.3887 34.8237 42.3887C34.6733 42.3888 34.523 42.3884 34.3726 42.388C34.3055 42.3881 34.3055 42.3881 34.237 42.3882C34.1961 42.388 34.1552 42.3878 34.113 42.3877C34.0775 42.3876 34.0419 42.3876 34.0053 42.3875C33.9068 42.3807 33.8491 42.3617 33.7629 42.33C33.7622 40.6683 33.7616 39.0066 33.7613 37.3449C33.7613 37.3078 33.7613 37.3078 33.7613 37.2699C33.7612 36.7319 33.7611 36.1938 33.761 35.6558C33.7609 35.3918 33.7609 35.1278 33.7608 34.8638C33.7608 34.8376 33.7608 34.8113 33.7608 34.7842C33.7606 33.9384 33.7604 33.0926 33.76 32.2467C33.7597 31.3749 33.7594 30.5031 33.7594 29.6313C33.7594 29.5071 33.7593 29.383 33.7593 29.2588C33.7593 29.2344 33.7593 29.21 33.7593 29.1848C33.7593 28.8449 33.7592 28.5049 33.759 28.165C33.7569 24.5742 33.7569 24.5742 33.776 23.2171C33.777 23.1432 33.7779 23.0694 33.7787 22.9955C33.78 22.8849 33.7817 22.7742 33.7837 22.6636C33.7844 22.6244 33.7849 22.5852 33.7854 22.546C33.786 22.4938 33.7871 22.4417 33.7882 22.3895C33.7887 22.3608 33.7892 22.3321 33.7897 22.3026C33.8094 22.1752 33.9066 22.1786 34.0686 22.1784Z" fill="#6D28D9"/>
</svg>
