<svg width="32" height="32" viewBox="0 0 32 32" fill="none" xmlns="http://www.w3.org/2000/svg">
<g clip-path="url(#clip0_546_6428)">
<path d="M16 32C24.8366 32 32 24.8366 32 16C32 7.16344 24.8366 0 16 0C7.16344 0 0 7.16344 0 16C0 24.8366 7.16344 32 16 32Z" fill="white"/>
<path d="M32.0005 16C32.0005 9.65665 28.309 4.17565 22.957 1.58765V30.4123C28.309 27.8244 32.0005 22.3434 32.0005 16Z" fill="#D80027"/>
<path d="M0 16C0 22.3434 3.69156 27.8244 9.0435 30.4124V1.58765C3.69156 4.17565 0 9.65665 0 16Z" fill="#D80027"/>
<path d="M18.7834 18.0869L21.5659 16.6956L20.1747 15.9999V14.6086L17.392 15.9999L18.7834 13.2173H17.392L16.0007 11.1304L14.6094 13.2173H13.2181L14.6094 15.9999L11.8268 14.6086V15.9999L10.4355 16.6956L13.2181 18.0869L12.5225 19.4782H15.3051V21.5651H16.6964V19.4782H19.479L18.7834 18.0869Z" fill="#D80027"/>
</g>
<defs>
<clipPath id="clip0_546_6428">
<rect width="32" height="32" fill="white"/>
</clipPath>
</defs>
</svg>
