<svg width="32" height="32" viewBox="0 0 32 32" fill="none" xmlns="http://www.w3.org/2000/svg">
<g clip-path="url(#clip0_546_7350)">
<path d="M16 0C24.8366 0 32 7.16344 32 16C32 24.8366 24.8366 32 16 32C7.16344 32 0 24.8366 0 16C0 7.16344 7.16344 0 16 0Z" fill="#0052B4"/>
<path d="M16.001 25.739L16.5191 24.1447H18.1953L16.8391 23.1594L17.3572 21.5651L16.001 22.5505L14.6448 21.5651L15.1628 23.1594L13.8066 24.1447H15.483L16.001 25.739Z" fill="#FFDA44"/>
<path d="M9.11559 22.8865L10.6093 22.1255L11.7947 23.3108L11.5323 21.6552L13.026 20.8941L11.3703 20.6319L11.1081 18.9761L10.347 20.4698L8.69141 20.2075L9.87672 21.3928L9.11559 22.8865Z" fill="#FFDA44"/>
<path d="M6.26172 16L7.85603 16.518V18.1943L8.84128 16.8381L10.4357 17.3561L9.45022 16L10.4357 14.6438L8.84128 15.1618L7.85603 13.8056V15.4819L6.26172 16Z" fill="#FFDA44"/>
<path d="M9.11559 9.11331L9.87666 10.6071L8.69141 11.7924L10.3471 11.53L11.108 13.0237L11.3703 11.368L13.026 11.1057L11.5325 10.3447L11.7947 8.68906L10.6093 9.87437L9.11559 9.11331Z" fill="#FFDA44"/>
<path d="M16.001 6.26076L15.4829 7.85507H13.8066L15.1629 8.84038L14.6448 10.4346L16.001 9.44932L17.3572 10.4346L16.8391 8.84038L18.1953 7.85507H16.519L16.001 6.26076Z" fill="#FFDA44"/>
<path d="M22.8869 9.11331L21.3932 9.87431L20.2078 8.68899L20.4701 10.3447L18.9766 11.1057L20.6322 11.368L20.8944 13.0237L21.6554 11.53L23.3111 11.7924L22.1257 10.6069L22.8869 9.11331Z" fill="#FFDA44"/>
<path d="M25.7402 16L24.1459 15.4819V13.8056L23.1606 15.1618L21.5664 14.6438L22.5517 16L21.5664 17.3561L23.1607 16.8381L24.1459 18.1943V16.518L25.7402 16Z" fill="#FFDA44"/>
<path d="M22.8869 22.8866L22.1258 21.3929L23.3111 20.2075L21.6554 20.4699L20.8944 18.9762L20.6322 20.6319L18.9766 20.8942L20.4701 21.6552L20.2078 23.3108L21.3932 22.1255L22.8869 22.8866Z" fill="#FFDA44"/>
</g>
<defs>
<clipPath id="clip0_546_7350">
<rect width="32" height="32" fill="white" transform="matrix(1 0 0 -1 0 32)"/>
</clipPath>
</defs>
</svg>
