<svg width="32" height="32" viewBox="0 0 32 32" fill="none" xmlns="http://www.w3.org/2000/svg">
<path d="M32 16C32 24.8366 24.8366 32 16 32C7.16344 32 0 24.8366 0 16C0 7.16344 7.16344 0 16 0C24.8366 0 32 7.16344 32 16Z" fill="#0052B5"/>
<path d="M12 8.8V0.50407C12.6515 0.336377 13.3191 0.208692 14 0.123787C14.6552 0.0420867 15.3227 0 16 0C16.6773 0 17.3448 0.0420867 18 0.123787C18.6809 0.208692 19.3485 0.336378 20 0.50407V11L26.8 4.19478C27.533 4.86575 28.6022 6.20409 29.2 7L24 12H31.4959C31.6636 12.6515 31.7913 13.3191 31.8762 14C31.9579 14.6552 32 15.3227 32 16C32 16.6773 31.9579 17.3448 31.8762 18C31.7913 18.6809 31.6636 19.3485 31.4959 20H22.8L28.8012 25.6C27.9411 26.745 26.931 27.7709 25.8 28.6485L20 22.8V31.4959C19.3485 31.6636 18.6809 31.7913 18 31.8762C17.3448 31.9579 16.6773 32 16 32C15.3227 32 14.6552 31.9579 14 31.8762C13.3191 31.7913 12.6515 31.6636 12 31.4959L12 21.2L5.4 27.9852C4.50492 27.193 3.69923 26.3021 3 25.3295L8.8 20H0.50407C0.336378 19.3485 0.208693 18.6809 0.123788 18C0.042087 17.3448 0 16.6773 0 16C0 15.3227 0.0420867 14.6552 0.123787 14C0.208692 13.3191 0.336377 12.6515 0.50407 12H9L3.2 6.39844C4.08772 5.21689 5.13524 4.16224 6.31046 3.26658L12 8.8Z" fill="white"/>
<path d="M12 12L4.69797 4.67462C4.31185 5.05995 3.94532 5.4649 3.6 5.88784L10 12H12Z" fill="#D90026"/>
<path d="M20 12L27.302 4.67462C27.6881 5.05995 28.0547 5.46489 28.4 5.88783L22 12H20Z" fill="#D90026"/>
<path d="M20 20.1373L27.302 27.4627C27.6882 27.0774 28.0547 26.6724 28.4 26.2495L22 20.1373H20Z" fill="#D90026"/>
<path d="M12 20.1373L4.69797 27.4627C4.31185 27.0774 3.94532 26.6724 3.6 26.2495L10 20.1373H12Z" fill="#D90026"/>
<path d="M0.123787 14C0.0420867 14.6552 0 15.3227 0 16C0 16.6773 0.042087 17.3448 0.123788 18H14V31.8762C14.6552 31.9579 15.3227 32 16 32C16.6773 32 17.3448 31.9579 18 31.8762V18H31.8762C31.9579 17.3448 32 16.6773 32 16C32 15.3227 31.9579 14.6552 31.8762 14H18V0.123787C17.2171 0.00602657 16.8157 0 16 0C15.3227 0 14.6552 0.0420867 14 0.123787V14H0.123787Z" fill="#D90026"/>
</svg>
