<svg width="32" height="32" viewBox="0 0 32 32" fill="none" xmlns="http://www.w3.org/2000/svg">
<circle cx="16" cy="16" r="16" fill="#95CD58"/>
<g clip-path="url(#clip0_27562_102231)">
<path d="M15.3834 23.6772C10.8428 17.0947 10 16.4192 10 14C10 10.6863 12.6863 8 16 8C19.3137 8 22 10.6863 22 14C22 16.4192 21.1572 17.0947 16.6166 23.6772C16.3187 24.1076 15.6813 24.1076 15.3834 23.6772ZM16 16.5C17.3807 16.5 18.5 15.3807 18.5 14C18.5 12.6193 17.3807 11.5 16 11.5C14.6193 11.5 13.5 12.6193 13.5 14C13.5 15.3807 14.6193 16.5 16 16.5Z" fill="white"/>
</g>
<defs>
<clipPath id="clip0_27562_102231">
<rect width="16" height="16" fill="white" transform="translate(8 8)"/>
</clipPath>
</defs>
</svg>
