<svg width="94" height="81" viewBox="0 0 94 81" fill="none" xmlns="http://www.w3.org/2000/svg">
<path opacity="0.7" d="M20.4136 15.9461C20.4136 15.9461 7.41672 25.7959 2.57969 37.9678C-2.25734 50.1398 1.44404 63.7824 12.6323 72.2777C23.8206 80.7729 40.4137 76.0705 56.0394 79.7666C71.6651 83.4627 86.9964 79.0313 90.5506 63.9566C94.1047 48.882 82.8534 45.747 77.4906 30.1886C72.1278 14.6302 51.4968 -5.63063 20.4136 15.9461Z" fill="#D3EFE7"/>
<path d="M70.2797 66.5582H22.0508V3.13281H55.9144L70.2797 16.0512V66.5582Z" fill="#373C45"/>
<path d="M73.0844 64.4085H24.8555V1H58.7191L73.0844 13.9184V64.4085Z" fill="#6CCBAF" stroke="#373C45" stroke-linecap="round" stroke-linejoin="round"/>
<path d="M58.7209 1L55.207 16.1673L73.0862 13.9184L58.7209 1Z" fill="#373C45" stroke="#373C45" stroke-linecap="round" stroke-linejoin="round"/>
<path d="M58.7188 1V13.9184H73.0841L58.7188 1Z" fill="white" stroke="#373C45" stroke-linecap="round" stroke-linejoin="round"/>
<path d="M34.0938 23.2344H61.5842" stroke="#373C45" stroke-linecap="round" stroke-linejoin="round"/>
<path d="M34.0938 29.8438H61.5842" stroke="#373C45" stroke-linecap="round" stroke-linejoin="round"/>
<path d="M34.0938 36.457H61.5842" stroke="#373C45" stroke-linecap="round" stroke-linejoin="round"/>
<path d="M34.0938 43.0703H61.5842" stroke="#373C45" stroke-linecap="round" stroke-linejoin="round"/>
<path d="M34.0938 49.6953H61.5842" stroke="#373C45" stroke-linecap="round" stroke-linejoin="round"/>
</svg>
