<svg width="300" height="151" viewBox="0 0 300 151" fill="none" xmlns="http://www.w3.org/2000/svg">
<path d="M276.218 54.8701C262.902 42.1683 243.919 32.1085 224.864 25.7255C208.405 20.2133 189.9 17.4602 171.984 20.3741C158.043 22.6421 144.879 26.7893 132.002 31.2259C123.498 34.1485 114.954 37.0186 106.51 40.0523C98.412 42.9749 90.4578 46.979 81.7587 48.8407C67.069 51.9855 51.28 50.0887 36.7496 53.6894C25.0672 56.5828 16.0893 62.4953 11.4091 70.933C-0.464491 92.2947 7.09544 123.497 35.2201 136.526C61.0784 148.509 92.6963 152.457 122.797 149.622C134.535 148.518 145.528 145.697 157.083 144.049C173.705 141.682 190.493 142.018 207.143 144.02C223.657 146.007 242.118 149.33 258.031 143.859C272.318 138.946 280.699 128.246 286.813 118.049C299.519 96.8569 295.337 73.1075 276.218 54.8701Z" fill="#6CCBAF"/>
<path opacity="0.7" d="M276.218 54.8701C262.902 42.1683 243.919 32.1085 224.864 25.7255C208.405 20.2133 189.9 17.4602 171.984 20.3741C158.043 22.6421 144.879 26.7893 132.002 31.2259C123.498 34.1485 114.954 37.0186 106.51 40.0523C98.412 42.9749 90.4578 46.979 81.7587 48.8407C67.069 51.9855 51.28 50.0887 36.7496 53.6894C25.0672 56.5828 16.0893 62.4953 11.4091 70.933C-0.464491 92.2947 7.09544 123.497 35.2201 136.526C61.0784 148.509 92.6963 152.457 122.797 149.622C134.535 148.518 145.528 145.697 157.083 144.049C173.705 141.682 190.493 142.018 207.143 144.02C223.657 146.007 242.118 149.33 258.031 143.859C272.318 138.946 280.699 128.246 286.813 118.049C299.519 96.8569 295.337 73.1075 276.218 54.8701Z" fill="white"/>
<path d="M181.8 136.565H100.973C98.5319 136.565 96.5119 134.429 96.4721 131.801C96.1079 110.544 95.0439 40.956 96.5802 37.9533C97.4849 36.1857 100.034 34.9224 102.504 33.7043C104.973 32.4862 107.477 31.2455 108.148 29.6025C108.855 27.564 109.125 25.4004 108.939 23.2516V22.957H173.806V23.2516C173.626 25.4099 173.905 27.5816 174.625 29.6252C175.297 31.2682 177.823 32.5145 180.27 33.7269C182.717 34.9393 185.288 36.2084 186.193 37.976C187.729 40.9787 186.665 110.567 186.301 131.823C186.256 134.435 184.241 136.565 181.8 136.565ZM109.537 23.5236C109.679 25.6592 109.38 27.8012 108.66 29.8178C107.903 31.6534 105.394 32.8941 102.743 34.2085C100.358 35.3926 97.8889 36.6106 97.0525 38.2139C95.8803 40.4801 96.2559 88.0695 97.007 131.789C97.0468 134.112 98.8107 135.999 100.939 135.999H181.8C183.929 135.999 185.692 134.112 185.732 131.789C186.483 88.0581 186.87 40.5084 185.687 38.2139C184.867 36.6106 182.398 35.3812 179.997 34.2085C177.345 32.8941 174.836 31.6534 174.079 29.8178C173.37 27.7988 173.084 25.6569 173.237 23.5236H109.537Z" fill="#373C45"/>
<path d="M174.006 12.1027H109.219V2.30726C109.219 1.82795 109.41 1.36826 109.75 1.02933C110.091 0.690406 110.552 0.5 111.034 0.5H172.191C172.672 0.5 173.134 0.690406 173.474 1.02933C173.815 1.36826 174.006 1.82795 174.006 2.30726V12.1027ZM109.788 11.5362H173.437V2.30726C173.437 1.9782 173.306 1.66262 173.072 1.42994C172.838 1.19726 172.521 1.06654 172.191 1.06654H111.034C110.703 1.06654 110.386 1.19726 110.153 1.42994C109.919 1.66262 109.788 1.9782 109.788 2.30726V11.5362Z" fill="#373C45"/>
<path d="M176.109 23.5235H107.492C107.039 23.5235 106.605 23.3445 106.285 23.0257C105.965 22.707 105.785 22.2747 105.785 21.8239V13.2465C105.785 12.7957 105.965 12.3634 106.285 12.0447C106.605 11.7259 107.039 11.5469 107.492 11.5469H176.109C176.561 11.5469 176.996 11.7259 177.316 12.0447C177.636 12.3634 177.816 12.7957 177.816 13.2465V21.8126C177.817 22.0367 177.774 22.259 177.689 22.4665C177.604 22.674 177.479 22.8627 177.32 23.0217C177.161 23.1808 176.972 23.307 176.765 23.3931C176.557 23.4792 176.334 23.5235 176.109 23.5235ZM107.492 12.1021C107.19 12.1021 106.901 12.2215 106.687 12.434C106.474 12.6465 106.354 12.9347 106.354 13.2352V21.8013C106.354 22.1018 106.474 22.39 106.687 22.6025C106.901 22.815 107.19 22.9343 107.492 22.9343H176.109C176.411 22.9343 176.7 22.815 176.913 22.6025C177.127 22.39 177.247 22.1018 177.247 21.8013V13.2465C177.247 12.946 177.127 12.6578 176.913 12.4453C176.7 12.2328 176.411 12.1134 176.109 12.1134L107.492 12.1021Z" fill="#373C45"/>
<path d="M181.413 84.8177H180.844C180.844 84.8177 180.844 82.3759 180.889 78.6934H181.458C181.436 82.3759 181.413 84.8177 181.413 84.8177Z" fill="#373C45"/>
<path d="M181.477 75.7359H180.908C180.971 64.9377 181.045 46.5648 180.852 44.7972C180.658 43.0295 177.716 41.075 174.592 39.0241C173.836 38.5256 173.062 38.01 172.316 37.4831L172.669 36.9902C173.432 37.5171 174.206 38.027 174.945 38.5256C178.302 40.7407 181.204 42.6613 181.432 44.7065C181.608 46.4345 181.551 62.5299 181.477 75.7359Z" fill="#373C45"/>
<path d="M169.662 35.2397C167.181 32.186 167.175 27.801 167.227 26.6056H127.715V26.0391H167.847V26.345C167.847 26.396 167.449 31.5685 170.123 34.8827L169.662 35.2397Z" fill="#373C45"/>
<path d="M124.341 26.0391H115.727V26.6056H124.341V26.0391Z" fill="#373C45"/>
<path d="M175.565 13.5813L107.672 21.0801L107.735 21.6432L175.627 14.1444L175.565 13.5813Z" fill="#373C45"/>
<path d="M175.275 17.1779L144.816 21.1602L144.89 21.721L175.349 17.7388L175.275 17.1779Z" fill="#373C45"/>
<path d="M262.735 136.564H195.571C193.542 136.564 191.864 134.79 191.831 132.605C191.528 114.942 190.644 57.1166 191.92 54.6215C192.672 53.1527 194.79 52.1029 196.843 51.0907C198.895 50.0786 200.975 49.0476 201.533 47.6823C202.121 45.9884 202.345 44.1905 202.19 42.405V42.1602H256.092V42.405C255.943 44.1984 256.175 46.003 256.773 47.7012C257.331 49.0664 259.43 50.1021 261.463 51.1096C263.497 52.117 265.634 53.1716 266.385 54.6404C267.662 57.1355 266.778 114.961 266.475 132.624C266.438 134.794 264.764 136.564 262.735 136.564ZM202.687 42.6309C202.805 44.4056 202.557 46.1855 201.958 47.8612C201.33 49.3865 199.244 50.4175 197.041 51.5097C195.06 52.4936 193.008 53.5058 192.313 54.8381C191.339 56.7212 191.651 96.2662 192.275 132.596C192.308 134.526 193.774 136.094 195.542 136.094H262.735C264.504 136.094 265.969 134.526 266.003 132.596C266.627 96.2568 266.948 56.7447 265.965 54.8381C265.284 53.5058 263.232 52.4842 261.236 51.5097C259.033 50.4175 256.948 49.3865 256.319 47.8612C255.73 46.1835 255.492 44.4036 255.619 42.6309H202.687Z" fill="#373C45"/>
<path d="M256.258 33.1415H202.422V25.0018C202.422 24.6035 202.581 24.2215 202.864 23.9399C203.147 23.6582 203.53 23.5 203.93 23.5H254.749C255.149 23.5 255.533 23.6582 255.816 23.9399C256.099 24.2215 256.258 24.6035 256.258 25.0018V33.1415ZM202.895 32.6707H255.785V25.0018C255.785 24.7283 255.676 24.4661 255.482 24.2727C255.287 24.0794 255.024 23.9708 254.749 23.9708H203.93C203.656 23.9708 203.392 24.0794 203.198 24.2727C203.004 24.4661 202.895 24.7283 202.895 25.0018V32.6707Z" fill="#373C45"/>
<path d="M258.007 42.6319H200.989C200.613 42.6319 200.252 42.4831 199.986 42.2182C199.72 41.9533 199.57 41.5941 199.57 41.2195V34.092C199.57 33.7174 199.72 33.3582 199.986 33.0933C200.252 32.8285 200.613 32.6797 200.989 32.6797H258.007C258.383 32.6797 258.744 32.8285 259.01 33.0933C259.276 33.3582 259.425 33.7174 259.425 34.092V41.2101C259.426 41.3964 259.391 41.581 259.32 41.7535C259.249 41.9259 259.145 42.0827 259.013 42.2149C258.881 42.347 258.724 42.4519 258.552 42.5234C258.379 42.595 258.194 42.6319 258.007 42.6319ZM200.989 33.1411C200.738 33.1411 200.497 33.2402 200.32 33.4168C200.143 33.5934 200.043 33.8329 200.043 34.0826V41.2007C200.043 41.4504 200.143 41.6899 200.32 41.8665C200.497 42.043 200.738 42.1422 200.989 42.1422H258.007C258.257 42.1422 258.498 42.043 258.675 41.8665C258.853 41.6899 258.952 41.4504 258.952 41.2007V34.092C258.952 33.8423 258.853 33.6028 258.675 33.4262C258.498 33.2497 258.257 33.1505 258.007 33.1505L200.989 33.1411Z" fill="#373C45"/>
<path d="M262.414 93.5656H261.941C261.941 93.5656 261.941 91.5366 261.979 88.4766H262.452C262.433 91.5366 262.414 93.5656 262.414 93.5656Z" fill="#373C45"/>
<path d="M262.468 86.0185H261.995C262.047 77.0456 262.109 61.7783 261.948 60.3095C261.787 58.8407 259.343 57.2165 256.747 55.5123C256.118 55.0981 255.475 54.6697 254.855 54.2318L255.149 53.8223C255.782 54.2601 256.425 54.6838 257.04 55.0981C259.83 56.9388 262.241 58.5347 262.43 60.2342C262.577 61.6701 262.529 75.0448 262.468 86.0185Z" fill="#373C45"/>
<path d="M252.65 52.368C250.588 49.8305 250.583 46.1868 250.626 45.1934H217.793V44.7227H251.141V44.9769C251.141 45.0192 250.81 49.3174 253.033 52.0714L252.65 52.368Z" fill="#373C45"/>
<path d="M214.991 44.7227H207.832V45.1934H214.991V44.7227Z" fill="#373C45"/>
<path d="M257.553 34.3704L201.137 40.6016L201.189 41.0695L257.605 34.8383L257.553 34.3704Z" fill="#373C45"/>
<path d="M257.314 37.3589L232.004 40.668L232.065 41.134L257.375 37.8249L257.314 37.3589Z" fill="#373C45"/>
<path d="M252.869 131.021V135.237C252.869 135.767 245.623 136.176 236.686 136.176C227.748 136.176 220.508 135.757 220.508 135.237V131.021H252.869Z" fill="#6CCBAF"/>
<path d="M236.684 136.442C232.358 136.442 228.292 136.341 225.23 136.166C220.262 135.869 220.262 135.55 220.262 135.237V131.027C220.262 130.957 220.289 130.889 220.336 130.839C220.384 130.79 220.449 130.762 220.516 130.762H252.872C252.94 130.762 253.005 130.79 253.052 130.839C253.1 130.889 253.127 130.957 253.127 131.027V135.237C253.127 135.55 253.127 135.879 248.144 136.166C245.081 136.341 241.01 136.442 236.684 136.442ZM220.771 135.125C221.607 135.513 228.037 135.911 236.694 135.911C245.351 135.911 251.787 135.513 252.622 135.125V131.293H220.771V135.125Z" fill="#373C45"/>
<path d="M220.504 131.022C220.504 131.553 227.75 131.962 236.682 131.962C245.614 131.962 252.865 131.542 252.865 131.022C252.865 130.502 245.619 130.088 236.682 130.088C227.744 130.088 220.504 130.507 220.504 131.022Z" fill="#6CCBAF"/>
<path d="M236.683 132.227C232.357 132.227 228.291 132.132 225.228 131.951C220.25 131.664 220.25 131.341 220.25 131.027C220.25 130.714 220.25 130.385 225.228 130.098C228.285 129.918 232.362 129.822 236.683 129.822C241.003 129.822 245.08 129.918 248.137 130.098C253.12 130.385 253.12 130.709 253.12 131.027C253.12 131.346 253.12 131.664 248.137 131.951C245.08 132.153 241.009 132.227 236.683 132.227ZM221.147 131.027C222.844 131.372 228.851 131.696 236.683 131.696C244.514 131.696 250.527 131.372 252.218 131.027C250.527 130.677 244.519 130.353 236.683 130.353C228.846 130.353 222.844 130.677 221.147 131.027Z" fill="#373C45"/>
<path d="M224.254 130.905C224.254 131.239 229.818 131.504 236.682 131.504C243.545 131.504 249.109 131.239 249.109 130.905C249.109 130.57 243.545 130.305 236.682 130.305C229.818 130.305 224.254 130.56 224.254 130.905Z" fill="#6CCBAF"/>
<path d="M236.682 131.77C233.36 131.77 230.237 131.711 227.883 131.595C224 131.409 224 131.207 224 130.904C224 130.602 224 130.405 227.883 130.214C230.237 130.103 233.36 130.039 236.682 130.039C240.005 130.039 243.133 130.103 245.482 130.214C249.365 130.405 249.365 130.602 249.365 130.904C249.365 131.207 249.365 131.435 245.482 131.595C243.133 131.711 240.01 131.77 236.682 131.77ZM225.473 130.904C227.327 131.09 231.368 131.239 236.682 131.239C241.997 131.239 246.017 131.09 247.867 130.904C246.017 130.724 241.976 130.57 236.682 130.57C231.388 130.57 227.353 130.724 225.498 130.904H225.473Z" fill="#373C45"/>
<path d="M222.118 135.034C222.05 135.034 221.986 135.006 221.938 134.956C221.89 134.906 221.863 134.839 221.863 134.769V131.504C221.863 131.433 221.89 131.366 221.938 131.316C221.986 131.266 222.05 131.238 222.118 131.238C222.186 131.238 222.25 131.266 222.298 131.316C222.346 131.366 222.373 131.433 222.373 131.504V134.769C222.373 134.839 222.346 134.906 222.298 134.956C222.25 135.006 222.186 135.034 222.118 135.034Z" fill="#373C45"/>
<path d="M224.427 135.555C224.359 135.555 224.294 135.527 224.247 135.477C224.199 135.427 224.172 135.36 224.172 135.289V131.849C224.172 131.779 224.199 131.712 224.247 131.662C224.294 131.612 224.359 131.584 224.427 131.584C224.494 131.584 224.559 131.612 224.607 131.662C224.655 131.712 224.681 131.779 224.681 131.849V135.289C224.681 135.36 224.655 135.427 224.607 135.477C224.559 135.527 224.494 135.555 224.427 135.555Z" fill="#373C45"/>
<path d="M227.903 134.865C227.836 134.865 227.771 134.837 227.723 134.787C227.675 134.737 227.648 134.67 227.648 134.599V131.945C227.648 131.875 227.675 131.807 227.723 131.757C227.771 131.708 227.836 131.68 227.903 131.68C227.971 131.68 228.036 131.708 228.083 131.757C228.131 131.807 228.158 131.875 228.158 131.945V134.599C228.158 134.67 228.131 134.737 228.083 134.787C228.036 134.837 227.971 134.865 227.903 134.865Z" fill="#373C45"/>
<path d="M232.434 136.239C232.367 136.239 232.302 136.211 232.254 136.162C232.207 136.112 232.18 136.044 232.18 135.974V133.654C232.18 133.584 232.207 133.516 232.254 133.466C232.302 133.417 232.367 133.389 232.434 133.389C232.502 133.389 232.567 133.417 232.615 133.466C232.662 133.516 232.689 133.584 232.689 133.654V135.974C232.689 136.044 232.662 136.112 232.615 136.162C232.567 136.211 232.502 136.239 232.434 136.239Z" fill="#373C45"/>
<path d="M237.302 136.501C237.234 136.501 237.169 136.473 237.121 136.423C237.074 136.373 237.047 136.306 237.047 136.235V133.31C237.047 133.24 237.074 133.172 237.121 133.123C237.169 133.073 237.234 133.045 237.302 133.045C237.369 133.045 237.434 133.073 237.482 133.123C237.53 133.172 237.556 133.24 237.556 133.31V136.235C237.556 136.306 237.53 136.373 237.482 136.423C237.434 136.473 237.369 136.501 237.302 136.501Z" fill="#373C45"/>
<path d="M251.852 133.213C251.785 133.213 251.72 133.185 251.672 133.136C251.624 133.086 251.598 133.018 251.598 132.948V131.488C251.598 131.418 251.624 131.35 251.672 131.3C251.72 131.251 251.785 131.223 251.852 131.223C251.92 131.223 251.985 131.251 252.033 131.3C252.08 131.35 252.107 131.418 252.107 131.488V132.948C252.107 133.018 252.08 133.086 252.033 133.136C251.985 133.185 251.92 133.213 251.852 133.213Z" fill="#373C45"/>
<path d="M242.419 136.069C242.351 136.069 242.286 136.041 242.239 135.991C242.191 135.942 242.164 135.874 242.164 135.804V133.744C242.164 133.674 242.191 133.606 242.239 133.556C242.286 133.506 242.351 133.479 242.419 133.479C242.486 133.479 242.551 133.506 242.599 133.556C242.647 133.606 242.674 133.674 242.674 133.744V135.809C242.672 135.878 242.645 135.945 242.597 135.993C242.55 136.042 242.486 136.069 242.419 136.069Z" fill="#373C45"/>
<path d="M254.994 126.699V130.909C254.994 131.44 247.753 131.849 238.816 131.849C229.878 131.849 222.633 131.429 222.633 130.909V126.699H254.994Z" fill="#6CCBAF"/>
<path d="M238.817 132.114C234.491 132.114 230.419 132.013 227.362 131.838C222.379 131.551 222.379 131.222 222.379 130.909V126.699C222.379 126.629 222.406 126.561 222.454 126.511C222.501 126.462 222.566 126.434 222.634 126.434H254.994C255.062 126.434 255.127 126.462 255.175 126.511C255.222 126.561 255.249 126.629 255.249 126.699V130.909C255.249 131.222 255.249 131.551 250.271 131.838C247.209 132.013 243.143 132.114 238.817 132.114ZM222.888 130.803C223.724 131.185 230.154 131.583 238.817 131.583C247.479 131.583 253.904 131.185 254.74 130.803V126.964H222.888V130.803Z" fill="#373C45"/>
<path d="M222.633 126.7C222.633 127.231 229.878 127.634 238.816 127.634C247.753 127.634 254.994 127.215 254.994 126.7C254.994 126.185 247.773 125.781 238.816 125.781C229.858 125.781 222.633 126.179 222.633 126.7Z" fill="#6CCBAF"/>
<path d="M238.817 127.905C234.491 127.905 230.419 127.809 227.362 127.629C222.379 127.342 222.379 127.018 222.379 126.705C222.379 126.392 222.379 126.063 227.362 125.776C230.419 125.596 234.496 125.5 238.817 125.5C243.137 125.5 247.209 125.596 250.271 125.776C255.249 126.063 255.249 126.387 255.249 126.705C255.249 127.024 255.249 127.342 250.271 127.629C247.209 127.804 243.143 127.905 238.817 127.905ZM223.281 126.705C224.972 127.05 230.985 127.374 238.817 127.374C246.648 127.374 252.656 127.05 254.352 126.705C252.656 126.355 246.648 126.031 238.817 126.031C230.985 126.031 224.972 126.349 223.281 126.7V126.705Z" fill="#373C45"/>
<path d="M226.375 126.578C226.375 126.913 231.939 127.184 238.803 127.184C245.666 127.184 251.23 126.913 251.23 126.578C251.23 126.244 245.666 125.979 238.803 125.979C231.939 125.979 226.375 126.249 226.375 126.578Z" fill="#6CCBAF"/>
<path d="M238.815 127.444C235.493 127.444 232.364 127.385 230.015 127.268C226.133 127.083 226.133 126.881 226.133 126.578C226.133 126.276 226.133 126.079 230.015 125.888C232.364 125.777 235.493 125.713 238.815 125.713C242.137 125.713 245.261 125.777 247.615 125.888C251.498 126.079 251.498 126.276 251.498 126.578C251.498 126.881 251.498 127.083 247.615 127.268C245.261 127.374 242.137 127.444 238.815 127.444ZM227.631 126.578C229.48 126.764 233.521 126.913 238.815 126.913C244.109 126.913 248.15 126.764 250.025 126.578C248.175 126.398 244.13 126.244 238.815 126.244C233.501 126.244 229.48 126.398 227.631 126.578Z" fill="#373C45"/>
<path d="M224.247 130.713C224.179 130.713 224.115 130.685 224.067 130.635C224.019 130.586 223.992 130.518 223.992 130.448V127.178C223.992 127.107 224.019 127.04 224.067 126.99C224.115 126.94 224.179 126.912 224.247 126.912C224.315 126.912 224.379 126.94 224.427 126.99C224.475 127.04 224.502 127.107 224.502 127.178V130.448C224.502 130.518 224.475 130.586 224.427 130.635C224.379 130.685 224.315 130.713 224.247 130.713Z" fill="#373C45"/>
<path d="M226.563 131.229C226.496 131.229 226.431 131.201 226.383 131.151C226.335 131.101 226.309 131.034 226.309 130.963V127.523C226.309 127.453 226.335 127.385 226.383 127.336C226.431 127.286 226.496 127.258 226.563 127.258C226.631 127.258 226.696 127.286 226.744 127.336C226.791 127.385 226.818 127.453 226.818 127.523V130.963C226.817 131.033 226.79 131.1 226.742 131.149C226.695 131.199 226.631 131.227 226.563 131.229Z" fill="#373C45"/>
<path d="M230.028 130.558C229.961 130.558 229.896 130.53 229.848 130.48C229.8 130.431 229.773 130.363 229.773 130.293V127.638C229.773 127.568 229.8 127.501 229.848 127.451C229.896 127.401 229.961 127.373 230.028 127.373C230.096 127.373 230.161 127.401 230.208 127.451C230.256 127.501 230.283 127.568 230.283 127.638V130.293C230.283 130.363 230.256 130.431 230.208 130.48C230.161 130.53 230.096 130.558 230.028 130.558Z" fill="#373C45"/>
<path d="M234.567 131.913C234.5 131.913 234.435 131.885 234.387 131.836C234.339 131.786 234.312 131.718 234.312 131.648V129.328C234.312 129.258 234.339 129.19 234.387 129.14C234.435 129.09 234.5 129.062 234.567 129.062C234.635 129.062 234.7 129.09 234.747 129.14C234.795 129.19 234.822 129.258 234.822 129.328V131.648C234.822 131.718 234.795 131.786 234.747 131.836C234.7 131.885 234.635 131.913 234.567 131.913Z" fill="#373C45"/>
<path d="M239.434 132.152C239.367 132.152 239.302 132.124 239.254 132.074C239.207 132.024 239.18 131.957 239.18 131.886V128.967C239.181 128.897 239.208 128.83 239.256 128.78C239.303 128.731 239.367 128.703 239.434 128.701C239.502 128.701 239.567 128.729 239.615 128.779C239.662 128.829 239.689 128.896 239.689 128.967V131.892C239.688 131.961 239.66 132.027 239.613 132.076C239.565 132.125 239.501 132.152 239.434 132.152Z" fill="#373C45"/>
<path d="M253.962 128.903C253.894 128.903 253.829 128.875 253.782 128.825C253.734 128.775 253.707 128.708 253.707 128.637V127.178C253.707 127.107 253.734 127.04 253.782 126.99C253.829 126.94 253.894 126.912 253.962 126.912C254.029 126.912 254.094 126.94 254.142 126.99C254.19 127.04 254.217 127.107 254.217 127.178V128.637C254.217 128.708 254.19 128.775 254.142 128.825C254.094 128.875 254.029 128.903 253.962 128.903Z" fill="#373C45"/>
<path d="M252.063 131.573C251.996 131.573 251.931 131.545 251.883 131.495C251.835 131.446 251.809 131.378 251.809 131.308V129.588C251.809 129.517 251.835 129.45 251.883 129.4C251.931 129.35 251.996 129.322 252.063 129.322C252.131 129.322 252.196 129.35 252.244 129.4C252.291 129.45 252.318 129.517 252.318 129.588V131.308C252.317 131.378 252.29 131.444 252.242 131.494C252.195 131.543 252.131 131.572 252.063 131.573Z" fill="#373C45"/>
<path d="M244.556 131.742C244.488 131.742 244.423 131.714 244.375 131.665C244.328 131.615 244.301 131.547 244.301 131.477V129.412C244.301 129.342 244.328 129.274 244.375 129.224C244.423 129.174 244.488 129.146 244.556 129.146C244.623 129.148 244.687 129.176 244.734 129.226C244.782 129.275 244.809 129.342 244.81 129.412V131.477C244.81 131.547 244.783 131.615 244.736 131.665C244.688 131.714 244.623 131.742 244.556 131.742Z" fill="#373C45"/>
<path d="M87.5758 136.565H33.4799C31.8462 136.565 30.4943 135.135 30.4676 133.376C30.2239 119.149 29.5117 72.5756 30.54 70.566C31.1455 69.383 32.8516 68.5374 34.5043 67.7222C36.1571 66.907 37.8327 66.0766 38.2821 64.977C38.7554 63.6127 38.9358 62.1646 38.8114 60.7265V60.5293H82.2253V60.7265C82.1049 62.1709 82.2917 63.6244 82.7737 64.9921C83.223 66.0917 84.9139 66.9259 86.5514 67.7373C88.189 68.5488 89.9103 69.3981 90.5158 70.5811C91.544 72.5907 90.8319 119.164 90.5881 133.391C90.5577 135.139 89.2096 136.565 87.5758 136.565ZM39.2113 60.9085C39.3064 62.3378 39.1068 63.7714 38.6248 65.1211C38.1183 66.3496 36.4389 67.18 34.6643 68.0596C33.0686 68.8521 31.4158 69.6673 30.856 70.7404C30.0715 72.2571 30.3229 104.108 30.8256 133.368C30.8522 134.923 32.0328 136.185 33.4571 136.185H87.5758C89.0001 136.185 90.1807 134.923 90.2073 133.368C90.71 104.1 90.969 72.276 90.1769 70.7404C89.6285 69.6673 87.9757 68.8445 86.3686 68.0596C84.594 67.18 82.9146 66.3496 82.4081 65.1211C81.9339 63.7698 81.7421 62.3362 81.8444 60.9085H39.2113Z" fill="#373C45"/>
<path d="M82.3605 53.2654H39V46.7096C39 46.3888 39.128 46.0811 39.3558 45.8543C39.5836 45.6274 39.8926 45.5 40.2148 45.5H81.1457C81.4679 45.5 81.7769 45.6274 82.0047 45.8543C82.2325 46.0811 82.3605 46.3888 82.3605 46.7096V53.2654ZM39.3808 52.8863H81.9797V46.7096C81.9797 46.4893 81.8918 46.2781 81.7354 46.1224C81.579 45.9667 81.3669 45.8792 81.1457 45.8792H40.2148C39.9936 45.8792 39.7815 45.9667 39.6251 46.1224C39.4687 46.2781 39.3808 46.4893 39.3808 46.7096V52.8863Z" fill="#373C45"/>
<path d="M83.769 60.9083H37.8456C37.5426 60.9083 37.252 60.7884 37.0377 60.5751C36.8235 60.3618 36.7031 60.0724 36.7031 59.7708V54.0301C36.7031 53.7284 36.8235 53.4391 37.0377 53.2257C37.252 53.0124 37.5426 52.8926 37.8456 52.8926H83.769C84.072 52.8926 84.3626 53.0124 84.5769 53.2257C84.7912 53.4391 84.9115 53.7284 84.9115 54.0301V59.7632C84.9125 59.9132 84.8837 60.0619 84.8267 60.2008C84.7698 60.3397 84.6858 60.466 84.5796 60.5724C84.4734 60.6789 84.3471 60.7633 84.208 60.821C84.0689 60.8786 83.9197 60.9083 83.769 60.9083ZM37.8456 53.2642C37.6436 53.2642 37.4499 53.3441 37.307 53.4863C37.1642 53.6285 37.0839 53.8214 37.0839 54.0225V59.7556C37.0839 59.9567 37.1642 60.1496 37.307 60.2918C37.4499 60.434 37.6436 60.5139 37.8456 60.5139H83.769C83.971 60.5139 84.1648 60.434 84.3076 60.2918C84.4504 60.1496 84.5307 59.9567 84.5307 59.7556V54.0301C84.5307 53.829 84.4504 53.6361 84.3076 53.4939C84.1648 53.3516 83.971 53.2717 83.769 53.2717L37.8456 53.2642Z" fill="#373C45"/>
<path d="M87.3183 101.933H86.9375C86.9375 101.933 86.9375 100.299 86.968 97.834H87.3488C87.3336 100.299 87.3183 101.933 87.3183 101.933Z" fill="#373C45"/>
<path d="M87.3617 95.8534H86.9809C87.0228 88.6264 87.0723 76.3299 86.9428 75.1469C86.8133 73.9638 84.8445 72.6557 82.7538 71.2831C82.2473 70.9494 81.7293 70.6044 81.2305 70.2518L81.4666 69.9219C81.9769 70.2745 82.4948 70.6158 82.9899 70.9494C85.2367 72.432 87.1789 73.7174 87.3313 75.0862C87.4493 76.2427 87.4112 87.0149 87.3617 95.8534Z" fill="#373C45"/>
<path d="M79.4532 68.7515C77.7928 66.7078 77.789 63.773 77.8233 62.9729H51.3789V62.5938H78.2384V62.7985C78.2384 62.8326 77.9718 66.2945 79.7617 68.5126L79.4532 68.7515Z" fill="#373C45"/>
<path d="M49.1211 62.5938H43.3555V62.9729H49.1211V62.5938Z" fill="#373C45"/>
<path d="M83.4039 54.2547L37.9648 59.2734L38.0068 59.6503L83.4459 54.6315L83.4039 54.2547Z" fill="#373C45"/>
<path d="M83.2094 56.6629L62.8242 59.3281L62.8737 59.7035L83.2589 57.0383L83.2094 56.6629Z" fill="#373C45"/>
<path d="M67.0692 132.401V135.566C67.0692 135.965 62.0029 136.272 55.7493 136.272C49.4957 136.272 44.4258 135.957 44.4258 135.566V132.401H67.0692Z" fill="#6CCBAF"/>
<path d="M55.7518 136.472C52.7248 136.472 49.8761 136.396 47.7369 136.264C44.25 136.049 44.25 135.801 44.25 135.566V132.402C44.25 132.349 44.2688 132.298 44.3022 132.261C44.3357 132.223 44.381 132.202 44.4283 132.202H67.0717C67.119 132.202 67.1644 132.223 67.1978 132.261C67.2312 132.298 67.25 132.349 67.25 132.402V135.566C67.25 135.801 67.25 136.049 63.7667 136.264C61.6239 136.396 58.7788 136.472 55.7518 136.472ZM44.6065 135.486C45.1912 135.774 49.6907 136.073 55.7518 136.073C61.8129 136.073 66.3088 135.774 66.8935 135.486V132.601H44.6065V135.486Z" fill="#373C45"/>
<path d="M55.7518 133.308C52.7248 133.308 49.8761 133.236 47.7369 133.1C44.25 132.885 44.25 132.641 44.25 132.406C44.25 132.17 44.25 131.923 47.7369 131.707C49.8761 131.572 52.7284 131.5 55.7518 131.5C58.7752 131.5 61.6239 131.572 63.7667 131.707C67.25 131.923 67.25 132.166 67.25 132.406C67.25 132.645 67.25 132.885 63.7667 133.1C61.6239 133.232 58.7788 133.308 55.7518 133.308ZM44.8811 132.406C46.0648 132.665 50.2719 132.909 55.7518 132.909C61.2317 132.909 65.4352 132.665 66.6225 132.406C65.4352 132.142 61.2317 131.899 55.7518 131.899C50.2719 131.899 46.0648 132.138 44.8811 132.402V132.406Z" fill="#373C45"/>
<path d="M55.7491 132.961C53.4245 132.961 51.2354 132.917 49.5918 132.829C46.875 132.69 46.875 132.538 46.875 132.311C46.875 132.083 46.875 131.935 49.5918 131.792C51.2354 131.708 53.4245 131.66 55.7491 131.66C58.0737 131.66 60.2593 131.708 61.9065 131.792C64.6232 131.935 64.6232 132.083 64.6232 132.311C64.6232 132.538 64.6232 132.69 61.9065 132.829C60.2593 132.909 58.0737 132.961 55.7491 132.961ZM47.9232 132.311C49.2174 132.45 52.0447 132.562 55.7491 132.562C59.4535 132.562 62.2808 132.45 63.5929 132.311C62.2986 132.175 59.4678 132.059 55.7491 132.059C52.0305 132.059 49.2174 132.175 47.9232 132.311Z" fill="#373C45"/>
<path d="M45.5572 135.419C45.5099 135.419 45.4645 135.398 45.4311 135.36C45.3977 135.323 45.3789 135.272 45.3789 135.219V132.761C45.3789 132.708 45.3977 132.657 45.4311 132.62C45.4645 132.583 45.5099 132.562 45.5572 132.562C45.6045 132.562 45.6498 132.583 45.6832 132.62C45.7166 132.657 45.7354 132.708 45.7354 132.761V135.219C45.7354 135.272 45.7166 135.323 45.6832 135.36C45.6498 135.398 45.6045 135.419 45.5572 135.419Z" fill="#373C45"/>
<path d="M47.1783 135.806C47.131 135.806 47.0856 135.785 47.0522 135.748C47.0188 135.71 47 135.659 47 135.607V133.021C47 132.968 47.0188 132.917 47.0522 132.88C47.0856 132.842 47.131 132.821 47.1783 132.821C47.2255 132.821 47.2709 132.842 47.3043 132.88C47.3378 132.917 47.3565 132.968 47.3565 133.021V135.607C47.3556 135.659 47.3365 135.709 47.3033 135.747C47.2701 135.784 47.2253 135.805 47.1783 135.806Z" fill="#373C45"/>
<path d="M49.604 135.302C49.5568 135.302 49.5114 135.281 49.478 135.244C49.4446 135.207 49.4258 135.156 49.4258 135.103V133.108C49.4258 133.055 49.4446 133.004 49.478 132.967C49.5114 132.929 49.5568 132.908 49.604 132.908C49.6513 132.908 49.6967 132.929 49.7301 132.967C49.7635 133.004 49.7823 133.055 49.7823 133.108V135.103C49.7823 135.156 49.7635 135.207 49.7301 135.244C49.6967 135.281 49.6513 135.302 49.604 135.302Z" fill="#373C45"/>
<path d="M52.7798 136.321C52.7326 136.321 52.6872 136.3 52.6538 136.262C52.6203 136.225 52.6016 136.174 52.6016 136.121V134.377C52.6016 134.324 52.6203 134.274 52.6538 134.236C52.6872 134.199 52.7326 134.178 52.7798 134.178C52.8271 134.178 52.8724 134.199 52.9059 134.236C52.9393 134.274 52.9581 134.324 52.9581 134.377V136.121C52.9581 136.174 52.9393 136.225 52.9059 136.262C52.8724 136.3 52.8271 136.321 52.7798 136.321Z" fill="#373C45"/>
<path d="M56.1822 136.5C56.1349 136.5 56.0895 136.479 56.0561 136.442C56.0227 136.404 56.0039 136.353 56.0039 136.3V134.106C56.0048 134.053 56.0239 134.003 56.0571 133.966C56.0904 133.929 56.1352 133.907 56.1822 133.906C56.2295 133.906 56.2748 133.927 56.3082 133.965C56.3417 134.002 56.3604 134.053 56.3604 134.106V136.304C56.3595 136.357 56.3403 136.406 56.307 136.443C56.2736 136.48 56.2288 136.5 56.1822 136.5Z" fill="#373C45"/>
<path d="M66.3501 134.058C66.3029 134.058 66.2575 134.037 66.2241 133.999C66.1906 133.962 66.1719 133.911 66.1719 133.858V132.761C66.1719 132.708 66.1906 132.657 66.2241 132.62C66.2575 132.583 66.3029 132.562 66.3501 132.562C66.3974 132.562 66.4428 132.583 66.4762 132.62C66.5096 132.657 66.5284 132.708 66.5284 132.761V133.858C66.5284 133.911 66.5096 133.962 66.4762 133.999C66.4428 134.037 66.3974 134.058 66.3501 134.058Z" fill="#373C45"/>
<path d="M65.022 136.065C64.9747 136.065 64.9294 136.044 64.896 136.007C64.8625 135.969 64.8438 135.918 64.8438 135.865V134.573C64.8438 134.52 64.8625 134.469 64.896 134.431C64.9294 134.394 64.9747 134.373 65.022 134.373C65.0693 134.373 65.1146 134.394 65.1481 134.431C65.1815 134.469 65.2003 134.52 65.2003 134.573V135.865C65.1994 135.918 65.1803 135.968 65.1471 136.005C65.1138 136.043 65.069 136.064 65.022 136.065Z" fill="#373C45"/>
<path d="M59.7681 136.193C59.7208 136.193 59.6755 136.171 59.6421 136.134C59.6086 136.097 59.5898 136.046 59.5898 135.993V134.441C59.5898 134.388 59.6086 134.337 59.6421 134.3C59.6755 134.262 59.7208 134.241 59.7681 134.241C59.8151 134.242 59.8599 134.264 59.8931 134.301C59.9264 134.338 59.9455 134.388 59.9464 134.441V135.993C59.9464 136.046 59.9276 136.097 59.8942 136.134C59.8607 136.171 59.8154 136.193 59.7681 136.193Z" fill="#373C45"/>
<path d="M88.0231 118.264L90.2606 120.502C90.5428 120.784 87.1776 124.583 82.7556 129.005C78.3337 133.427 74.5258 136.789 74.2493 136.513L72.0117 134.275L88.0231 118.264Z" fill="#6CCBAF"/>
<path d="M82.8982 129.146C80.7578 131.286 78.6899 133.247 77.0841 134.667C74.4661 136.98 74.2912 136.805 74.1247 136.638L71.8872 134.401C71.8498 134.363 71.8272 134.314 71.8243 134.264C71.8215 134.214 71.8387 134.167 71.8721 134.134L87.8835 118.122C87.9169 118.089 87.9639 118.072 88.014 118.075C88.064 118.077 88.1132 118.1 88.1506 118.137L90.3882 120.375C90.5547 120.541 90.7296 120.716 88.4189 123.332C86.9968 124.94 85.0386 127.006 82.8982 129.146ZM74.3204 136.33C74.937 136.12 78.3302 133.15 82.6161 128.864C86.9019 124.578 89.8693 121.187 90.0796 120.571L88.0396 118.531L72.2804 134.29L74.3204 136.33Z" fill="#373C45"/>
<path d="M80.6612 126.909C78.5208 129.049 76.4557 131.013 74.8471 132.43C72.2291 134.743 72.057 134.571 71.8905 134.404C71.724 134.238 71.5491 134.063 73.8623 131.445C75.279 129.836 77.2451 127.769 79.383 125.631C81.5209 123.493 83.586 121.529 85.1971 120.11C87.8126 117.799 87.9847 117.971 88.154 118.141C88.3233 118.31 88.4926 118.479 86.1819 121.095C84.7598 122.703 82.8016 124.768 80.6612 126.909ZM72.3367 133.958C73.3571 133.304 76.5041 130.502 80.379 126.627C84.2539 122.752 87.0541 119.607 87.7103 118.584C86.6845 119.238 83.54 122.038 79.6652 125.913C75.7903 129.788 72.9847 132.932 72.3339 133.955L72.3367 133.958Z" fill="#373C45"/>
<path d="M80.4135 126.664C78.7698 128.308 77.1908 129.825 75.9665 130.925C73.9467 132.748 73.8395 132.64 73.6787 132.479C73.5178 132.319 73.4134 132.214 75.2329 130.192C76.3359 128.97 77.85 127.388 79.4937 125.745C81.1374 124.101 82.7167 122.589 83.9407 121.484C85.9634 119.664 86.0677 119.769 86.2286 119.93C86.3894 120.09 86.4966 120.198 84.6743 122.217C83.566 123.439 82.0573 125.021 80.4135 126.664ZM74.4199 131.738C75.4338 130.922 77.512 129.002 80.1314 126.382C82.7508 123.763 84.671 121.685 85.5 120.658C84.4889 121.477 82.4053 123.397 79.7759 126.027C77.1464 128.656 75.2391 130.727 74.4199 131.738Z" fill="#373C45"/>
<path d="M74.9432 135.61C74.9098 135.643 74.8628 135.661 74.8128 135.658C74.7627 135.655 74.7135 135.632 74.6761 135.595L72.938 133.857C72.9005 133.819 72.8779 133.77 72.8751 133.72C72.8723 133.67 72.8895 133.623 72.9229 133.59C72.9564 133.556 73.0033 133.539 73.0534 133.542C73.1035 133.545 73.1526 133.567 73.1901 133.605L74.9282 135.343C74.9656 135.38 74.9882 135.43 74.991 135.48C74.9938 135.53 74.9766 135.577 74.9432 135.61Z" fill="#373C45"/>
<path d="M76.3655 134.738C76.3321 134.772 76.2852 134.789 76.2351 134.786C76.185 134.783 76.1358 134.761 76.0984 134.723L74.27 132.895C74.2326 132.858 74.21 132.808 74.2071 132.758C74.2043 132.708 74.2215 132.661 74.255 132.628C74.2884 132.594 74.3353 132.577 74.3854 132.58C74.4355 132.583 74.4847 132.605 74.5221 132.643L76.3505 134.471C76.3871 134.509 76.409 134.558 76.4118 134.608C76.4146 134.658 76.398 134.704 76.3655 134.738Z" fill="#373C45"/>
<path d="M77.7214 132.668C77.6879 132.701 77.641 132.718 77.5909 132.715C77.5408 132.712 77.4917 132.69 77.4542 132.652L76.0434 131.242C76.006 131.204 75.9834 131.155 75.9806 131.105C75.9778 131.055 75.995 131.008 76.0284 130.975C76.0618 130.941 76.1088 130.924 76.1589 130.927C76.209 130.93 76.2581 130.952 76.2955 130.99L77.7063 132.4C77.7438 132.438 77.7664 132.487 77.7692 132.537C77.772 132.587 77.7548 132.634 77.7214 132.668Z" fill="#373C45"/>
<path d="M80.6881 131.142C80.6547 131.176 80.6078 131.193 80.5577 131.19C80.5076 131.187 80.4584 131.164 80.421 131.127L79.188 129.894C79.1505 129.857 79.1279 129.807 79.1251 129.757C79.1223 129.707 79.1395 129.66 79.1729 129.627C79.2064 129.593 79.2533 129.576 79.3034 129.579C79.3535 129.582 79.4026 129.604 79.4401 129.642L80.6731 130.875C80.7105 130.912 80.7331 130.962 80.736 131.012C80.7388 131.062 80.7216 131.109 80.6881 131.142Z" fill="#373C45"/>
<path d="M83.2257 128.86C83.1923 128.894 83.1454 128.911 83.0953 128.908C83.0452 128.905 82.996 128.883 82.9586 128.845L81.4067 127.293C81.3702 127.256 81.3482 127.207 81.3454 127.157C81.3426 127.107 81.3592 127.06 81.3917 127.026C81.4251 126.993 81.472 126.976 81.5221 126.978C81.5722 126.981 81.6214 127.004 81.6588 127.041L83.2135 128.596C83.2498 128.634 83.2714 128.682 83.2737 128.732C83.2759 128.781 83.2587 128.827 83.2257 128.86Z" fill="#373C45"/>
<path d="M88.6842 119.946C88.6507 119.979 88.6038 119.996 88.5537 119.994C88.5036 119.991 88.4544 119.968 88.417 119.931L87.6411 119.155C87.6037 119.117 87.5811 119.068 87.5782 119.018C87.5754 118.968 87.5926 118.921 87.6261 118.888C87.6595 118.854 87.7064 118.837 87.7565 118.84C87.8066 118.843 87.8558 118.865 87.8932 118.903L88.6691 119.679C88.7066 119.716 88.7291 119.765 88.732 119.815C88.7348 119.865 88.7176 119.912 88.6842 119.946Z" fill="#373C45"/>
<path d="M89.1662 122.305C89.1327 122.338 89.0858 122.355 89.0357 122.352C88.9856 122.35 88.9365 122.327 88.899 122.29L87.9848 121.375C87.9474 121.338 87.9248 121.289 87.922 121.239C87.9192 121.189 87.9364 121.142 87.9698 121.108C88.0032 121.075 88.0502 121.058 88.1003 121.06C88.1504 121.063 88.1995 121.086 88.2369 121.123L89.1511 122.038C89.1877 122.075 89.2097 122.124 89.2125 122.174C89.2153 122.224 89.1987 122.271 89.1662 122.305Z" fill="#373C45"/>
<path d="M85.541 126.109C85.5076 126.143 85.4606 126.16 85.4105 126.157C85.3604 126.154 85.3113 126.132 85.2739 126.094L84.1762 124.997C84.1388 124.959 84.1162 124.91 84.1134 124.86C84.1106 124.81 84.1278 124.763 84.1612 124.729C84.1952 124.697 84.2419 124.68 84.2918 124.683C84.3416 124.686 84.3905 124.708 84.4283 124.744L85.526 125.842C85.5634 125.879 85.586 125.929 85.5888 125.979C85.5916 126.029 85.5744 126.076 85.541 126.109Z" fill="#373C45"/>
<path d="M120.734 136.084C130.712 136.084 138.8 135.638 138.8 135.087C138.8 134.536 130.712 134.09 120.734 134.09C110.756 134.09 102.668 134.536 102.668 135.087C102.668 135.638 110.756 136.084 120.734 136.084Z" fill="white"/>
<path d="M120.731 136.369C115.9 136.369 111.354 136.267 107.94 136.08C102.375 135.769 102.375 135.423 102.375 135.089C102.375 134.755 102.375 134.409 107.94 134.097C111.354 133.91 115.906 133.803 120.731 133.803C125.556 133.803 130.103 133.91 133.522 134.097C139.082 134.409 139.082 134.755 139.082 135.089C139.082 135.423 139.082 135.769 133.522 136.08C130.103 136.279 125.562 136.369 120.731 136.369ZM103.382 135.089C105.271 135.457 111.98 135.803 120.731 135.803C129.482 135.803 136.185 135.457 138.08 135.089C136.185 134.721 129.477 134.369 120.731 134.369C111.986 134.369 105.271 134.721 103.382 135.089Z" fill="#373C45"/>
<path d="M134.612 134.964C134.612 135.315 128.398 135.604 120.734 135.604C113.069 135.604 106.855 135.315 106.855 134.964C106.855 134.613 113.069 134.318 120.734 134.318C128.398 134.318 134.612 134.607 134.612 134.964Z" fill="white"/>
<path d="M120.733 135.886C117.017 135.886 113.529 135.818 110.906 135.699C106.57 135.495 106.57 135.285 106.57 134.962C106.57 134.639 106.57 134.424 110.906 134.226C113.529 134.101 117.017 134.033 120.733 134.033C124.449 134.033 127.931 134.101 130.56 134.226C134.895 134.424 134.895 134.639 134.895 134.962C134.895 135.285 134.895 135.495 130.56 135.699C127.931 135.818 124.443 135.886 120.733 135.886ZM108.215 134.962C110.286 135.155 114.798 135.319 120.733 135.319C126.668 135.319 131.151 135.155 133.223 134.962C131.151 134.764 126.639 134.6 120.733 134.6C114.827 134.6 110.309 134.764 108.237 134.962H108.215Z" fill="#373C45"/>
<path d="M103.664 130.471V134.969C103.664 135.536 111.755 135.966 121.736 135.966C131.716 135.966 139.802 135.519 139.802 134.969V130.471H103.664Z" fill="#6CCBAF"/>
<path d="M121.735 136.277C116.904 136.277 112.358 136.175 108.944 135.982C103.379 135.676 103.379 135.331 103.379 134.996V130.498C103.379 130.423 103.409 130.351 103.462 130.298C103.516 130.245 103.588 130.215 103.663 130.215H139.801C139.877 130.215 139.949 130.245 140.002 130.298C140.056 130.351 140.086 130.423 140.086 130.498V134.996C140.086 135.331 140.086 135.676 134.526 135.982C131.124 136.147 126.572 136.277 121.735 136.277ZM103.948 134.877C104.881 135.285 112.062 135.71 121.735 135.71C131.408 135.71 138.583 135.285 139.517 134.877V130.781H103.948V134.877Z" fill="#373C45"/>
<path d="M139.802 130.47C139.802 131.037 131.71 131.467 121.736 131.467C111.761 131.467 103.664 131.02 103.664 130.47C103.664 129.92 111.778 129.479 121.736 129.479C131.693 129.479 139.802 129.92 139.802 130.47Z" fill="white"/>
<path d="M121.735 131.744C116.904 131.744 112.358 131.642 108.944 131.455C103.379 131.144 103.379 130.798 103.379 130.464C103.379 130.13 103.379 129.784 108.944 129.473C112.358 129.286 116.91 129.184 121.735 129.184C126.56 129.184 131.107 129.286 134.526 129.473C140.086 129.784 140.086 130.13 140.086 130.464C140.086 130.798 140.086 131.144 134.526 131.455C131.124 131.648 126.572 131.744 121.735 131.744ZM104.38 130.47C106.269 130.838 112.984 131.183 121.729 131.183C130.475 131.183 137.184 130.838 139.078 130.47C137.184 130.101 130.475 129.756 121.729 129.756C112.984 129.756 106.275 130.101 104.38 130.47Z" fill="#373C45"/>
<path d="M135.612 130.345C135.612 130.697 129.398 130.985 121.734 130.985C114.069 130.985 107.855 130.697 107.855 130.345C107.855 129.994 114.052 129.705 121.734 129.705C129.415 129.705 135.612 129.988 135.612 130.345Z" fill="white"/>
<path d="M121.733 131.269C118.023 131.269 114.529 131.201 111.906 131.082C107.57 130.878 107.57 130.668 107.57 130.345C107.57 130.022 107.57 129.807 111.906 129.609C114.529 129.484 118.023 129.416 121.733 129.416C125.443 129.416 128.931 129.484 131.56 129.609C135.895 129.807 135.896 130.022 135.896 130.345C135.896 130.668 135.895 130.878 131.56 131.082C128.931 131.178 125.431 131.269 121.733 131.269ZM109.243 130.345C111.309 130.538 115.821 130.702 121.733 130.702C127.645 130.702 132.157 130.538 134.223 130.345C132.157 130.147 127.639 129.983 121.733 129.983C115.827 129.983 111.309 130.147 109.243 130.345Z" fill="#373C45"/>
<path d="M137.999 134.754C137.924 134.754 137.852 134.724 137.798 134.671C137.745 134.618 137.715 134.546 137.715 134.471V130.986C137.715 130.911 137.745 130.839 137.798 130.786C137.852 130.733 137.924 130.703 137.999 130.703C138.075 130.703 138.147 130.733 138.201 130.786C138.254 130.839 138.284 130.911 138.284 130.986V134.471C138.284 134.546 138.254 134.618 138.201 134.671C138.147 134.724 138.075 134.754 137.999 134.754Z" fill="#373C45"/>
<path d="M135.417 135.302C135.342 135.302 135.27 135.272 135.216 135.219C135.163 135.166 135.133 135.094 135.133 135.019V131.348C135.133 131.273 135.163 131.201 135.216 131.147C135.27 131.094 135.342 131.064 135.417 131.064C135.493 131.064 135.565 131.094 135.619 131.147C135.672 131.201 135.702 131.273 135.702 131.348V135.019C135.702 135.094 135.672 135.166 135.619 135.219C135.565 135.272 135.493 135.302 135.417 135.302Z" fill="#373C45"/>
<path d="M131.55 134.577C131.475 134.577 131.402 134.547 131.349 134.494C131.296 134.441 131.266 134.369 131.266 134.294V131.461C131.266 131.386 131.296 131.314 131.349 131.261C131.402 131.208 131.475 131.178 131.55 131.178C131.625 131.179 131.697 131.21 131.75 131.262C131.803 131.315 131.833 131.386 131.835 131.461V134.294C131.833 134.368 131.803 134.44 131.75 134.492C131.697 134.545 131.625 134.576 131.55 134.577Z" fill="#373C45"/>
<path d="M126.48 136.038C126.404 136.038 126.332 136.008 126.279 135.955C126.225 135.902 126.195 135.83 126.195 135.755V133.274C126.195 133.198 126.225 133.126 126.279 133.073C126.332 133.02 126.404 132.99 126.48 132.99C126.555 132.992 126.626 133.022 126.679 133.075C126.732 133.128 126.763 133.199 126.764 133.274V135.755C126.763 135.83 126.732 135.901 126.679 135.954C126.626 136.006 126.555 136.037 126.48 136.038Z" fill="#373C45"/>
<path d="M121.038 136.311C120.963 136.311 120.891 136.282 120.837 136.228C120.784 136.175 120.754 136.103 120.754 136.028V132.912C120.754 132.837 120.784 132.765 120.837 132.712C120.891 132.659 120.963 132.629 121.038 132.629C121.114 132.629 121.186 132.659 121.24 132.712C121.293 132.765 121.323 132.837 121.323 132.912V136.028C121.323 136.103 121.293 136.175 121.24 136.228C121.186 136.282 121.114 136.311 121.038 136.311Z" fill="#373C45"/>
<path d="M104.816 132.828C104.741 132.826 104.669 132.796 104.616 132.743C104.563 132.69 104.533 132.619 104.531 132.544V130.986C104.531 130.911 104.561 130.839 104.615 130.786C104.668 130.733 104.74 130.703 104.816 130.703C104.891 130.703 104.964 130.733 105.017 130.786C105.07 130.839 105.1 130.911 105.1 130.986V132.544C105.1 132.62 105.07 132.692 105.017 132.745C104.964 132.798 104.891 132.828 104.816 132.828Z" fill="#373C45"/>
<path d="M106.941 135.67C106.865 135.67 106.793 135.64 106.74 135.587C106.686 135.534 106.656 135.462 106.656 135.386V133.551C106.656 133.476 106.686 133.404 106.74 133.351C106.793 133.297 106.865 133.268 106.941 133.268C107.016 133.268 107.089 133.297 107.142 133.351C107.195 133.404 107.225 133.476 107.225 133.551V135.386C107.225 135.462 107.195 135.534 107.142 135.587C107.089 135.64 107.016 135.67 106.941 135.67Z" fill="#373C45"/>
<path d="M115.327 135.853C115.252 135.853 115.18 135.823 115.126 135.77C115.073 135.717 115.043 135.644 115.043 135.569V133.371C115.043 133.296 115.073 133.224 115.126 133.171C115.18 133.118 115.252 133.088 115.327 133.088C115.403 133.088 115.475 133.118 115.529 133.171C115.582 133.224 115.612 133.296 115.612 133.371V135.569C115.612 135.644 115.582 135.717 115.529 135.77C115.475 135.823 115.403 135.853 115.327 135.853Z" fill="#373C45"/>
<path d="M101.285 125.852V130.35C101.285 130.916 109.376 131.347 119.351 131.347C129.326 131.347 137.423 130.899 137.423 130.35V125.852H101.285Z" fill="#6CCBAF"/>
<path d="M119.35 131.63C114.52 131.63 109.979 131.528 106.559 131.336C101 131.03 101 130.684 101 130.35V125.852C101 125.777 101.03 125.704 101.083 125.651C101.137 125.598 101.209 125.568 101.285 125.568H137.422C137.498 125.568 137.57 125.598 137.623 125.651C137.677 125.704 137.707 125.777 137.707 125.852V130.35C137.707 130.684 137.707 131.03 132.142 131.336C128.728 131.528 124.181 131.63 119.35 131.63ZM101.569 130.231C102.502 130.639 109.683 131.064 119.35 131.064C129.018 131.064 136.204 130.639 137.138 130.231V126.135H101.569V130.231Z" fill="#373C45"/>
<path d="M137.423 125.853C137.423 126.419 129.332 126.85 119.351 126.85C109.371 126.85 101.285 126.408 101.285 125.853C101.285 125.297 109.376 124.855 119.351 124.855C129.326 124.855 137.423 125.303 137.423 125.853Z" fill="white"/>
<path d="M119.35 127.139C114.52 127.139 109.979 127.031 106.559 126.844C101 126.532 101 126.187 101 125.853C101 125.518 101 125.173 106.559 124.861C109.973 124.674 114.525 124.572 119.35 124.572C124.176 124.572 128.728 124.674 132.142 124.861C137.707 125.173 137.707 125.518 137.707 125.853C137.707 126.187 137.707 126.532 132.142 126.844C128.728 127.031 124.181 127.139 119.35 127.139ZM102.001 125.853C103.896 126.221 110.605 126.572 119.35 126.572C128.096 126.572 134.81 126.221 136.7 125.853C134.81 125.484 128.102 125.139 119.35 125.139C110.599 125.139 103.896 125.513 102.001 125.853Z" fill="#373C45"/>
<path d="M133.229 125.728C133.229 126.079 127.015 126.368 119.351 126.368C111.686 126.368 105.473 126.079 105.473 125.728C105.473 125.377 111.686 125.088 119.351 125.088C127.015 125.088 133.229 125.371 133.229 125.728Z" fill="white"/>
<path d="M119.35 126.646C115.64 126.646 112.152 126.578 109.523 126.459C105.187 126.255 105.188 126.045 105.188 125.722C105.188 125.399 105.187 125.184 109.523 124.986C112.152 124.861 115.64 124.799 119.35 124.799C123.06 124.799 126.554 124.861 129.177 124.986C133.513 125.184 133.513 125.399 133.513 125.722C133.513 126.045 133.513 126.255 129.177 126.459C126.571 126.583 123.066 126.646 119.35 126.646ZM106.86 125.722C108.926 125.915 113.444 126.079 119.35 126.079C125.256 126.079 129.774 125.915 131.84 125.722C129.774 125.53 125.262 125.365 119.35 125.365C113.438 125.365 108.932 125.513 106.86 125.728V125.722Z" fill="#373C45"/>
<path d="M135.617 130.135C135.541 130.135 135.469 130.105 135.415 130.052C135.362 129.999 135.332 129.927 135.332 129.851V126.367C135.332 126.292 135.362 126.22 135.415 126.167C135.469 126.114 135.541 126.084 135.617 126.084C135.692 126.084 135.764 126.114 135.818 126.167C135.871 126.22 135.901 126.292 135.901 126.367V129.851C135.901 129.927 135.871 129.999 135.818 130.052C135.764 130.105 135.692 130.135 135.617 130.135Z" fill="#373C45"/>
<path d="M133.038 130.685C132.963 130.685 132.891 130.655 132.837 130.602C132.784 130.549 132.754 130.477 132.754 130.402V126.731C132.754 126.655 132.784 126.583 132.837 126.53C132.891 126.477 132.963 126.447 133.038 126.447C133.113 126.449 133.185 126.479 133.238 126.532C133.291 126.585 133.321 126.656 133.323 126.731V130.402C133.323 130.477 133.293 130.549 133.24 130.602C133.186 130.655 133.114 130.685 133.038 130.685Z" fill="#373C45"/>
<path d="M129.167 129.954C129.092 129.952 129.021 129.922 128.968 129.869C128.915 129.817 128.884 129.745 128.883 129.671V126.838C128.883 126.763 128.913 126.691 128.966 126.638C129.02 126.585 129.092 126.555 129.167 126.555C129.243 126.555 129.315 126.585 129.368 126.638C129.422 126.691 129.452 126.763 129.452 126.838V129.671C129.452 129.746 129.422 129.818 129.368 129.871C129.315 129.924 129.243 129.954 129.167 129.954Z" fill="#373C45"/>
<path d="M124.097 131.423C124.022 131.423 123.949 131.393 123.896 131.34C123.842 131.287 123.812 131.215 123.812 131.14V128.658C123.814 128.584 123.844 128.512 123.897 128.46C123.95 128.407 124.022 128.376 124.097 128.375C124.172 128.375 124.245 128.405 124.298 128.458C124.352 128.511 124.382 128.583 124.382 128.658V131.14C124.382 131.215 124.352 131.287 124.298 131.34C124.245 131.393 124.172 131.423 124.097 131.423Z" fill="#373C45"/>
<path d="M118.66 131.694C118.584 131.694 118.512 131.664 118.458 131.611C118.405 131.558 118.375 131.486 118.375 131.411V128.295C118.375 128.22 118.405 128.148 118.458 128.095C118.512 128.042 118.584 128.012 118.66 128.012C118.735 128.012 118.807 128.042 118.861 128.095C118.914 128.148 118.944 128.22 118.944 128.295V131.411C118.944 131.486 118.914 131.558 118.861 131.611C118.807 131.664 118.735 131.694 118.66 131.694Z" fill="#373C45"/>
<path d="M102.437 128.209C102.361 128.209 102.289 128.179 102.236 128.126C102.182 128.072 102.152 128 102.152 127.925V126.367C102.152 126.292 102.182 126.22 102.236 126.167C102.289 126.114 102.361 126.084 102.437 126.084C102.512 126.084 102.585 126.114 102.638 126.167C102.691 126.22 102.721 126.292 102.721 126.367V127.925C102.721 128 102.691 128.072 102.638 128.126C102.585 128.179 102.512 128.209 102.437 128.209Z" fill="#373C45"/>
<path d="M104.558 131.054C104.482 131.054 104.41 131.024 104.357 130.971C104.303 130.918 104.273 130.846 104.273 130.77V128.912C104.273 128.837 104.303 128.765 104.357 128.712C104.41 128.659 104.482 128.629 104.558 128.629C104.633 128.629 104.706 128.659 104.759 128.712C104.812 128.765 104.842 128.837 104.842 128.912V130.748C104.846 130.787 104.841 130.826 104.828 130.863C104.815 130.9 104.794 130.934 104.768 130.963C104.741 130.992 104.708 131.015 104.672 131.03C104.636 131.046 104.597 131.054 104.558 131.054Z" fill="#373C45"/>
<path d="M112.941 131.235C112.865 131.235 112.793 131.206 112.74 131.152C112.686 131.099 112.656 131.027 112.656 130.952V128.754C112.656 128.679 112.686 128.607 112.74 128.554C112.793 128.501 112.865 128.471 112.941 128.471C113.016 128.471 113.089 128.501 113.142 128.554C113.195 128.607 113.225 128.679 113.225 128.754V130.952C113.225 131.027 113.195 131.099 113.142 131.152C113.089 131.206 113.016 131.235 112.941 131.235Z" fill="#373C45"/>
<path d="M154.246 136.084C164.223 136.084 172.312 135.638 172.312 135.087C172.312 134.536 164.223 134.09 154.246 134.09C144.268 134.09 136.18 134.536 136.18 135.087C136.18 135.638 144.268 136.084 154.246 136.084Z" fill="white"/>
<path d="M154.245 136.369C149.414 136.369 144.873 136.267 141.454 136.08C135.895 135.769 135.895 135.423 135.895 135.089C135.895 134.755 135.895 134.409 141.454 134.097C144.868 133.91 149.42 133.803 154.245 133.803C159.07 133.803 163.622 133.91 167.036 134.097C172.601 134.409 172.601 134.755 172.601 135.089C172.601 135.423 172.601 135.769 167.036 136.08C163.622 136.279 159.076 136.369 154.245 136.369ZM136.896 135.089C138.791 135.457 145.499 135.803 154.245 135.803C162.991 135.803 169.705 135.457 171.594 135.089C169.705 134.721 162.991 134.369 154.245 134.369C145.499 134.369 138.791 134.721 136.896 135.089Z" fill="#373C45"/>
<path d="M168.108 134.964C168.108 135.315 161.894 135.604 154.23 135.604C146.565 135.604 140.352 135.315 140.352 134.964C140.352 134.613 146.565 134.318 154.23 134.318C161.894 134.318 168.108 134.607 168.108 134.964Z" fill="white"/>
<path d="M154.245 135.886C150.535 135.886 147.047 135.818 144.418 135.699C140.082 135.495 140.082 135.285 140.082 134.962C140.082 134.639 140.082 134.424 144.418 134.226C147.047 134.101 150.535 134.033 154.245 134.033C157.955 134.033 161.448 134.101 164.071 134.226C168.407 134.424 168.407 134.639 168.407 134.962C168.407 135.285 168.407 135.495 164.071 135.699C161.448 135.818 157.955 135.886 154.245 135.886ZM141.755 134.962C143.82 135.155 148.338 135.319 154.245 135.319C160.151 135.319 164.669 135.155 166.763 134.962C164.697 134.764 160.185 134.6 154.245 134.6C148.304 134.6 143.82 134.764 141.755 134.962Z" fill="#373C45"/>
<path d="M137.184 130.471V134.969C137.184 135.536 145.275 135.966 155.25 135.966C165.224 135.966 173.321 135.519 173.321 134.969V130.471H137.184Z" fill="#6CCBAF"/>
<path d="M155.249 136.277C150.418 136.277 145.877 136.175 142.458 135.982C136.898 135.676 136.898 135.331 136.898 134.996V130.498C136.898 130.423 136.928 130.351 136.982 130.298C137.035 130.245 137.107 130.215 137.183 130.215H173.321C173.396 130.215 173.468 130.245 173.522 130.298C173.575 130.351 173.605 130.423 173.605 130.498V134.996C173.605 135.331 173.605 135.676 168.04 135.982C164.626 136.147 160.08 136.277 155.249 136.277ZM137.467 134.877C138.401 135.285 145.581 135.71 155.249 135.71C164.916 135.71 172.103 135.285 173.036 134.877V130.781H137.467V134.877Z" fill="#373C45"/>
<path d="M173.321 130.47C173.321 131.037 165.23 131.467 155.25 131.467C145.269 131.467 137.184 131.02 137.184 130.47C137.184 129.92 145.275 129.479 155.25 129.479C165.224 129.479 173.321 129.92 173.321 130.47Z" fill="white"/>
<path d="M155.249 131.744C150.418 131.744 145.877 131.642 142.458 131.455C136.898 131.144 136.898 130.798 136.898 130.464C136.898 130.13 136.898 129.784 142.458 129.473C145.872 129.286 150.424 129.184 155.249 129.184C160.074 129.184 164.626 129.286 168.04 129.473C173.605 129.784 173.605 130.13 173.605 130.464C173.605 130.798 173.605 131.144 168.04 131.455C164.626 131.648 160.085 131.744 155.249 131.744ZM137.9 130.464C139.795 130.832 146.503 131.178 155.249 131.178C163.995 131.178 170.709 130.832 172.598 130.464C170.709 130.096 164 129.75 155.249 129.75C146.498 129.75 139.795 130.101 137.9 130.47V130.464Z" fill="#373C45"/>
<path d="M169.125 130.345C169.125 130.697 162.912 130.985 155.247 130.985C147.583 130.985 141.363 130.697 141.363 130.345C141.363 129.994 147.577 129.705 155.241 129.705C162.906 129.705 169.125 129.988 169.125 130.345Z" fill="white"/>
<path d="M155.249 131.269C151.539 131.269 148.051 131.201 145.422 131.082C141.086 130.878 141.086 130.668 141.086 130.345C141.086 130.022 141.086 129.807 145.422 129.609C148.051 129.484 151.539 129.416 155.249 129.416C158.958 129.416 162.452 129.484 165.075 129.609C169.411 129.807 169.411 130.022 169.411 130.345C169.411 130.668 169.411 130.878 165.075 131.082C162.452 131.178 158.958 131.269 155.249 131.269ZM142.759 130.345C144.83 130.538 149.342 130.702 155.249 130.702C161.155 130.702 165.673 130.538 167.767 130.345C165.696 130.147 161.183 129.983 155.249 129.983C149.314 129.983 144.83 130.147 142.759 130.345Z" fill="#373C45"/>
<path d="M171.523 134.754C171.447 134.754 171.375 134.724 171.322 134.671C171.268 134.618 171.238 134.546 171.238 134.471V130.986C171.238 130.911 171.268 130.839 171.322 130.786C171.375 130.733 171.447 130.703 171.523 130.703C171.598 130.703 171.671 130.733 171.724 130.786C171.777 130.839 171.807 130.911 171.807 130.986V134.471C171.807 134.546 171.777 134.618 171.724 134.671C171.671 134.724 171.598 134.754 171.523 134.754Z" fill="#373C45"/>
<path d="M168.937 135.302C168.861 135.302 168.789 135.272 168.736 135.219C168.682 135.166 168.652 135.094 168.652 135.019V131.348C168.652 131.273 168.682 131.201 168.736 131.147C168.789 131.094 168.861 131.064 168.937 131.064C169.012 131.066 169.083 131.096 169.136 131.149C169.189 131.202 169.22 131.273 169.221 131.348V135.019C169.221 135.094 169.191 135.166 169.138 135.219C169.085 135.272 169.012 135.302 168.937 135.302Z" fill="#373C45"/>
<path d="M165.066 134.577C164.991 134.576 164.919 134.545 164.866 134.492C164.813 134.44 164.783 134.368 164.781 134.294V131.461C164.783 131.386 164.813 131.315 164.866 131.262C164.919 131.21 164.991 131.179 165.066 131.178C165.141 131.178 165.214 131.208 165.267 131.261C165.32 131.314 165.35 131.386 165.35 131.461V134.294C165.35 134.369 165.32 134.441 165.267 134.494C165.214 134.547 165.141 134.577 165.066 134.577Z" fill="#373C45"/>
<path d="M159.995 136.038C159.92 136.037 159.849 136.006 159.796 135.954C159.743 135.901 159.712 135.83 159.711 135.755V133.274C159.712 133.199 159.743 133.128 159.796 133.075C159.849 133.022 159.92 132.992 159.995 132.99C160.071 132.99 160.143 133.02 160.197 133.073C160.25 133.126 160.28 133.198 160.28 133.274V135.755C160.28 135.83 160.25 135.902 160.197 135.955C160.143 136.008 160.071 136.038 159.995 136.038Z" fill="#373C45"/>
<path d="M154.562 136.311C154.486 136.311 154.414 136.282 154.361 136.228C154.307 136.175 154.277 136.103 154.277 136.028V132.912C154.277 132.837 154.307 132.765 154.361 132.712C154.414 132.659 154.486 132.629 154.562 132.629C154.637 132.629 154.71 132.659 154.763 132.712C154.816 132.765 154.846 132.837 154.846 132.912V136.028C154.846 136.103 154.816 136.175 154.763 136.228C154.71 136.282 154.637 136.311 154.562 136.311Z" fill="#373C45"/>
<path d="M138.335 132.828C138.26 132.828 138.187 132.798 138.134 132.745C138.081 132.692 138.051 132.62 138.051 132.544V130.986C138.051 130.911 138.081 130.839 138.134 130.786C138.187 130.733 138.26 130.703 138.335 130.703C138.411 130.703 138.483 130.733 138.536 130.786C138.59 130.839 138.62 130.911 138.62 130.986V132.544C138.62 132.62 138.59 132.692 138.536 132.745C138.483 132.798 138.411 132.828 138.335 132.828Z" fill="#373C45"/>
<path d="M140.456 135.67C140.381 135.67 140.309 135.64 140.255 135.587C140.202 135.534 140.172 135.462 140.172 135.386V133.551C140.172 133.476 140.202 133.404 140.255 133.351C140.309 133.297 140.381 133.268 140.456 133.268C140.532 133.268 140.604 133.297 140.658 133.351C140.711 133.404 140.741 133.476 140.741 133.551V135.386C140.741 135.462 140.711 135.534 140.658 135.587C140.604 135.64 140.532 135.67 140.456 135.67Z" fill="#373C45"/>
<path d="M148.839 135.853C148.764 135.853 148.691 135.823 148.638 135.77C148.585 135.717 148.555 135.644 148.555 135.569V133.371C148.555 133.296 148.585 133.224 148.638 133.171C148.691 133.118 148.764 133.088 148.839 133.088C148.915 133.088 148.987 133.118 149.04 133.171C149.094 133.224 149.124 133.296 149.124 133.371V135.569C149.124 135.644 149.094 135.717 149.04 135.77C148.987 135.823 148.915 135.853 148.839 135.853Z" fill="#373C45"/>
<path d="M135.952 128.209C135.877 128.209 135.805 128.179 135.751 128.126C135.698 128.072 135.668 128 135.668 127.925V126.367C135.668 126.292 135.698 126.22 135.751 126.167C135.805 126.114 135.877 126.084 135.952 126.084C136.028 126.084 136.1 126.114 136.154 126.167C136.207 126.22 136.237 126.292 136.237 126.367V127.925C136.237 128 136.207 128.072 136.154 128.126C136.1 128.179 136.028 128.209 135.952 128.209Z" fill="#373C45"/>
<path d="M203.831 109.95C203.529 109.646 203.359 109.236 203.359 108.808C203.359 108.38 203.529 107.97 203.831 107.666L206.39 105.118L203.851 102.591C203.547 102.288 203.377 101.877 203.377 101.449C203.377 101.021 203.547 100.61 203.852 100.307C204.156 100.004 204.568 99.8343 204.998 99.8343C205.428 99.8343 205.841 100.004 206.145 100.307L208.696 102.847L211.231 100.323C211.535 100.02 211.947 99.8503 212.377 99.8503C212.807 99.8503 213.22 100.02 213.524 100.323C213.828 100.626 213.999 101.037 213.999 101.465C213.999 101.893 213.828 102.304 213.524 102.607L210.973 105.147L213.524 107.686C213.828 107.99 214 108.401 214.001 108.829C214.001 109.258 213.831 109.67 213.528 109.974C213.222 110.275 212.809 110.443 212.378 110.442C211.948 110.441 211.536 110.272 211.231 109.97L208.664 107.414L206.113 109.954C205.808 110.251 205.398 110.417 204.971 110.416C204.545 110.416 204.135 110.248 203.831 109.95ZM205.734 100.716C205.537 100.519 205.269 100.409 204.99 100.409C204.711 100.409 204.443 100.519 204.246 100.716C204.048 100.912 203.937 101.179 203.937 101.457C203.937 101.735 204.048 102.002 204.246 102.198L206.998 104.938C207.051 104.991 207.081 105.063 207.081 105.139C207.081 105.214 207.051 105.286 206.998 105.339L204.246 108.079C204.048 108.276 203.937 108.542 203.937 108.82C203.937 109.098 204.048 109.365 204.246 109.561C204.443 109.758 204.711 109.868 204.99 109.868C205.269 109.868 205.537 109.758 205.734 109.561L208.487 106.821C208.54 106.768 208.612 106.738 208.688 106.738C208.763 106.738 208.836 106.768 208.889 106.821L211.641 109.561C211.738 109.659 211.854 109.737 211.982 109.79C212.11 109.843 212.247 109.87 212.385 109.87C212.594 109.87 212.798 109.809 212.971 109.693C213.145 109.578 213.28 109.414 213.359 109.222C213.439 109.031 213.46 108.819 213.419 108.616C213.378 108.412 213.277 108.225 213.13 108.079L210.378 105.339C210.326 105.285 210.297 105.213 210.297 105.139C210.297 105.064 210.326 104.992 210.378 104.938L213.122 102.206C213.319 102.01 213.43 101.743 213.43 101.465C213.43 101.187 213.319 100.92 213.122 100.724C212.924 100.527 212.656 100.417 212.377 100.417C212.098 100.417 211.83 100.527 211.633 100.724L208.881 103.464C208.828 103.517 208.755 103.547 208.68 103.547C208.604 103.547 208.532 103.517 208.479 103.464L205.734 100.716Z" fill="#373C45"/>
<path d="M106.831 79.9498C106.529 79.6462 106.359 79.2358 106.359 78.8081C106.359 78.3803 106.529 77.9699 106.831 77.6663L109.39 75.1185L106.851 72.5907C106.547 72.2879 106.377 71.8772 106.377 71.449C106.377 71.0207 106.547 70.6101 106.852 70.3073C107.156 70.0044 107.568 69.8343 107.998 69.8343C108.428 69.8343 108.841 70.0044 109.145 70.3072L111.696 72.8471L114.231 70.3233C114.535 70.0205 114.947 69.8503 115.377 69.8503C115.807 69.8503 116.22 70.0205 116.524 70.3233C116.828 70.6261 116.999 71.0368 116.999 71.465C116.999 71.8932 116.828 72.3039 116.524 72.6067L113.973 75.1465L116.524 77.6864C116.828 77.9895 117 78.4005 117.001 78.8293C117.001 79.258 116.831 79.6696 116.528 79.9738C116.222 80.2746 115.809 80.4428 115.378 80.4421C114.948 80.4413 114.536 80.2716 114.231 79.9698L111.664 77.414L109.113 79.9538C108.808 80.251 108.398 80.4172 107.971 80.4164C107.545 80.4157 107.135 80.2481 106.831 79.9498ZM108.734 70.7159C108.537 70.5193 108.269 70.4089 107.99 70.4089C107.711 70.4089 107.443 70.5193 107.246 70.7159C107.048 70.9124 106.937 71.179 106.937 71.457C106.937 71.7349 107.048 72.0015 107.246 72.1981L109.998 74.9382C110.051 74.9914 110.081 75.0634 110.081 75.1385C110.081 75.2136 110.051 75.2857 109.998 75.3388L107.246 78.079C107.048 78.2755 106.937 78.5421 106.937 78.8201C106.937 79.098 107.048 79.3646 107.246 79.5612C107.443 79.7578 107.711 79.8682 107.99 79.8682C108.269 79.8682 108.537 79.7577 108.734 79.5612L111.487 76.8211C111.54 76.7679 111.612 76.7381 111.688 76.7381C111.763 76.7381 111.836 76.7679 111.889 76.8211L114.641 79.5612C114.738 79.6593 114.854 79.7371 114.982 79.7901C115.11 79.843 115.247 79.8701 115.385 79.8697C115.594 79.87 115.798 79.8086 115.971 79.6933C116.145 79.5781 116.28 79.4142 116.359 79.2224C116.439 79.0305 116.46 78.8195 116.419 78.6159C116.378 78.4123 116.277 78.2255 116.13 78.079L113.378 75.3388C113.326 75.285 113.297 75.2132 113.297 75.1385C113.297 75.0638 113.326 74.992 113.378 74.9382L116.122 72.2061C116.319 72.0095 116.43 71.743 116.43 71.465C116.43 71.187 116.319 70.9204 116.122 70.7239C115.924 70.5273 115.656 70.4169 115.377 70.4169C115.098 70.4169 114.83 70.5273 114.633 70.7239L111.881 73.464C111.828 73.5171 111.755 73.547 111.68 73.547C111.604 73.547 111.532 73.5171 111.479 73.464L108.734 70.7159Z" fill="#373C45"/>
<path d="M55.8314 27.9498C55.5286 27.6462 55.3587 27.2358 55.3587 26.8081C55.3587 26.3803 55.5286 25.9699 55.8314 25.6663L58.3903 23.1185L55.8515 20.5907C55.5474 20.2879 55.3765 19.8772 55.3765 19.449C55.3765 19.0207 55.5474 18.6101 55.8515 18.3073C56.1556 18.0044 56.5681 17.8343 56.9982 17.8343C57.4283 17.8343 57.8408 18.0044 58.1449 18.3072L60.6958 20.8471L63.2306 18.3233C63.5347 18.0205 63.9472 17.8503 64.3773 17.8503C64.8074 17.8503 65.2198 18.0205 65.524 18.3233C65.8281 18.6261 65.9989 19.0368 65.9989 19.465C65.9989 19.8932 65.8281 20.3039 65.524 20.6067L62.9731 23.1465L65.524 25.6864C65.8285 25.9895 65.9999 26.4005 66.0006 26.8293C66.0014 27.258 65.8314 27.6696 65.528 27.9738C65.2217 28.2746 64.8086 28.4428 64.3785 28.4421C63.9483 28.4413 63.5358 28.2716 63.2306 27.9698L60.6636 25.414L58.1127 27.9538C57.8078 28.251 57.3979 28.4172 56.9712 28.4164C56.5445 28.4157 56.1352 28.2481 55.8314 27.9498ZM57.7345 18.7159C57.5371 18.5193 57.2693 18.4089 56.9901 18.4089C56.7109 18.4089 56.4432 18.5193 56.2458 18.7159C56.0484 18.9124 55.9375 19.179 55.9375 19.457C55.9375 19.7349 56.0484 20.0015 56.2458 20.1981L58.9979 22.9382C59.0512 22.9914 59.0812 23.0634 59.0812 23.1385C59.0812 23.2136 59.0512 23.2857 58.9979 23.3388L56.2458 26.079C56.0484 26.2755 55.9375 26.5421 55.9375 26.8201C55.9375 27.098 56.0484 27.3646 56.2458 27.5612C56.4432 27.7578 56.711 27.8682 56.9901 27.8682C57.2693 27.8682 57.5371 27.7577 57.7345 27.5612L60.4865 24.8211C60.5399 24.7679 60.6123 24.7381 60.6877 24.7381C60.7632 24.7381 60.8355 24.7679 60.8889 24.8211L63.641 27.5612C63.7382 27.6593 63.8541 27.7371 63.9819 27.7901C64.1097 27.843 64.2469 27.8701 64.3853 27.8697C64.5938 27.87 64.7977 27.8086 64.9711 27.6933C65.1446 27.5781 65.2797 27.4142 65.3594 27.2224C65.4392 27.0305 65.4599 26.8195 65.419 26.6159C65.3781 26.4123 65.2774 26.2255 65.1297 26.079L62.3776 23.3388C62.3256 23.285 62.2965 23.2132 62.2965 23.1385C62.2965 23.0638 62.3256 22.992 62.3776 22.9382L65.1216 20.2061C65.319 20.0095 65.4299 19.743 65.4299 19.465C65.4299 19.187 65.319 18.9204 65.1216 18.7239C64.9242 18.5273 64.6564 18.4169 64.3773 18.4169C64.0981 18.4169 63.8303 18.5273 63.6329 18.7239L60.8809 21.464C60.8275 21.5171 60.7551 21.547 60.6797 21.547C60.6042 21.547 60.5319 21.5171 60.4785 21.464L57.7345 18.7159Z" fill="#373C45"/>
<path d="M276.831 50.9498C276.529 50.6462 276.359 50.2358 276.359 49.8081C276.359 49.3803 276.529 48.9699 276.831 48.6663L279.39 46.1185L276.851 43.5907C276.547 43.2879 276.377 42.8772 276.377 42.449C276.377 42.0207 276.547 41.6101 276.852 41.3073C277.156 41.0044 277.568 40.8343 277.998 40.8343C278.428 40.8343 278.841 41.0044 279.145 41.3072L281.696 43.8471L284.231 41.3233C284.535 41.0205 284.947 40.8503 285.377 40.8503C285.807 40.8503 286.22 41.0205 286.524 41.3233C286.828 41.6261 286.999 42.0368 286.999 42.465C286.999 42.8932 286.828 43.3039 286.524 43.6067L283.973 46.1465L286.524 48.6864C286.828 48.9895 287 49.4005 287.001 49.8293C287.001 50.258 286.831 50.6696 286.528 50.9738C286.222 51.2746 285.809 51.4428 285.378 51.4421C284.948 51.4413 284.536 51.2716 284.231 50.9698L281.664 48.414L279.113 50.9538C278.808 51.251 278.398 51.4172 277.971 51.4164C277.545 51.4157 277.135 51.2481 276.831 50.9498ZM278.734 41.7159C278.537 41.5193 278.269 41.4089 277.99 41.4089C277.711 41.4089 277.443 41.5193 277.246 41.7159C277.048 41.9124 276.937 42.179 276.937 42.457C276.937 42.7349 277.048 43.0015 277.246 43.1981L279.998 45.9382C280.051 45.9914 280.081 46.0634 280.081 46.1385C280.081 46.2136 280.051 46.2857 279.998 46.3388L277.246 49.079C277.048 49.2755 276.937 49.5421 276.937 49.8201C276.937 50.098 277.048 50.3646 277.246 50.5612C277.443 50.7578 277.711 50.8682 277.99 50.8682C278.269 50.8682 278.537 50.7577 278.734 50.5612L281.487 47.8211C281.54 47.7679 281.612 47.7381 281.688 47.7381C281.763 47.7381 281.836 47.7679 281.889 47.8211L284.641 50.5612C284.738 50.6593 284.854 50.7371 284.982 50.7901C285.11 50.843 285.247 50.8701 285.385 50.8697C285.594 50.87 285.798 50.8086 285.971 50.6933C286.145 50.5781 286.28 50.4142 286.359 50.2224C286.439 50.0305 286.46 49.8195 286.419 49.6159C286.378 49.4123 286.277 49.2255 286.13 49.079L283.378 46.3388C283.326 46.285 283.297 46.2132 283.297 46.1385C283.297 46.0638 283.326 45.992 283.378 45.9382L286.122 43.2061C286.319 43.0095 286.43 42.743 286.43 42.465C286.43 42.187 286.319 41.9204 286.122 41.7239C285.924 41.5273 285.656 41.4169 285.377 41.4169C285.098 41.4169 284.83 41.5273 284.633 41.7239L281.881 44.464C281.828 44.5171 281.755 44.547 281.68 44.547C281.604 44.547 281.532 44.5171 281.479 44.464L278.734 41.7159Z" fill="#373C45"/>
<path d="M6.832 116.949C6.52927 116.646 6.35937 116.235 6.35938 115.808C6.35938 115.38 6.52928 114.97 6.83201 114.666L9.39095 112.118L6.85213 109.59C6.54801 109.288 6.37715 108.877 6.37715 108.449C6.37715 108.02 6.54802 107.61 6.85214 107.307C7.15626 107.004 7.56873 106.834 7.99883 106.834C8.42892 106.834 8.8414 107.004 9.14552 107.307L11.6964 109.847L14.2312 107.323C14.5353 107.02 14.9478 106.85 15.3779 106.85C15.808 106.85 16.2205 107.02 16.5246 107.323C16.8287 107.626 16.9996 108.036 16.9996 108.465C16.9996 108.893 16.8287 109.304 16.5246 109.606L13.9737 112.146L16.5246 114.686C16.8291 114.989 17.0005 115.4 17.0013 115.829C17.002 116.258 16.832 116.669 16.5286 116.973C16.2223 117.274 15.8093 117.442 15.3791 117.442C14.9489 117.441 14.5364 117.271 14.2312 116.969L11.6642 114.414L9.11333 116.953C8.80847 117.251 8.39856 117.417 7.97186 117.416C7.54516 117.415 7.13581 117.248 6.832 116.949ZM8.73513 107.716C8.53771 107.519 8.26995 107.409 7.99077 107.409C7.71159 107.409 7.44386 107.519 7.24644 107.716C7.04903 107.912 6.93811 108.179 6.93811 108.457C6.93811 108.735 7.04902 109.001 7.24643 109.198L9.99851 111.938C10.0519 111.991 10.0818 112.063 10.0818 112.138C10.0818 112.213 10.0519 112.285 9.99851 112.339L7.24644 115.079C7.04903 115.275 6.93811 115.542 6.93811 115.82C6.93811 116.098 7.04902 116.364 7.24643 116.561C7.44385 116.757 7.7116 116.868 7.99079 116.868C8.26997 116.868 8.5377 116.757 8.73512 116.561L11.4872 113.821C11.5405 113.768 11.6129 113.738 11.6884 113.738C11.7638 113.738 11.8362 113.768 11.8895 113.821L14.6416 116.561C14.7389 116.659 14.8548 116.737 14.9826 116.79C15.1104 116.843 15.2475 116.87 15.386 116.869C15.5945 116.87 15.7983 116.808 15.9718 116.693C16.1452 116.578 16.2804 116.414 16.3601 116.222C16.4398 116.03 16.4606 115.819 16.4196 115.616C16.3787 115.412 16.278 115.225 16.1303 115.079L13.3782 112.338C13.3262 112.285 13.2972 112.213 13.2972 112.138C13.2972 112.063 13.3262 111.992 13.3782 111.938L16.1222 109.206C16.3197 109.009 16.4306 108.743 16.4306 108.465C16.4306 108.187 16.3197 107.92 16.1223 107.724C15.9248 107.527 15.6571 107.417 15.3779 107.417C15.0987 107.417 14.831 107.527 14.6336 107.724L11.8815 110.464C11.8282 110.517 11.7558 110.547 11.6803 110.547C11.6049 110.547 11.5325 110.517 11.4792 110.464L8.73513 107.716Z" fill="#373C45"/>
<path d="M275.818 137.5H12.1816C12.1334 137.5 12.0872 137.447 12.0532 137.354C12.0191 137.26 12 137.133 12 137C12 136.867 12.0191 136.74 12.0532 136.646C12.0872 136.553 12.1334 136.5 12.1816 136.5H275.818C275.867 136.5 275.913 136.553 275.947 136.646C275.981 136.74 276 136.867 276 137C276 137.133 275.981 137.26 275.947 137.354C275.913 137.447 275.867 137.5 275.818 137.5Z" fill="#373C45"/>
</svg>
