<svg width="500" height="300" viewBox="0 0 500 300" fill="none" xmlns="http://www.w3.org/2000/svg">
<path d="M153.5 34.9443C153.5 34.9443 104.224 71.5944 85.8849 116.885C67.5458 162.176 81.5792 212.939 123.998 244.548C166.418 276.158 229.329 258.661 288.572 272.414C347.815 286.167 405.942 269.678 419.418 213.587C432.893 157.495 390.234 145.831 369.902 87.9393C349.569 30.048 271.349 -45.3403 153.5 34.9443Z" fill="#6CCBAF"/>
<path opacity="0.7" d="M153.5 34.9443C153.5 34.9443 104.224 71.5944 85.8849 116.885C67.5458 162.176 81.5792 212.939 123.998 244.548C166.418 276.158 229.329 258.661 288.572 272.414C347.815 286.167 405.942 269.678 419.418 213.587C432.893 157.495 390.234 145.831 369.902 87.9393C349.569 30.048 271.349 -45.3403 153.5 34.9443Z" fill="white"/>
<path d="M400.314 278.4H103.602V279.12H400.314V278.4Z" fill="#373C45"/>
<path d="M95.68 278.4H91V279.12H95.68V278.4Z" fill="#373C45"/>
<path d="M230.822 69.528H193.67C192.806 69.528 192.086 68.808 192.086 67.944V45.48C192.086 44.616 192.806 43.896 193.67 43.896H230.822C231.686 43.896 232.406 44.616 232.406 45.48V67.944C232.406 68.808 231.686 69.528 230.822 69.528ZM193.67 44.616C193.238 44.616 192.806 44.976 192.806 45.48V67.944C192.806 68.376 193.166 68.808 193.67 68.808H230.822C231.254 68.808 231.686 68.448 231.686 67.944V45.48C231.686 45.048 231.326 44.616 230.822 44.616H193.67Z" fill="#373C45"/>
<path d="M232.406 65.064H192.086V58.584H232.406V65.064ZM192.806 64.344H231.686V59.304H192.806V64.344Z" fill="#373C45"/>
<path d="M225.854 52.104C224.126 52.104 222.758 50.736 222.758 49.008C222.758 47.28 224.126 45.912 225.854 45.912C227.582 45.912 228.95 47.28 228.95 49.008C228.95 50.736 227.51 52.104 225.854 52.104ZM225.854 46.704C224.558 46.704 223.478 47.784 223.478 49.08C223.478 50.376 224.558 51.456 225.854 51.456C227.15 51.456 228.23 50.376 228.23 49.08C228.23 47.784 227.15 46.704 225.854 46.704Z" fill="#373C45"/>
<path d="M221.682 52.104C219.954 52.104 218.586 50.736 218.586 49.008C218.586 47.28 219.954 45.912 221.682 45.912C223.41 45.912 224.778 47.28 224.778 49.008C224.778 50.736 223.338 52.104 221.682 52.104ZM221.682 46.704C220.386 46.704 219.306 47.784 219.306 49.08C219.306 50.376 220.386 51.456 221.682 51.456C222.978 51.456 224.058 50.376 224.058 49.08C224.058 47.784 222.978 46.704 221.682 46.704Z" fill="#373C45"/>
<path d="M206.849 47.928H195.977V48.648H206.849V47.928Z" fill="#373C45"/>
<path d="M141.833 163.128C141.617 163.128 141.401 163.128 141.257 163.056C140.681 162.912 140.105 162.624 139.673 162.192C139.241 161.76 138.953 161.184 138.809 160.608C138.665 160.032 138.737 159.384 138.953 158.808C139.169 158.232 139.601 157.8 140.105 157.44C141.329 156.648 142.985 156.792 143.993 157.8C144.569 158.376 144.929 159.168 144.929 159.96C144.929 160.536 144.785 161.184 144.425 161.688C144.065 162.192 143.633 162.552 143.057 162.84C142.625 163.056 142.265 163.128 141.833 163.128ZM141.833 157.728C141.401 157.728 140.897 157.872 140.537 158.16C140.177 158.448 139.817 158.808 139.673 159.24C139.529 159.672 139.457 160.176 139.529 160.608C139.601 161.04 139.817 161.472 140.177 161.832C140.537 162.192 140.897 162.408 141.401 162.48C141.833 162.552 142.337 162.552 142.769 162.336C143.201 162.192 143.561 161.832 143.849 161.472C144.137 161.112 144.281 160.608 144.281 160.176C144.281 159.528 144.065 158.952 143.561 158.52C143.057 157.944 142.481 157.728 141.833 157.728Z" fill="#373C45"/>
<path d="M137.729 163.128C136.001 163.128 134.633 161.76 134.633 160.032C134.633 158.304 136.001 156.936 137.729 156.936C139.457 156.936 140.825 158.304 140.825 160.032C140.825 161.76 139.385 163.128 137.729 163.128ZM137.729 157.728C136.433 157.728 135.353 158.808 135.353 160.104C135.353 161.4 136.433 162.48 137.729 162.48C139.025 162.48 140.105 161.4 140.105 160.104C140.033 158.736 139.025 157.728 137.729 157.728Z" fill="#373C45"/>
<path d="M139.736 180.552H102.584C101.72 180.552 101 179.832 101 178.968V156.504C101 155.64 101.72 154.92 102.584 154.92H139.736C140.6 154.92 141.32 155.64 141.32 156.504V178.968C141.32 179.832 140.6 180.552 139.736 180.552ZM102.584 155.64C102.152 155.64 101.72 156 101.72 156.504V178.968C101.72 179.4 102.08 179.832 102.584 179.832H139.736C140.168 179.832 140.6 179.472 140.6 178.968V156.504C140.6 156.072 140.24 155.64 139.736 155.64H102.584Z" fill="#373C45"/>
<path d="M141.32 176.088H101V169.608H141.32V176.088ZM101.72 175.368H140.6V170.328H101.72V175.368Z" fill="#373C45"/>
<path d="M115.763 158.88H104.891V159.6H115.763V158.88Z" fill="#373C45"/>
<path d="M391.272 68.272H366V43H391.272V68.272ZM366.72 67.552H390.552V43.72H366.72V67.552Z" fill="#373C45"/>
<path d="M380.324 63.016H376.94V56.752H370.676V53.368H376.94V47.104H380.324V53.368H386.588V56.752H380.324V63.016ZM377.66 62.296H379.604V56.032H385.868V54.088H379.604V47.824H377.66V54.088H371.396V56.032H377.66V62.296Z" fill="#373C45"/>
<path d="M415.821 68.272H390.477V43H415.821V68.272ZM391.197 67.552H415.101V43.72H391.197V67.552Z" fill="#373C45"/>
<path d="M410.062 56.392H396.238V53.368H410.062V56.392ZM396.958 55.672H409.342V54.088H396.958V55.672Z" fill="#373C45"/>
<path d="M391.272 92.824H366V67.552H391.272V92.824ZM366.72 92.104H390.552V68.272H366.72V92.104Z" fill="#373C45"/>
<path d="M374.204 86.416L371.828 84.04L376.292 79.648L371.828 75.256L374.204 72.88L378.596 77.272L383.06 72.88L385.436 75.256L380.972 79.648L385.436 84.04L383.06 86.416L378.596 81.952L374.204 86.416ZM378.596 80.944L383.06 85.408L384.428 84.04L379.964 79.648L384.428 75.256L383.06 73.888L378.596 78.28L374.204 73.888L372.836 75.256L377.3 79.648L372.836 84.04L374.204 85.408L378.596 80.944Z" fill="#373C45"/>
<path d="M415.821 92.824H390.477V67.552H415.821V92.824ZM391.197 92.104H415.101V68.272H391.197V92.104Z" fill="#373C45"/>
<path d="M410.062 80.944H396.238V77.92H410.062V80.944ZM396.958 80.224H409.342V78.64H396.958V80.224Z" fill="#373C45"/>
<path d="M403.153 76.5519C402.649 76.5519 402.073 76.3359 401.713 75.9759C401.353 75.6159 401.137 75.1119 401.137 74.5359C401.137 74.1039 401.281 73.7439 401.497 73.3839C401.713 73.0239 402.001 72.8079 402.433 72.6639C402.793 72.5199 403.225 72.4479 403.585 72.5199C403.945 72.5919 404.305 72.8079 404.593 73.0959C404.881 73.3839 405.097 73.7439 405.169 74.1039C405.241 74.4639 405.241 74.8959 405.025 75.2559C404.881 75.6159 404.593 75.9039 404.305 76.1919C403.945 76.4079 403.585 76.5519 403.153 76.5519ZM403.153 73.2399C403.009 73.2399 402.793 73.2399 402.649 73.3119C402.433 73.3839 402.217 73.5999 402.073 73.8159C401.929 74.0319 401.857 74.2479 401.857 74.5359C401.857 74.8959 402.001 75.1839 402.217 75.4719C402.649 75.9039 403.369 75.9759 403.873 75.6159C404.089 75.4719 404.233 75.2559 404.377 75.0399C404.449 74.8239 404.521 74.5359 404.449 74.3199C404.377 74.1039 404.305 73.8159 404.089 73.6719C403.873 73.4559 403.657 73.3839 403.441 73.3119C403.297 73.2399 403.225 73.2399 403.153 73.2399Z" fill="#373C45"/>
<path d="M403.153 86.56C402.073 86.56 401.137 85.624 401.137 84.544C401.137 83.464 402.073 82.528 403.153 82.528C404.233 82.528 405.169 83.464 405.169 84.544C405.169 85.624 404.233 86.56 403.153 86.56ZM403.153 83.248C402.433 83.248 401.857 83.824 401.857 84.544C401.857 85.264 402.433 85.84 403.153 85.84C403.873 85.84 404.449 85.264 404.449 84.544C404.449 83.824 403.873 83.248 403.153 83.248Z" fill="#373C45"/>
<path d="M75.272 251.832H59V235.56H75.272V251.832ZM59.72 251.112H74.552V236.28H59.72V251.112Z" fill="#373C45"/>
<path d="M68.2891 248.52H65.9131V244.56H61.9531V242.184H65.9131V238.224H68.2891V242.184H72.2491V244.56H68.2891V248.52ZM66.6331 247.8H67.5691V243.84H71.5291V242.904H67.5691V238.944H66.6331V242.904H62.6731V243.84H66.6331V247.8Z" fill="#373C45"/>
<path d="M90.7525 251.832H74.4805V235.56H90.7525V251.832ZM75.2005 251.112H90.0325V236.28H75.2005V251.112Z" fill="#373C45"/>
<path d="M87.082 244.272H78.082V242.112H87.082V244.272ZM78.802 243.552H86.362V242.832H78.802V243.552Z" fill="#373C45"/>
<path d="M75.272 267.312H59V251.04H75.272V267.312ZM59.72 266.592H74.552V251.76H59.72V266.592Z" fill="#373C45"/>
<path d="M64.3257 263.352L62.5977 261.624L65.4057 258.816L62.5977 256.008L64.3257 254.28L67.1337 257.088L69.9417 254.28L71.6697 256.008L68.8617 258.816L71.6697 261.624L69.9417 263.352L67.1337 260.544L64.3257 263.352ZM67.1337 259.536L69.9417 262.344L70.5897 261.696L67.7817 258.888L70.5897 256.08L69.9417 255.432L67.1337 258.24L64.3257 255.36L63.6777 256.008L66.4857 258.816L63.6777 261.624L64.3257 262.272L67.1337 259.536Z" fill="#373C45"/>
<path d="M90.7525 267.312H74.4805V251.04H90.7525V267.312ZM75.2005 266.592H90.0325V251.76H75.2005V266.592Z" fill="#373C45"/>
<path d="M87.082 259.824H78.082V257.664H87.082V259.824ZM78.802 259.104H86.362V258.384H78.802V259.104Z" fill="#373C45"/>
<path d="M82.6141 257.016C81.8221 257.016 81.2461 256.368 81.2461 255.648C81.2461 254.856 81.8941 254.28 82.6141 254.28C83.3341 254.28 83.9821 254.928 83.9821 255.648C83.9821 256.44 83.4061 257.016 82.6141 257.016ZM82.6141 254.928C82.2541 254.928 81.9661 255.216 81.9661 255.576C81.9661 255.936 82.2541 256.224 82.6141 256.224C82.9741 256.224 83.2621 255.936 83.2621 255.576C83.2621 255.288 82.9741 254.928 82.6141 254.928Z" fill="#373C45"/>
<path d="M82.6166 263.352C82.5446 263.352 82.4006 263.352 82.3286 263.352C82.0406 263.28 81.8246 263.136 81.6086 262.992C81.3926 262.776 81.2486 262.56 81.2486 262.272C81.1766 261.984 81.2486 261.696 81.3206 261.48C81.3926 261.192 81.6086 260.976 81.8246 260.832C82.3286 260.472 83.1206 260.544 83.6246 260.976C83.9126 261.264 84.0566 261.624 84.0566 261.984C84.0566 262.272 83.9846 262.56 83.8406 262.776C83.6966 262.992 83.4806 263.208 83.1926 263.28C82.9766 263.352 82.7606 263.352 82.6166 263.352ZM82.6166 261.264C82.4726 261.264 82.3286 261.336 82.2566 261.408C82.1846 261.48 82.0406 261.624 81.9686 261.696C81.8966 261.84 81.8966 261.984 81.8966 262.056C81.8966 262.2 81.9686 262.344 82.1126 262.416C82.2566 262.488 82.3286 262.56 82.4726 262.632C82.6166 262.632 82.7606 262.632 82.8326 262.56C82.9766 262.488 83.0486 262.416 83.1206 262.344C83.1926 262.2 83.2646 262.128 83.2646 261.984C83.2646 261.768 83.1926 261.624 83.0486 261.48C82.9766 261.336 82.7606 261.264 82.6166 261.264Z" fill="#373C45"/>
<path d="M279.855 53.0401C279.783 53.0401 279.711 53.0401 279.639 52.9681C279.567 52.9681 279.423 52.896 279.351 52.824C279.279 52.752 279.207 52.6801 279.207 52.5361C279.207 52.3921 279.135 52.3201 279.207 52.1761L279.279 51.312C276.543 50.9521 274.887 49.1521 274.887 46.704V45.6961C274.887 45.6241 274.887 45.5521 274.887 45.4081C274.959 45.3361 274.959 45.1921 275.031 45.1201C275.103 45.0481 275.175 44.9761 275.319 44.9761C275.391 44.9761 275.535 44.9041 275.607 44.9761H278.055C278.559 44.9761 278.847 45.336 278.847 45.624V45.984C278.847 46.272 278.847 46.4881 278.991 46.7761C279.135 47.0641 279.207 47.208 279.423 47.424C279.639 47.568 279.855 47.7121 280.071 47.8561C280.287 47.9281 280.575 48.0001 280.863 47.9281C282.231 47.9281 282.735 47.1361 282.735 46.4161C282.735 45.6241 281.799 45.1921 280.215 44.6161C279.351 44.2561 278.415 43.8961 277.551 43.3201C276.327 42.5281 274.887 41.3041 274.887 38.9281C274.887 36.2641 276.543 34.3921 279.279 33.9601L279.207 32.8801C279.207 32.8081 279.207 32.7361 279.207 32.5921C279.207 32.5201 279.279 32.376 279.351 32.304C279.423 32.232 279.495 32.1601 279.639 32.1601C279.711 32.1601 279.855 32.0881 279.999 32.1601H281.295C281.367 32.1601 281.439 32.1601 281.583 32.2321C281.655 32.2321 281.799 32.3041 281.871 32.3761C281.943 32.4481 282.015 32.52 282.015 32.664C282.087 32.808 282.087 32.88 282.015 33.024V34.0321C284.895 34.3921 286.623 36.1921 286.623 38.8561V39.6481C286.623 39.7201 286.623 39.8641 286.551 39.9361C286.551 40.0081 286.479 40.152 286.407 40.224C286.335 40.296 286.263 40.3681 286.119 40.3681C286.047 40.4401 285.903 40.4401 285.831 40.4401H283.383C282.879 40.4401 282.591 40.152 282.591 39.864V39.3601C282.591 39.0721 282.591 38.7841 282.519 38.5681C282.447 38.3521 282.303 38.0641 282.087 37.9201C281.871 37.7041 281.655 37.5601 281.439 37.4881C281.223 37.4161 280.935 37.344 280.647 37.344C279.495 37.344 278.847 37.9201 278.847 38.712C278.847 39.5761 279.711 39.936 281.295 40.512C281.799 40.7281 282.375 40.8721 282.951 41.1601C285.471 42.2401 286.695 43.8961 286.695 46.2001C286.767 49.0081 285.039 50.952 282.087 51.384V52.2481C282.087 52.3201 282.087 52.3921 282.087 52.5361C282.087 52.6081 282.015 52.752 281.943 52.824C281.871 52.896 281.799 52.9681 281.655 52.9681C281.583 52.9681 281.439 53.0401 281.295 52.9681L279.855 53.0401ZM275.535 45.6961L275.463 46.7761C275.463 48.9361 276.975 50.376 279.423 50.664C279.567 50.664 279.711 50.7361 279.783 50.8801C279.855 50.9521 279.927 51.0961 279.927 51.1681L279.855 52.3201H281.295L281.367 51.2401C281.367 51.0961 281.439 50.9521 281.511 50.8801C281.583 50.8081 281.727 50.7361 281.799 50.7361C284.463 50.3761 285.975 48.7201 285.903 46.2721C285.903 44.2561 284.823 42.8881 282.591 41.8801C282.015 41.6641 281.511 41.448 280.935 41.232C279.351 40.656 277.983 40.152 277.983 38.784C277.983 37.488 278.991 36.6961 280.503 36.6961C280.863 36.6961 281.223 36.6961 281.583 36.8401C281.943 36.9841 282.231 37.2001 282.519 37.4161C282.807 37.7041 282.951 37.9921 283.095 38.3521C283.239 38.712 283.239 39.0721 283.239 39.4321V39.504C283.239 39.504 283.239 39.504 283.311 39.504H285.831L285.903 38.712C285.903 36.3361 284.391 34.8961 281.727 34.6081C281.583 34.6081 281.439 34.5361 281.367 34.3921C281.295 34.3201 281.223 34.1761 281.223 34.0321V32.8081L279.855 32.7361V34.0321C279.855 34.1761 279.783 34.3201 279.711 34.3921C279.639 34.4641 279.567 34.5361 279.423 34.5361C276.831 34.8961 275.391 36.4801 275.391 38.8561C275.391 40.5121 276.111 41.5921 277.695 42.6001C278.487 43.1041 279.423 43.464 280.287 43.824C281.871 44.472 283.239 44.976 283.239 46.344C283.239 47.424 282.447 48.5761 280.719 48.5761C280.359 48.6481 279.999 48.576 279.711 48.4321C279.351 48.288 279.063 48.1441 278.775 47.8561C278.487 47.6401 278.271 47.2801 278.199 46.9921C278.127 46.7041 277.983 46.2721 278.055 45.9121V45.624C278.055 45.624 278.055 45.624 277.983 45.624H275.535V45.6961Z" fill="#373C45"/>
<path d="M280.574 56.496C272.942 56.496 266.75 50.304 266.75 42.672C266.75 35.04 272.942 28.848 280.574 28.848C288.206 28.848 294.398 35.04 294.398 42.672C294.398 50.304 288.206 56.496 280.574 56.496ZM280.574 29.496C273.302 29.496 267.47 35.4 267.47 42.6C267.47 49.8 273.374 55.704 280.574 55.704C287.774 55.704 293.678 49.8 293.678 42.6C293.678 35.4 287.774 29.496 280.574 29.496Z" fill="#373C45"/>
<path d="M172.433 27.408C172.361 27.408 172.289 27.408 172.289 27.408C172.217 27.408 172.145 27.336 172.073 27.264C172.001 27.192 171.929 27.12 171.929 27.048C171.929 26.976 171.857 26.832 171.929 26.76V26.328C170.129 26.04 168.977 24.816 168.977 23.16V22.512C168.977 22.44 168.977 22.368 169.049 22.296C169.049 22.224 169.121 22.152 169.193 22.08C169.265 22.008 169.337 21.936 169.409 21.936C169.481 21.936 169.553 21.864 169.697 21.936H171.281C171.713 21.936 171.929 22.224 171.929 22.512V22.728C171.929 22.872 171.929 23.088 172.001 23.232C172.073 23.376 172.145 23.52 172.289 23.592C172.433 23.664 172.577 23.808 172.721 23.808C172.865 23.88 173.009 23.88 173.153 23.88H173.225H173.297C173.441 23.88 173.585 23.88 173.657 23.88C173.801 23.808 173.873 23.808 174.017 23.664C174.089 23.592 174.161 23.448 174.233 23.376C174.305 23.232 174.305 23.16 174.305 23.016C174.305 22.584 173.729 22.296 172.721 21.936C172.145 21.72 171.497 21.432 170.921 21.072C170.417 20.784 169.913 20.352 169.625 19.848C169.337 19.272 169.121 18.696 169.193 18.048C169.193 17.184 169.481 16.32 170.057 15.672C170.633 15.096 171.353 14.736 172.145 14.592V14.016C172.145 13.944 172.145 13.872 172.145 13.8C172.145 13.728 172.217 13.656 172.289 13.584C172.361 13.512 172.433 13.44 172.505 13.44C172.577 13.44 172.721 13.44 172.793 13.44H173.657C173.729 13.44 173.801 13.44 173.873 13.44C173.945 13.44 174.017 13.512 174.089 13.584C174.161 13.656 174.161 13.728 174.233 13.8C174.305 13.872 174.305 13.944 174.233 14.088V14.664C176.105 14.952 177.329 16.176 177.329 17.976V18.408C177.329 18.48 177.329 18.624 177.329 18.696C177.329 18.84 177.257 18.912 177.185 19.056C177.113 19.128 176.969 19.2 176.825 19.2C176.753 19.2 176.609 19.2 176.537 19.2H174.953C174.521 19.2 174.305 18.912 174.305 18.696V18.552C174.305 18.336 174.305 18.192 174.233 18.048C174.161 17.904 174.089 17.76 173.945 17.616C173.801 17.472 173.657 17.4 173.513 17.328C173.369 17.256 173.225 17.256 173.009 17.256C172.649 17.256 171.929 17.328 171.929 18.048C171.929 18.552 172.505 18.768 173.513 19.128C173.873 19.272 174.233 19.416 174.665 19.56C176.393 20.352 177.257 21.432 177.257 23.016C177.257 24.888 176.105 26.184 174.161 26.544V27.048C174.161 27.12 174.161 27.192 174.161 27.264C174.161 27.336 174.089 27.408 174.017 27.48C173.945 27.552 173.873 27.624 173.801 27.624C173.729 27.624 173.585 27.624 173.513 27.624L172.433 27.408ZM169.553 22.44V23.016C169.553 24.384 170.489 25.32 172.145 25.536C172.289 25.536 172.361 25.608 172.433 25.68C172.505 25.752 172.505 25.824 172.577 25.968V26.688H173.369V26.04C173.369 25.896 173.441 25.824 173.513 25.752C173.585 25.68 173.657 25.608 173.801 25.608C175.529 25.392 176.465 24.312 176.465 22.8C176.465 21.504 175.817 20.64 174.305 19.992C173.945 19.848 173.585 19.704 173.225 19.56C172.145 19.2 171.137 18.84 171.137 17.832C171.137 16.896 171.857 16.32 172.937 16.32C173.153 16.32 173.441 16.32 173.729 16.464C173.945 16.536 174.233 16.68 174.377 16.896C174.593 17.112 174.737 17.328 174.809 17.544C174.881 17.76 174.953 17.976 174.881 18.264H176.393V17.76C176.393 16.248 175.385 15.312 173.729 15.096C173.585 15.096 173.513 15.024 173.441 14.952C173.369 14.88 173.297 14.736 173.297 14.664V13.872H172.577L172.649 14.592C172.649 14.736 172.577 14.88 172.505 14.952C172.433 15.024 172.361 15.096 172.217 15.096C171.497 15.168 170.849 15.456 170.345 15.96C169.841 16.464 169.625 17.184 169.625 17.832C169.625 18.336 169.769 18.84 169.985 19.272C170.273 19.704 170.633 20.064 171.065 20.28C171.641 20.64 172.217 20.856 172.793 21.144C173.873 21.576 174.881 21.936 174.881 22.944C174.881 23.16 174.809 23.376 174.737 23.592C174.665 23.808 174.521 24.024 174.305 24.168C174.161 24.312 173.945 24.456 173.729 24.528C173.513 24.6 173.297 24.6 173.081 24.6C172.865 24.6 172.577 24.6 172.361 24.528C172.145 24.456 171.857 24.312 171.713 24.096C171.497 23.88 171.353 23.664 171.281 23.448C171.209 23.232 171.137 22.944 171.137 22.656V22.584L169.553 22.44Z" fill="#373C45"/>
<path d="M172.864 29.712C170.344 29.712 167.968 28.704 166.24 26.976C164.44 25.176 163.504 22.872 163.504 20.352C163.504 17.832 164.512 15.456 166.24 13.728C169.912 10.056 175.888 10.056 179.56 13.728C183.232 17.4 183.232 23.376 179.56 27.048C177.76 28.704 175.384 29.712 172.864 29.712ZM172.864 11.64C170.632 11.64 168.4 12.504 166.744 14.16C165.088 15.816 164.224 17.976 164.224 20.28C164.224 22.584 165.16 24.744 166.744 26.4C168.4 28.056 170.56 28.92 172.864 28.92C175.168 28.92 177.328 27.984 178.984 26.4C182.368 23.016 182.368 17.544 178.984 14.16C177.328 12.504 175.096 11.64 172.864 11.64Z" fill="#373C45"/>
<path d="M67.8797 117.912H66.9437C66.5837 117.912 66.2957 117.696 66.2957 117.264V116.76C64.4957 116.472 63.3438 115.248 63.3438 113.592V112.872C63.3438 112.8 63.3438 112.728 63.3438 112.656C63.3438 112.584 63.4157 112.512 63.4877 112.44C63.5597 112.368 63.6317 112.296 63.7037 112.296C63.7757 112.296 63.9197 112.224 63.9917 112.296H65.5757C66.0077 112.296 66.2237 112.584 66.2237 112.872V113.088C66.2237 113.232 66.2237 113.448 66.2957 113.592C66.3677 113.736 66.4397 113.88 66.5837 113.952C66.7277 114.024 66.8717 114.168 67.0157 114.168C67.1597 114.24 67.3037 114.24 67.4477 114.24H67.5197H67.5917C67.7357 114.24 67.8797 114.24 67.9517 114.24C68.0957 114.168 68.1677 114.168 68.3117 114.024C68.3837 113.952 68.4557 113.808 68.5277 113.736C68.5997 113.592 68.5997 113.52 68.5997 113.376C68.5997 112.944 68.0237 112.656 67.0157 112.296C66.4397 112.08 65.7917 111.792 65.2157 111.432C64.5677 111.072 64.0637 110.568 63.7037 109.848C63.4157 109.2 63.2717 108.408 63.4157 107.688C63.5597 106.968 63.9917 106.248 64.4957 105.816C64.9997 105.384 65.6477 105.096 66.2957 104.952V104.16C66.2957 104.16 66.2957 104.016 66.2957 103.944C66.2957 103.872 66.3677 103.8 66.4397 103.728C66.5117 103.656 66.5837 103.584 66.6557 103.584C66.7277 103.584 66.8717 103.584 66.9437 103.584H67.8077C67.8797 103.584 67.9517 103.584 68.0237 103.584C68.0957 103.584 68.1677 103.656 68.2397 103.728C68.3117 103.8 68.3837 103.872 68.3837 103.944C68.3837 104.016 68.4557 104.088 68.3837 104.232V104.808C70.2557 105.096 71.4797 106.32 71.4797 108.12V108.624C71.4797 108.696 71.4797 108.768 71.4797 108.84C71.4797 108.912 71.4077 108.984 71.3357 109.056C71.2637 109.128 71.1917 109.128 71.1197 109.2C71.0477 109.2 70.9757 109.272 70.8317 109.2H69.2477C68.8157 109.2 68.5997 108.912 68.5997 108.696V108.552C68.5997 108.336 68.5997 108.192 68.5277 108.048C68.4557 107.904 68.3837 107.76 68.2397 107.616C68.0957 107.472 67.9517 107.4 67.8077 107.328C67.6637 107.256 67.5197 107.256 67.3037 107.256C66.9437 107.256 66.2237 107.328 66.2237 108.048C66.2237 108.552 66.7997 108.768 67.8077 109.128C68.1677 109.272 68.5277 109.416 68.9597 109.56C70.6877 110.352 71.5517 111.432 71.5517 113.016C71.5517 114.888 70.3997 116.256 68.4557 116.616V117.12C68.5277 117.696 68.2397 117.912 67.8797 117.912ZM67.0157 117.192H67.7357V116.544C67.7357 116.4 67.8077 116.328 67.8797 116.256C67.9517 116.184 68.0237 116.112 68.1677 116.112C69.8957 115.896 70.8317 114.816 70.8317 113.232C70.8317 111.936 70.1837 111.072 68.6717 110.424C68.3117 110.28 67.9517 110.136 67.5917 109.992C66.5117 109.632 65.5037 109.272 65.5037 108.192C65.5037 107.256 66.2237 106.68 67.3037 106.68C67.5197 106.68 67.8077 106.68 68.0237 106.824C68.2397 106.896 68.5277 107.04 68.6717 107.256C68.8877 107.472 69.0317 107.688 69.1037 107.904C69.1757 108.12 69.2477 108.336 69.2477 108.624H70.7597V108.192C70.7597 106.68 69.7517 105.744 68.0957 105.528C67.9517 105.528 67.8797 105.456 67.8077 105.384C67.7357 105.312 67.6637 105.24 67.6637 105.096V104.304H66.9437V105.096C66.9437 105.168 66.9437 105.312 66.8717 105.384C66.7997 105.456 66.7277 105.528 66.5837 105.528C65.9358 105.6 65.3597 105.816 64.9277 106.176C64.4957 106.536 64.2077 107.112 64.0637 107.688C63.9197 108.264 63.9917 108.912 64.2797 109.416C64.5677 109.92 64.9997 110.424 65.5037 110.64C66.0797 111 66.6557 111.216 67.2317 111.432C68.3117 111.864 69.3197 112.224 69.3197 113.232C69.3197 113.448 69.2477 113.664 69.1757 113.88C69.1037 114.096 68.9597 114.312 68.7437 114.456C68.5997 114.6 68.3837 114.744 68.1677 114.816C67.9517 114.888 67.7357 114.888 67.5197 114.888C67.3037 114.888 67.0157 114.888 66.7997 114.816C66.5837 114.744 66.2957 114.6 66.1517 114.456C65.9357 114.312 65.7917 114.024 65.7197 113.808C65.6477 113.592 65.5757 113.304 65.5757 113.016V112.944H64.0637V113.592C64.0637 114.96 64.9997 115.896 66.6557 116.112C66.7997 116.112 66.8717 116.184 66.9437 116.256C67.0157 116.328 67.0157 116.472 67.0157 116.544V117.192Z" fill="#373C45"/>
<path d="M67.378 120.216C65.002 120.216 62.554 119.28 60.754 117.48C57.082 113.808 57.082 107.832 60.754 104.16C62.554 102.36 64.858 101.424 67.378 101.424C69.898 101.424 72.274 102.432 74.002 104.16C77.674 107.832 77.674 113.808 74.002 117.48C72.202 119.28 69.754 120.216 67.378 120.216ZM67.378 102.144C65.074 102.144 62.914 103.08 61.258 104.664C57.874 108.048 57.874 113.52 61.258 116.904C64.642 120.288 70.114 120.288 73.498 116.904C76.882 113.52 76.882 108.048 73.498 104.664C71.842 103.08 69.682 102.144 67.378 102.144Z" fill="#373C45"/>
<path d="M431.868 241.536H430.932C430.572 241.536 430.284 241.32 430.284 240.888V240.384C428.484 240.096 427.332 238.872 427.332 237.216V236.568C427.332 236.496 427.332 236.424 427.332 236.352C427.332 236.28 427.404 236.208 427.476 236.136C427.548 236.064 427.62 235.992 427.692 235.992C427.764 235.992 427.836 235.92 427.98 235.992H429.564C429.996 235.992 430.212 236.28 430.212 236.568V236.784C430.212 236.928 430.212 237.144 430.284 237.288C430.356 237.432 430.428 237.576 430.572 237.648C430.716 237.792 430.788 237.864 431.004 237.864C431.148 237.936 431.292 237.936 431.436 237.936H431.508H431.58C431.724 237.936 431.868 237.936 431.94 237.936C432.084 237.864 432.156 237.864 432.3 237.72C432.372 237.648 432.444 237.504 432.516 237.432C432.588 237.288 432.588 237.216 432.588 237.072C432.588 236.64 432.012 236.352 431.004 235.992C430.428 235.776 429.78 235.488 429.204 235.128C428.556 234.768 428.052 234.264 427.692 233.544C427.404 232.896 427.26 232.104 427.404 231.384C427.548 230.664 427.98 229.944 428.484 229.512C428.988 229.08 429.636 228.792 430.284 228.648V228C430.284 228 430.284 227.856 430.284 227.784C430.284 227.712 430.356 227.64 430.428 227.568C430.5 227.496 430.572 227.424 430.644 227.424C430.716 227.424 430.86 227.424 430.932 227.424H431.796C431.868 227.424 431.94 227.424 432.012 227.424C432.084 227.496 432.156 227.496 432.228 227.568C432.3 227.64 432.372 227.712 432.372 227.784C432.372 227.856 432.444 227.928 432.372 228.072V228.648C434.244 228.936 435.468 230.232 435.468 231.96V232.464C435.468 232.536 435.468 232.608 435.468 232.68C435.468 232.752 435.396 232.824 435.324 232.896C435.252 232.968 435.18 233.04 435.108 233.04C435.036 233.04 434.892 233.112 434.82 233.04H433.164C432.732 233.04 432.516 232.752 432.516 232.536V232.32C432.516 232.104 432.516 231.96 432.444 231.816C432.372 231.672 432.3 231.528 432.156 231.384C432.012 231.24 431.868 231.168 431.724 231.096C431.58 231.024 431.436 231.024 431.22 231.024C430.86 231.024 430.14 231.096 430.14 231.816C430.14 232.32 430.716 232.536 431.724 232.896C432.084 233.04 432.444 233.184 432.876 233.328C434.604 234.12 435.468 235.2 435.468 236.784C435.54 238.656 434.316 240.024 432.444 240.312V240.816C432.516 241.32 432.3 241.536 431.868 241.536ZM431.004 240.816H431.724V240.168C431.724 240.096 431.796 239.952 431.868 239.88C431.94 239.808 432.012 239.736 432.156 239.736C433.884 239.52 434.82 238.44 434.82 236.856C434.82 235.56 434.172 234.696 432.66 234.048C432.3 233.904 431.94 233.76 431.58 233.616C430.5 233.256 429.492 232.896 429.492 231.888C429.492 230.952 430.212 230.376 431.292 230.376C431.508 230.376 431.796 230.376 432.084 230.52C432.3 230.592 432.588 230.736 432.732 230.952C432.948 231.168 433.092 231.384 433.164 231.6C433.236 231.816 433.308 232.032 433.308 232.248H434.82V231.888C434.82 230.376 433.812 229.44 432.156 229.224C432.012 229.224 431.94 229.152 431.868 229.08C431.796 229.008 431.724 228.936 431.724 228.792V228H431.004V228.792C431.004 228.936 430.932 229.008 430.932 229.08C430.86 229.152 430.788 229.224 430.644 229.224C429.996 229.296 429.42 229.512 428.988 229.944C428.556 230.304 428.268 230.88 428.124 231.456C427.98 232.032 428.052 232.68 428.34 233.184C428.628 233.688 429.06 234.192 429.564 234.408C430.14 234.768 430.716 234.984 431.292 235.2C432.372 235.632 433.38 235.992 433.38 237C433.38 237.216 433.308 237.432 433.236 237.648C433.164 237.864 433.02 238.08 432.804 238.224C432.66 238.368 432.444 238.512 432.228 238.584C432.012 238.656 431.796 238.656 431.58 238.656C431.364 238.656 431.076 238.656 430.86 238.584C430.644 238.512 430.356 238.368 430.212 238.152C429.996 238.008 429.852 237.72 429.78 237.504C429.708 237.288 429.636 237 429.636 236.712V236.64H428.124V237.216C428.124 238.584 429.06 239.52 430.716 239.736C430.86 239.736 430.932 239.808 431.004 239.88C431.076 239.952 431.076 240.024 431.076 240.168L431.004 240.816ZM432.516 240.168C432.516 240.24 432.516 240.24 432.516 240.168V240.168Z" fill="#373C45"/>
<path d="M431.36 243.84C426.176 243.84 422 239.592 422 234.48C422 229.368 426.248 225.12 431.36 225.12C436.472 225.12 440.72 229.368 440.72 234.48C440.72 239.592 436.544 243.84 431.36 243.84ZM431.36 225.84C426.608 225.84 422.72 229.728 422.72 234.48C422.72 239.232 426.608 243.12 431.36 243.12C436.112 243.12 440 239.232 440 234.48C440 229.728 436.112 225.84 431.36 225.84Z" fill="#373C45"/>
<path d="M371.443 295.32C371.443 297.696 316.291 299.64 248.323 299.64C180.355 299.64 125.203 297.696 125.203 295.32C125.203 292.944 180.355 291 248.395 291C316.435 291 371.443 292.944 371.443 295.32Z" fill="#CACCD1"/>
<path d="M239.387 256.224C239.387 256.224 245.363 282 242.771 286.176C239.387 291.72 203.027 295.032 203.027 295.032H283.091C283.091 295.032 293.099 292.224 290.075 284.16C287.771 277.896 276.539 256.224 276.539 256.224H239.387Z" fill="white"/>
<path d="M283.094 295.464H203.102C202.886 295.464 202.742 295.32 202.742 295.104C202.742 294.888 202.886 294.744 203.102 294.744C203.462 294.744 239.246 291.36 242.558 286.032C244.574 282.792 241.19 265.152 239.102 256.296C239.102 256.224 239.102 256.08 239.174 256.008C239.246 255.936 239.318 255.864 239.462 255.864H276.686C276.83 255.864 276.974 255.936 276.974 256.08C277.118 256.296 288.206 277.896 290.51 284.088C291.374 286.32 291.302 288.336 290.366 290.136C288.422 293.88 283.454 295.32 283.238 295.392C283.166 295.464 283.166 295.464 283.094 295.464ZM209.798 294.744H283.022C283.526 294.6 287.99 293.16 289.646 289.848C290.438 288.192 290.51 286.392 289.718 284.376C287.558 278.544 277.406 258.816 276.326 256.656H239.822C240.614 260.184 245.582 282.432 243.062 286.464C240.542 290.568 220.526 293.448 209.798 294.744Z" fill="#373C45"/>
<path d="M237.662 256.224C237.662 256.224 244.07 282.216 241.046 286.176C238.022 290.208 203.102 293.232 203.102 293.232H283.526C283.526 293.232 290.294 290.496 288.422 284.16C286.55 277.824 274.886 256.224 274.886 256.224H237.662Z" fill="white"/>
<path d="M283.454 293.664H203.102C202.886 293.664 202.742 293.52 202.742 293.304C202.742 293.088 202.886 292.944 203.102 292.944C212.75 292.08 238.382 289.2 240.83 286.032C243.206 282.864 239.174 263.568 237.374 256.368C237.374 256.296 237.374 256.152 237.446 256.08C237.518 256.008 237.59 255.936 237.734 255.936H274.958C275.102 255.936 275.246 256.008 275.246 256.152C275.75 257.016 286.91 277.824 288.782 284.16C290.726 290.784 283.742 293.664 283.67 293.664C283.598 293.664 283.526 293.664 283.454 293.664ZM210.302 292.944H283.454C284.174 292.656 289.718 290.064 288.062 284.304C286.334 278.328 275.822 258.744 274.67 256.584H238.166C239.03 260.184 244.286 282.576 241.406 286.392C239.102 289.416 220.742 291.792 210.302 292.944Z" fill="#373C45"/>
<path d="M274.814 256.224H237.59C237.59 256.224 241.406 271.632 241.766 280.488H286.91C283.31 271.92 274.814 256.224 274.814 256.224Z" fill="#373C45"/>
<path d="M286.985 280.92H241.841C241.625 280.92 241.481 280.776 241.481 280.56C241.121 271.776 237.377 256.512 237.305 256.368C237.305 256.296 237.305 256.152 237.377 256.08C237.449 256.008 237.521 255.936 237.665 255.936H274.889C275.033 255.936 275.177 256.008 275.177 256.152C275.249 256.296 283.673 271.992 287.345 280.488C287.417 280.632 287.345 280.704 287.345 280.848C287.201 280.848 287.129 280.92 286.985 280.92ZM242.129 280.2H286.409C282.953 272.136 275.537 258.384 274.601 256.656H238.097C238.673 259.176 241.769 272.136 242.129 280.2Z" fill="#373C45"/>
<path d="M283.094 293.448H203.102V295.104H283.094V293.448Z" fill="white"/>
<path d="M283.094 295.464H203.102C202.886 295.464 202.742 295.32 202.742 295.104V293.448C202.742 293.232 202.886 293.088 203.102 293.088H283.166C283.382 293.088 283.526 293.232 283.526 293.448V295.104C283.454 295.248 283.31 295.464 283.094 295.464ZM203.462 294.744H282.806V293.808H203.462V294.744Z" fill="#373C45"/>
<path d="M373.598 77.664H144.35C140.966 77.664 138.23 80.4 138.23 83.784V252.696C138.23 256.08 140.966 258.816 144.35 258.816H373.598C376.982 258.816 379.718 256.08 379.718 252.696V83.784C379.718 80.4 376.982 77.664 373.598 77.664Z" fill="white"/>
<path d="M373.599 259.104H144.351C140.751 259.104 137.871 256.224 137.871 252.624V83.784C137.871 80.184 140.751 77.304 144.351 77.304H373.599C377.199 77.304 380.079 80.184 380.079 83.784V252.696C380.079 256.224 377.127 259.104 373.599 259.104ZM144.351 78.024C141.183 78.024 138.591 80.616 138.591 83.784V252.696C138.591 255.864 141.183 258.456 144.351 258.456H373.599C376.767 258.456 379.359 255.864 379.359 252.696V83.784C379.359 80.616 376.767 78.024 373.599 78.024H144.351Z" fill="#373C45"/>
<path d="M367.915 77.664H138.667C135.283 77.664 132.547 80.4 132.547 83.784V252.696C132.547 256.08 135.283 258.816 138.667 258.816H367.915C371.299 258.816 374.035 256.08 374.035 252.696V83.784C374.035 80.4 371.299 77.664 367.915 77.664Z" fill="#373C45"/>
<path d="M367.915 259.104H138.667C135.067 259.104 132.188 256.224 132.188 252.624V83.784C132.188 80.184 135.067 77.304 138.667 77.304H367.915C371.515 77.304 374.395 80.184 374.395 83.784V252.696C374.395 256.224 371.443 259.104 367.915 259.104ZM138.667 78.024C135.499 78.024 132.907 80.616 132.907 83.784V252.696C132.907 255.864 135.499 258.456 138.667 258.456H367.915C371.083 258.456 373.675 255.864 373.675 252.696V83.784C373.675 80.616 371.083 78.024 367.915 78.024H138.667Z" fill="#373C45"/>
<path d="M132.543 230.592H374.031V252.624C374.031 254.208 373.383 255.792 372.231 256.944C371.079 258.096 369.567 258.744 367.911 258.744H138.663C137.079 258.744 135.495 258.096 134.343 256.944C133.191 255.792 132.543 254.28 132.543 252.624V230.592Z" fill="white"/>
<path d="M367.914 259.104H138.666C136.938 259.104 135.282 258.456 134.13 257.232C132.906 256.008 132.258 254.352 132.258 252.696V230.664C132.258 230.448 132.402 230.304 132.618 230.304H374.106C374.322 230.304 374.466 230.448 374.466 230.664V252.696C374.466 254.424 373.818 256.08 372.594 257.232C371.37 258.384 369.642 259.104 367.914 259.104ZM132.906 230.952V252.624C132.906 254.136 133.482 255.576 134.562 256.656C135.642 257.736 137.082 258.312 138.594 258.312H367.914C369.426 258.312 370.866 257.736 371.946 256.656C373.026 255.576 373.602 254.136 373.602 252.624V230.952H132.906Z" fill="#373C45"/>
<path d="M361.863 88.896H144.711V216.84H361.863V88.896Z" fill="white"/>
<path d="M361.864 217.2H144.712C144.496 217.2 144.352 217.056 144.352 216.84V88.896C144.352 88.68 144.496 88.536 144.712 88.536H361.864C362.08 88.536 362.224 88.68 362.224 88.896V216.84C362.224 217.056 362.08 217.2 361.864 217.2ZM145.072 216.48H361.504V89.256H145.072V216.48Z" fill="#373C45"/>
<path d="M339.906 162.552H155.586V170.616H339.978V162.552H339.906Z" fill="#6CCBAF"/>
<path d="M339.906 177.888H155.586V185.952H339.978V177.888H339.906Z" fill="#6CCBAF"/>
<path d="M188.058 113.952H155.586V114.672H188.058V113.952Z" fill="#373C45"/>
<path d="M188.058 118.704H155.586V119.424H188.058V118.704Z" fill="#373C45"/>
<path d="M293.103 118.704H260.703V119.424H293.103V118.704Z" fill="#373C45"/>
<path d="M293.103 123.456H260.703V124.176H293.103V123.456Z" fill="#373C45"/>
<path d="M293.103 128.208H260.703V128.928H293.103V128.208Z" fill="#373C45"/>
<path d="M188.058 123.528H155.586V124.248H188.058V123.528Z" fill="#373C45"/>
<path d="M188.058 203.52H155.586V204.24H188.058V203.52Z" fill="#373C45"/>
<path d="M188.058 207.984H155.586V208.704H188.058V207.984Z" fill="#373C45"/>
<path d="M188.058 128.28H155.586V129H188.058V128.28Z" fill="#373C45"/>
<path d="M233.272 133.392H155.512V141.96H233.272V133.392Z" fill="#6CCBAF"/>
<path d="M339.688 124.824H298.648V129.144H339.688V124.824Z" fill="#6CCBAF"/>
<path d="M340.049 129.432H298.289V113.52H340.049V129.432ZM299.009 128.712H339.329V114.24H299.009V128.712Z" fill="#373C45"/>
<path d="M340.049 125.184H298.289V117.768H340.049V125.184ZM299.009 124.464H339.329V118.488H299.009V124.464Z" fill="#373C45"/>
<path d="M305.271 113.952H304.551V128.928H305.271V113.952Z" fill="#373C45"/>
<path d="M340.267 199.848H155.227V147.36H340.339V199.848H340.267ZM155.947 199.128H339.619V148.08H155.947V199.128Z" fill="#373C45"/>
<path d="M339.906 147.72H155.586V155.784H339.978V147.72H339.906Z" fill="#6CCBAF"/>
<path d="M340.267 156.216H155.227V147.36H340.339V156.216H340.267ZM155.947 155.496H339.619V148.08H155.947V155.496Z" fill="#373C45"/>
<path d="M286.122 147.936H285.402V199.344H286.122V147.936Z" fill="#373C45"/>
<path d="M306.138 147.936H305.418V199.344H306.138V147.936Z" fill="#373C45"/>
<path d="M361.863 88.896H144.711V94.8H361.863V88.896Z" fill="#6CCBAF"/>
<path d="M361.864 95.16H144.712C144.496 95.16 144.352 95.016 144.352 94.8V88.896C144.352 88.68 144.496 88.536 144.712 88.536H361.864C362.08 88.536 362.224 88.68 362.224 88.896V94.8C362.224 95.016 362.08 95.16 361.864 95.16ZM145.072 94.44H361.504V89.256H145.072V94.44Z" fill="#373C45"/>
<path d="M257.75 244.704C257.75 243.84 257.462 242.976 257.03 242.256C256.526 241.536 255.878 240.96 255.014 240.6C254.222 240.24 253.286 240.168 252.422 240.312C251.558 240.456 250.766 240.888 250.118 241.536C249.47 242.184 249.038 242.976 248.894 243.84C248.75 244.704 248.822 245.568 249.182 246.432C249.542 247.224 250.118 247.944 250.838 248.448C251.558 248.952 252.422 249.168 253.286 249.168C254.438 249.168 255.59 248.664 256.454 247.872C257.246 247.008 257.75 245.856 257.75 244.704Z" fill="#373C45"/>
<path d="M253.286 249.528C252.35 249.528 251.414 249.24 250.622 248.736C249.83 248.232 249.182 247.44 248.822 246.576C248.462 245.712 248.39 244.704 248.534 243.768C248.75 242.832 249.182 241.968 249.83 241.32C250.478 240.672 251.342 240.168 252.278 240.024C253.214 239.808 254.15 239.952 255.086 240.312C255.95 240.672 256.742 241.32 257.246 242.112C257.75 242.904 258.038 243.84 258.038 244.776C258.038 246.072 257.534 247.296 256.598 248.16C255.806 248.952 254.582 249.528 253.286 249.528ZM253.286 240.6C252.998 240.6 252.782 240.6 252.494 240.672C251.702 240.816 250.982 241.248 250.406 241.824C249.83 242.4 249.47 243.12 249.254 243.912C249.11 244.704 249.182 245.496 249.47 246.288C249.758 247.008 250.334 247.656 250.982 248.16C251.63 248.592 252.422 248.88 253.286 248.88C254.366 248.88 255.446 248.448 256.166 247.656C256.958 246.864 257.39 245.856 257.39 244.776C257.39 243.984 257.174 243.192 256.67 242.472C256.238 241.824 255.59 241.248 254.798 240.96C254.366 240.672 253.862 240.6 253.286 240.6Z" fill="#373C45"/>
</svg>
